<?xml version="1.0" encoding="utf-8"?>
<svg width="1194" height="600" viewBox="-597 -400 1194 834" xmlns="http://www.w3.org/2000/svg">
  <style>

#t0 {
--visible:1; --timeOffset:30.00008; --speed:12; --bookmarkIndex:-1; --latched:0; --playMode:0; --masked:0; --blendMode:0; --pressureEnabled:0; 
fill:#9FFCFF; stroke-opacity:0; fill-opacity:1; stroke-width:10; stroke-linecap:round; stroke-linejoin:round;
}
@keyframes t0 { 0% { opacity: 1; } 8.333333% { opacity: 0; } }
#t0 .frame { animation:t0 1s calc(var(--index) * 0.08333334s) steps(1) infinite; }

</style>
  <g id="w0" transform="translate(312.50 -179.75) scale(0.54 0.54) rotate(-5.86)" class="weave">
    <g id="t0" transform="translate(-382.25 20.39) scale(1.11 1.11) rotate(-350.70)" class="thread">
      <g id="f0" transform="translate(-176.49 -119.19)" style="--index:0; opacity:1;" class="frame">
        <path d="M116.00,-187.50L114.00,-193.00L105.00,-194.00L-104.00,-193.50L-160.50,-196.50L-204.50,-196.50L-225.50,-195.00L-253.00,-191.00L-268.00,-188.00L-282.00,-184.00L-288.00,-182.00L-303.00,-174.00L-307.00,-171.00L-314.50,-162.00L-316.00,-156.00L-316.00,-152.50L-314.00,-145.00L-305.50,-133.50L-296.00,-125.50L-277.00,-115.00L-234.50,-98.50L-214.00,-92.00L-138.50,-71.50L-111.00,-66.00L-93.50,-63.50L-70.00,-62.00L-34.00,-62.50L-21.50,-63.50L-9.50,-65.50L25.00,-73.00L56.50,-82.50L84.00,-94.00L101.00,-104.00L108.50,-109.50L115.00,-116.00L124.00,-126.50L134.00,-142.00L139.00,-152.50L141.00,-159.00" />
        <path d="M276.50,69.50L271.00,65.00L264.00,64.00L253.00,63.00L217.00,63.00L206.00,63.50L184.50,66.00L165.50,69.00L152.50,72.50L148.50,74.00L143.50,77.50L142.50,79.50L142.50,83.50L145.00,87.50L154.00,93.00L162.50,96.00L167.50,97.50L186.50,100.50L210.00,100.00L234.00,96.00L247.50,92.50L269.00,84.50L277.00,79.50L278.50,75.00L276.50,73.00L269.00,69.50L257.50,67.00" />
        <path d="M397.00,87.00L358.50,88.50L355.00,89.50L354.00,90.50L357.00,92.00L365.00,93.50L386.50,94.00L392.00,93.00L396.50,91.00L398.00,89.00L398.00,87.50L397.00,87.00" />
        <path d="M411.50,88.00L406.00,87.00L397.00,87.00L393.00,86.00" />
        <path d="M-682.18,-339.48L-681.16,-341.97L-675.88,-345.41L-670.58,-350.60L-663.55,-354.02L-647.75,-360.85L-628.49,-364.14L-626.72,-365.87L-614.49,-365.75L-602.33,-358.63L-598.90,-351.60L-598.99,-342.86L-606.06,-335.94L-609.57,-334.23L-613.10,-330.77L-623.63,-327.39L-656.83,-327.73L-669.03,-331.35L-674.28,-331.41L-677.73,-334.94L-681.21,-336.72L-681.19,-338.47L-682.18,-339.48" />
        <path d="M-688.33,-324.56L-682.18,-339.48L-682.92,-340.24L-682.87,-345.48L-681.10,-347.21L-677.61,-347.17L-674.09,-348.89L-665.34,-350.54" />
        <path d="M3.09,-81.41L-26.73,-71.23L-40.71,-71.38L-61.72,-68.10L-84.44,-68.34L-94.95,-66.70L-140.39,-67.17L-147.36,-68.99L-161.35,-69.13L-168.32,-70.95L-175.31,-71.03L-189.26,-74.67L-194.50,-74.72L-199.72,-76.52L-204.97,-76.58L-210.19,-78.38L-217.18,-78.45L-222.41,-80.26L-239.89,-80.44L-245.11,-82.24L-250.36,-82.29L-255.58,-84.10L-260.82,-84.15L-271.28,-87.75L-283.49,-89.63L-290.45,-93.20L-295.69,-93.25L-297.42,-95.02L-304.37,-98.59L-311.29,-105.65L-314.77,-107.43L-321.65,-117.99L-331.94,-137.33L-333.67,-139.09L-333.61,-144.34L-335.33,-147.85L-335.22,-158.34L-331.67,-163.54L-328.15,-165.26L-326.37,-168.73L-317.54,-177.38L-291.16,-192.84L-278.87,-197.96L-270.13,-197.87L-264.87,-199.56L-215.93,-199.05L-210.71,-197.25L-205.46,-197.19L-184.56,-189.99L-181.07,-189.95L-167.12,-186.31L-151.39,-186.15L-140.85,-191.28L-135.57,-194.72L-119.77,-201.55L-114.53,-201.49L-100.49,-206.59L-93.50,-206.52L-79.48,-209.87L-67.25,-209.74L-60.24,-211.42L-44.51,-211.26L-37.50,-212.93L11.44,-212.42L16.67,-210.62L20.16,-210.58L30.61,-206.98L42.83,-205.11L48.05,-203.30L72.38,-189.07L89.67,-171.41L93.12,-166.13L100.03,-159.06L101.73,-153.80L105.17,-148.52" />
      </g>
      <g id="f1" transform="translate(-176.49 -119.19)" style="--index:1; opacity:0;" class="frame">
        <path d="M98.00,-101.50L102.00,-107.50L105.50,-110.50L105.50,-111.50L98.50,-113.50L68.00,-117.00L-2.50,-122.50L-64.50,-130.50L-156.00,-140.00L-194.50,-141.50L-263.00,-141.00L-282.00,-139.50L-305.50,-136.00L-322.50,-131.50L-331.50,-126.50L-333.50,-124.00L-336.00,-118.50L-336.00,-110.50L-333.50,-100.50L-328.00,-89.50L-319.00,-77.50L-313.50,-72.00L-307.00,-66.50L-292.50,-56.50L-268.00,-44.50L-213.00,-21.00L-181.50,-10.00L-158.50,-3.00L-135.50,2.50L-98.50,7.50L-74.50,9.50L-62.50,10.00L-38.00,9.50L-14.00,6.50L10.50,0.50L44.50,-9.50L74.00,-20.00L82.50,-24.00L98.00,-34.00L105.00,-40.00L122.00,-62.50L125.00,-69.50L126.50,-77.00L127.00,-83.00L124.50,-92.50" />
        <path d="M287.50,71.50L281.00,69.00L270.50,67.00L248.00,65.50L210.50,65.00L190.50,67.00L167.50,72.00L158.00,76.50L154.00,81.00L155.00,85.50L157.00,88.00L170.50,94.00L199.00,99.00L216.00,100.00L241.00,100.00L255.50,98.00L268.50,95.00L273.50,93.00L278.00,91.00L285.00,85.50L287.00,83.00L288.50,78.00L285.50,74.00L281.50,72.00L271.00,70.00" />
        <path d="M413.50,89.50L407.50,88.00L384.00,88.00L371.00,90.50L370.50,92.00L375.50,93.00L391.50,93.00L401.50,91.50L403.00,90.00L400.00,89.50" />
        <path d="M-666.16,-342.15L-661.82,-352.25L-624.92,-371.10L-591.64,-377.75L-556.68,-377.38L-547.98,-373.80L-546.23,-373.78L-541.03,-370.23L-537.60,-363.20L-535.93,-356.19L-536.00,-349.20L-537.79,-345.72L-543.12,-337.04L-546.63,-335.33L-551.93,-330.14L-569.52,-319.83L-580.06,-314.70L-606.33,-309.73L-658.76,-310.27L-670.98,-312.15L-683.11,-322.76L-683.01,-331.50L-681.23,-334.98L-677.70,-338.44L-666.16,-342.15" />
        <path d="M-670.78,-331.37L-666.16,-342.15L-661.91,-343.52" />
        <path d="M-46.68,-1.52L-67.66,-1.74L-79.93,1.63L-85.17,1.57L-92.18,3.25L-155.10,2.60L-163.86,4.25L-218.04,3.69L-225.01,1.87L-232.00,1.80L-237.23,0.00L-244.22,-0.08L-251.19,-1.90L-258.18,-1.97L-279.08,-9.18L-286.04,-12.75L-296.49,-16.35L-299.95,-19.88L-310.40,-23.49L-313.86,-27.02L-319.08,-28.82L-322.54,-32.35L-326.02,-34.14L-332.94,-41.20L-334.65,-44.71L-338.13,-46.50L-339.84,-50.01L-343.30,-53.54L-346.72,-60.57L-346.70,-62.32L-350.14,-67.60L-351.82,-74.61L-351.56,-99.08L-348.00,-106.03L-346.23,-107.76L-346.21,-109.51L-344.43,-112.99L-340.91,-114.70L-337.36,-119.90L-323.31,-126.75L-316.30,-128.43L-311.06,-128.37L-305.80,-130.06L-298.80,-129.99L-293.54,-131.69L-279.56,-131.54L-274.30,-133.23L-174.68,-132.20L-151.88,-138.96L-129.07,-147.46L-122.06,-149.13L-120.30,-150.86L-99.25,-157.64L-92.24,-159.31L-87.00,-159.26L-81.74,-160.95L-29.30,-160.41L-25.82,-158.62L-18.83,-158.55L-13.61,-156.75L-8.36,-156.69L12.55,-151.23L17.80,-151.18L35.22,-145.75L43.92,-142.17L54.34,-135.07L57.83,-135.03L63.02,-129.73L68.23,-126.18L80.32,-112.07L83.74,-105.05L87.09,-91.03L87.04,-85.78L88.73,-80.52L88.68,-75.28L85.05,-63.08L83.29,-61.35L76.17,-49.19" />
        <path d="M-218.15,-153.63L-235.54,-162.55L-235.47,-169.54L-233.68,-173.02L-230.15,-176.47L-224.87,-179.92L-216.08,-185.07L-212.58,-185.03L-203.81,-188.44L-186.29,-191.75L-160.08,-191.48L-153.09,-191.41L-146.11,-189.59L-137.43,-184.25L-133.97,-180.72L-133.99,-178.97L-132.28,-175.46L-132.37,-166.72L-134.15,-163.24L-144.71,-156.36L-155.25,-151.23L-160.51,-149.53L-176.24,-149.70L-183.25,-148.02L-191.99,-148.11L-198.96,-149.93L-207.70,-150.02L-214.68,-151.84L-221.67,-151.92L-226.89,-153.72L-235.63,-153.81" />
      </g>
      <g id="f2" transform="translate(-176.49 -119.19)" style="--index:2; opacity:0;" class="frame">
        <path d="M115.00,-51.50L110.50,-56.50L100.50,-61.00L89.00,-64.00L73.00,-66.50L11.50,-70.00L-111.50,-81.00L-181.50,-85.00L-219.00,-85.00L-241.00,-84.00L-276.50,-79.00L-294.50,-73.00L-301.50,-69.00L-303.50,-66.50L-304.50,-63.50L-305.00,-56.50L-303.50,-52.00L-298.00,-42.50L-289.00,-32.50L-270.00,-19.00L-255.00,-10.50L-238.50,-2.50L-211.00,7.50L-150.00,25.00L-91.00,38.00L-46.50,45.50L-11.50,46.00L11.50,43.00L62.50,30.50L85.00,22.50L99.00,16.00L116.00,4.50L123.00,-4.00L125.00,-8.50L126.50,-18.00L126.00,-22.50L122.00,-30.50L115.00,-37.50" />
        <path d="M294.00,75.50L288.00,72.50L277.50,70.50L242.00,70.00L218.50,73.00L204.00,76.00L192.50,79.50L186.00,83.00L184.00,85.00L183.50,88.50L184.50,90.00L190.00,94.00L199.00,97.00L204.50,98.50L218.00,100.00L258.00,99.50L285.00,95.00L297.00,89.00L300.00,84.50L300.00,82.00L299.50,80.00L297.00,78.50L288.50,75.50L283.00,75.00" />
        <path transform="translate(0.00 NaN)" d="M395.00,91.50L393.50,91.50L395.00,91.50" />
        <path d="M395.00,91.50L395.00,91.50" />
        <path d="M406.75,89.44L395.00,91.50L408.00,91.00L409.50,90.00L406.75,89.44" />
        <path d="M414.00,89.50L394.50,89.00" />
        <path transform="translate(0.00 NaN)" d="M401.00,92.00L399.50,92.00L401.00,92.00" />
        <path d="M401.00,92.00L401.00,92.00" />
        <path d="M405.75,91.50L401.00,92.00L405.75,91.50" />
        <path transform="translate(0.00 NaN)" d="M407.67,91.50L405.75,91.50L407.67,91.50" />
        <path d="M421.50,91.00L414.50,90.50L407.67,91.50L414.50,91.50L413.50,92.00" />
        <path d="M-676.40,-346.89L-677.54,-354.17L-666.96,-362.80L-645.86,-374.81L-635.32,-379.95L-602.00,-390.09L-584.50,-391.66L-554.79,-391.35L-530.32,-391.09L-518.11,-389.22L-504.16,-385.58L-500.66,-385.54L-488.52,-376.68L-483.39,-366.13L-483.50,-355.65L-485.30,-350.42L-495.97,-333.05L-510.09,-319.22L-525.91,-310.64L-529.45,-307.18L-543.50,-300.34L-557.54,-295.24L-562.78,-295.29L-573.30,-291.91L-583.81,-290.27L-594.29,-290.38L-604.80,-288.74L-615.29,-288.84L-625.79,-287.21L-653.76,-287.50L-674.67,-292.96L-679.88,-296.51L-690.21,-312.35L-691.90,-317.61L-691.74,-333.34L-688.19,-338.54L-684.65,-342.00L-676.40,-346.89" />
        <path d="M-674.26,-333.16L-676.40,-346.89L-672.35,-348.87" />
        <path d="M-151.83,-144.20L-169.20,-154.87L-184.87,-160.27L-197.07,-163.90L-202.31,-163.95L-207.54,-165.75L-212.78,-165.81L-218.01,-167.61L-231.99,-167.75L-235.47,-169.54L-244.21,-169.63L-249.50,-164.44L-249.58,-157.45L-247.85,-155.68L-233.94,-148.55L-230.44,-148.51L-226.96,-146.73L-202.50,-146.47L-197.22,-149.91L-193.72,-149.88L-190.19,-153.34L-190.17,-155.08L-188.42,-155.07L-188.39,-158.56L-191.88,-158.60" />
        <path d="M-55.86,40.33L-73.32,38.40L-80.33,40.08L-97.80,39.90L-110.06,41.52L-197.44,40.61L-228.85,35.04L-237.55,31.46L-267.19,24.16L-281.08,15.27L-286.29,11.72L-289.75,8.19L-293.19,2.91L-293.08,-7.57L-291.30,-11.05L-287.77,-14.51L-284.18,-23.21L-277.12,-30.13L-275.33,-33.61L-261.21,-47.45L-259.42,-50.92L-252.36,-57.84L-245.33,-61.27L-243.55,-64.74L-240.03,-66.46L-236.54,-66.42L-227.76,-69.82L-224.27,-69.79L-217.26,-71.46L-180.55,-71.08L-173.58,-69.26L-164.84,-69.17L-150.90,-65.53L-145.65,-65.48L-131.71,-61.84L-126.46,-61.78L-119.49,-59.96L-82.79,-59.58L-79.26,-63.04L-75.74,-64.75L-54.55,-85.51L-49.29,-87.20L-45.76,-90.66L-36.98,-94.06L-31.72,-95.76L-26.48,-95.70L-21.22,-97.40L24.23,-96.92L46.89,-91.45L59.07,-86.08L88.69,-77.03L93.90,-73.48L102.60,-69.89L109.52,-62.83L113.00,-61.04L116.42,-54.02L119.88,-50.48L121.59,-46.97L121.34,-22.50L117.79,-17.30L115.99,-12.07L108.87,0.09" />
      </g>
      <g id="f3" transform="translate(-176.49 -119.19)" style="--index:3; opacity:0;" class="frame">
        <path d="M158.00,-10.50L159.00,-16.00L158.50,-17.00L140.50,-23.00L120.50,-28.00L65.50,-37.00L4.00,-43.50L-33.50,-46.00L-101.50,-46.50L-123.00,-45.00L-177.00,-38.00L-214.50,-31.00L-221.00,-28.00L-225.50,-23.00L-225.50,-19.00L-224.50,-16.00L-218.00,-6.00L-198.50,17.00L-188.00,27.00L-175.00,36.00L-159.50,43.50L-107.00,62.50L-78.00,70.00L-44.50,75.00L14.50,78.50L50.50,78.50L75.00,75.50L98.50,70.50L109.00,67.50L128.50,60.00L141.00,53.00L151.00,45.50L156.50,40.00L161.00,33.50L164.50,27.50L168.00,16.50L168.50,7.00L167.50,3.00" />
        <path d="M314.50,81.00L310.00,77.00L307.00,76.00L288.00,73.00L256.00,73.00L237.50,75.00L220.50,78.00L208.00,82.00L200.50,85.50L199.00,87.50L199.00,91.00L200.50,93.00L212.50,97.50L224.50,99.00L266.00,99.00L290.00,97.00L302.50,95.00L311.00,92.00L313.00,90.00L314.50,85.50L313.00,83.00L306.50,79.00L295.00,77.00" />
        <path d="M420.00,91.00L415.00,90.00L388.50,92.50" />
        <path d="M-661.83,-303.06L-663.97,-313.82L-663.61,-348.78L-661.73,-360.99L-656.38,-371.43L-647.55,-380.07L-638.76,-385.23L-635.23,-388.69L-622.94,-393.80L-598.40,-400.54L-570.39,-403.74L-510.97,-403.13L-467.33,-397.43L-453.38,-393.79L-442.95,-388.44L-429.02,-383.05L-423.82,-379.50L-409.91,-372.36L-401.31,-358.29L-401.39,-351.30L-403.19,-346.08L-413.82,-332.20L-429.70,-318.38L-440.24,-313.25L-450.80,-306.37L-475.41,-292.64L-499.99,-282.40L-514.02,-277.31L-526.29,-273.94L-559.56,-269.04L-587.52,-269.33L-606.73,-271.28L-617.18,-274.88L-634.55,-285.55L-643.25,-289.13L-650.19,-294.45L-655.38,-299.75L-661.83,-303.06" />
        <path d="M-631.22,-269.78L-650.33,-280.47L-655.52,-285.77L-658.96,-291.05L-661.83,-303.06L-669.25,-310.38L-672.73,-312.16L-676.17,-317.44L-681.38,-320.99L-684.82,-326.27L-684.80,-328.02" />
        <path d="M62.59,80.02L45.15,76.34L39.93,74.54L10.21,74.23L-106.74,59.03L-141.64,53.43L-152.13,53.32L-178.29,47.80L-201.01,47.57L-206.24,45.77L-228.96,45.53L-234.18,43.73L-239.43,43.67L-242.90,41.89L-248.15,41.83L-255.10,38.27L-265.48,27.67L-265.35,15.44L-263.57,11.96L-252.97,1.58L-228.36,-12.15L-205.64,-11.91L-202.16,-10.13L-196.92,-10.07L-193.44,-8.29L-163.73,-7.98L-158.47,-9.67L-153.22,-9.62L-139.19,-14.72L-133.94,-14.66L-128.68,-16.36L-119.94,-16.27L-114.68,-17.96L-95.46,-17.76L-91.94,-19.47L-86.70,-19.42L-83.19,-21.13L-81.44,-21.11L-76.16,-24.55L-74.41,-24.53L-72.64,-26.26L-72.63,-28.01L-70.86,-29.74L-70.82,-33.24L-69.06,-34.97L-68.99,-41.96L-67.22,-43.69L-67.20,-45.43L-65.42,-48.91L-53.11,-55.78L-49.58,-59.24L-46.07,-60.95L-32.05,-64.30L-21.56,-64.19L-14.55,-65.86L29.14,-65.41L34.37,-63.61L39.61,-63.55L60.49,-54.60L63.95,-51.07L77.88,-45.68L81.34,-42.15L95.27,-36.76L107.43,-29.64L110.89,-26.11L117.85,-22.54L121.30,-19.01L128.26,-15.44L129.97,-11.92L133.45,-10.14L138.64,-4.84L142.08,0.44L143.79,3.95L143.74,9.19L145.46,10.96L145.43,14.46" />
      </g>
      <g id="f4" transform="translate(-176.49 -119.19)" style="--index:4; opacity:0;" class="frame">
        <path d="M176.00,4.50L171.50,0.00L131.50,-4.00L70.50,-8.50L-11.50,-12.00L-74.00,-17.50L-122.50,-18.50L-142.00,-16.00L-151.00,-12.50L-156.00,-7.00L-157.00,-4.00L-157.50,4.50L-156.50,9.50L-151.50,19.50L-143.00,29.50L-130.50,39.00L-105.00,51.50L-75.00,63.00L-41.00,73.00L7.50,81.50L45.00,85.50L81.00,87.00L115.00,87.00L145.00,84.00L161.00,79.50L168.00,76.50L179.00,68.50L186.50,57.50L189.00,51.00L192.00,38.50L192.00,32.50L191.50,27.00L186.50,17.00L183.50,13.00L176.50,7.00" />
        <path d="M318.13,83.58L319.00,81.00L317.50,79.50L312.50,78.50L277.00,78.00L255.50,80.00L237.00,84.50L224.50,89.50L220.00,92.50L218.50,95.00L218.50,96.50L220.50,98.50L226.00,100.50L240.50,102.00L275.00,101.50L301.00,97.50L315.50,93.50L322.00,89.00L322.00,86.50L318.13,83.58" />
        <path d="M316.50,86.50L318.00,83.50L304.50,80.00" />
        <path d="M416.50,94.50L411.50,93.00L403.00,94.00" />
        <path d="M-587.70,-251.85L-606.87,-257.29L-613.87,-257.37L-626.06,-260.99L-633.02,-264.56L-639.95,-269.87L-650.33,-280.47L-655.50,-287.51L-662.31,-305.06L-665.70,-315.59L-667.36,-324.34L-670.62,-347.10L-670.36,-371.57L-666.79,-378.53L-659.75,-383.70L-652.69,-390.61L-626.32,-404.33L-596.50,-414.50L-563.22,-421.15L-547.49,-420.99L-528.25,-422.54L-453.09,-421.76L-433.89,-419.81L-400.75,-412.47L-360.70,-398.07L-341.60,-385.64L-332.93,-378.56L-327.76,-371.51L-322.57,-366.21L-315.71,-353.91L-315.78,-346.92L-314.09,-341.65L-314.14,-336.41L-317.76,-324.21L-333.66,-308.65L-340.70,-303.48L-377.61,-284.63L-388.13,-281.24L-396.92,-276.09L-423.23,-267.62L-426.73,-267.66L-442.51,-262.58L-453.01,-260.94L-458.26,-261.00L-479.29,-255.97L-488.02,-256.06L-523.03,-251.18L-556.24,-251.52L-564.96,-253.36L-575.41,-256.97L-585.88,-258.82L-596.33,-262.43L-617.25,-267.89L-620.75,-267.93L-627.72,-269.75L-634.71,-269.82" />
        <path d="M-208.52,13.40L-209.39,12.52L-216.38,12.45L-221.61,10.65L-240.83,10.45L-260.15,18.99L-263.68,22.45L-263.70,24.19L-265.46,25.92L-265.50,29.42L-260.31,34.72L-255.10,38.27L-248.15,41.83L-244.65,41.87L-237.70,45.44L-234.20,45.48L-228.98,47.28L-221.99,47.35L-216.76,49.15L-195.79,49.37L-192.31,51.15L-174.83,51.34L-173.10,53.10L-162.62,53.21L-160.87,53.23L-159.10,51.50L-157.35,51.52L-155.59,49.79L-153.84,49.81L-153.71,37.57L-164.11,28.72L-174.54,23.37L-188.47,17.98L-191.97,17.95L-202.42,14.34L-208.52,13.40" />
        <path d="M-193.79,24.92L-208.52,13.40L-226.81,7.10L-237.30,6.99" />
        <path d="M-36.39,17.81L-66.11,17.50L-71.30,12.21L-78.16,-0.10L-79.89,-1.87L-79.78,-12.35L-78.00,-15.83L-74.48,-17.54L-72.70,-21.02L-63.92,-24.42L-60.39,-27.88L-48.12,-31.25L-42.84,-34.69L-21.81,-39.72L-2.52,-46.51L16.71,-46.31L28.87,-39.19L39.25,-28.60L42.73,-26.81L46.19,-23.28L49.68,-23.25L54.89,-19.70L63.63,-19.61L72.40,-23.01L75.92,-24.72L79.45,-28.18L84.73,-31.62L98.78,-38.47L104.04,-40.16L119.77,-40.00L131.95,-34.63L140.58,-24.05L159.50,5.86L164.65,14.65L169.75,28.69" />
      </g>
      <g id="f5" transform="translate(-176.49 -119.19)" style="--index:5; opacity:0;" class="frame">
        <path d="M204.50,20.50L205.50,15.50L205.00,12.00L204.00,10.50L198.50,8.50L108.00,10.00L83.00,9.00L20.00,4.00L-18.00,3.00L-40.00,4.00L-57.50,6.00L-65.00,7.50L-76.50,12.00L-80.50,14.50L-84.50,20.50L-85.00,27.50L-83.50,31.50L-81.00,36.00L-77.50,40.00L-72.50,44.00L-67.50,47.50L-54.00,54.00L-38.00,60.50L-12.00,69.50L44.50,85.50L80.50,94.00L110.00,96.00L138.50,95.50L163.00,91.00L189.00,84.50L199.50,80.00L209.00,74.00L217.50,67.00L223.50,58.50L228.50,49.00L230.50,39.50L231.00,29.00L229.50,25.00L227.00,20.50L223.50,16.50L218.00,13.00" />
        <path d="M344.00,86.00L339.50,81.50L332.50,80.50L315.50,79.50L287.50,80.00L267.00,83.00L251.00,87.00L249.00,89.00L249.50,91.50L254.00,93.50L262.00,95.50L278.50,96.50L316.50,96.50L327.00,95.50L335.50,93.50L340.50,91.00L341.50,89.00L341.00,86.00L332.00,82.50" />
        <path d="M418.50,94.00L411.50,92.50L405.50,93.00" />
        <path d="M-572.24,-225.47L-589.58,-239.63L-593.02,-244.91L-605.13,-257.28L-610.28,-266.07L-625.68,-297.69L-627.32,-308.20L-630.69,-320.47L-632.31,-332.72L-631.89,-372.92L-628.22,-390.36L-622.88,-399.05L-615.82,-405.96L-607.01,-412.86L-596.45,-419.75L-584.16,-424.86L-556.12,-431.56L-542.12,-433.17L-524.64,-432.99L-507.15,-434.55L-487.92,-434.35L-468.70,-434.15L-449.49,-432.21L-432.01,-432.02L-395.34,-428.15L-346.52,-417.15L-332.55,-415.26L-304.66,-407.98L-292.44,-406.10L-269.79,-398.88L-248.93,-388.17L-238.55,-377.58L-228.23,-361.74L-226.54,-356.48L-224.86,-349.47L-225.06,-330.24L-239.37,-298.93L-253.55,-279.85L-258.85,-274.66L-262.40,-269.45L-278.25,-257.38L-283.55,-252.19L-295.86,-245.33L-302.87,-243.65L-308.15,-240.21L-330.94,-233.46L-339.72,-230.05L-376.49,-223.44L-387.02,-220.05L-395.76,-220.14L-406.26,-218.51L-415.00,-218.60L-425.50,-216.96L-434.24,-217.05L-443.00,-215.39L-512.91,-216.12L-532.08,-221.56L-537.29,-225.11L-542.51,-226.91L-547.72,-230.46L-561.63,-237.60L-565.09,-241.13L-566.80,-244.64L-568.55,-244.66" />
        <path d="M-54.04,33.36L-52.11,15.90L-43.31,10.75L-38.05,9.06L-31.01,3.88L-23.98,0.46L-13.42,-6.42L-8.16,-8.11L-2.88,-11.56L12.91,-16.64L18.15,-16.58L23.41,-18.27L46.13,-18.04L49.59,-14.51L54.82,-12.70L61.73,-5.64L65.19,-2.11L66.91,1.40L72.09,6.70L73.81,10.22L79.01,13.77L82.51,13.80L85.99,15.59L99.97,15.73L121.03,7.21L122.80,5.48L131.57,2.08L152.60,-2.95L163.09,-2.84L168.31,-1.04L175.30,-0.97L182.26,2.60L184.01,2.62L204.84,16.82L206.55,20.33L210.02,22.12L213.48,25.65L215.19,29.16L218.65,32.69L218.64,34.44L220.35,37.96L220.29,43.20" />
        <path d="M-195.66,37.14L-228.78,28.05L-234.02,28.00L-242.72,24.41L-254.96,24.28L-255.01,29.53L-253.30,33.04L-249.82,34.83L-246.33,34.86L-242.85,36.65L-239.35,36.68L-234.13,38.48L-211.41,38.72L-200.92,38.83L-199.16,37.10L-195.66,37.14" />
        <path d="M-171.23,40.88L-188.67,37.21L-195.66,37.14L-192.16,37.17" />
      </g>
      <g id="f6" transform="translate(-176.49 -119.19)" style="--index:6; opacity:0;" class="frame">
        <path d="M221.34,23.44L197.00,21.00L132.50,21.50L98.00,19.50L61.50,18.50L37.50,19.50L5.00,22.50L-20.00,27.50L-33.00,31.50L-37.50,34.00L-45.00,39.50L-47.50,42.50L-49.00,49.50L-49.00,53.50L-45.00,61.50L-41.50,65.00L-37.50,68.50L-26.50,75.00L-6.50,82.00L10.00,85.00L37.00,86.00L90.50,83.00L149.50,83.00L169.50,81.00L186.50,78.00L206.50,72.00L216.00,66.00L220.00,62.50L226.00,54.50L228.50,46.00L227.00,33.00L221.34,23.44" />
        <path d="M230.00,40.00L232.00,32.50L231.00,28.50L227.50,25.50L221.34,23.44L215.00,15.50" />
        <path d="M363.50,85.00L354.50,82.50L309.50,82.00L295.00,83.00L279.00,86.00L272.00,89.50L272.50,92.00L279.50,95.50L294.00,97.50L325.50,97.50L346.50,95.00L355.00,92.00L356.50,90.00L354.50,88.00" />
        <path d="M415.50,94.50" />
        <path d="M-561.85,-216.62L-570.50,-225.45L-575.67,-232.50L-582.51,-246.55L-589.32,-264.10L-597.63,-306.14L-597.32,-335.85L-593.77,-341.06L-588.47,-346.25L-583.16,-353.19L-556.76,-370.39L-525.17,-382.30L-455.08,-399.05L-437.56,-402.37L-420.07,-403.93L-386.79,-410.58L-355.29,-413.75L-339.56,-413.59L-323.81,-415.17L-269.63,-414.61L-255.67,-412.72L-243.43,-412.59L-231.23,-408.97L-220.77,-407.11L-210.32,-403.50L-194.69,-392.85L-184.32,-382.26L-179.15,-375.21L-175.72,-368.19L-172.37,-354.17L-172.52,-340.19L-170.84,-333.18L-171.06,-312.20L-172.88,-305.23L-173.01,-293.00L-174.81,-287.77L-174.86,-282.53L-182.07,-261.63L-192.67,-251.25L-197.95,-247.81L-204.98,-244.38L-212.02,-239.21L-227.82,-232.39L-266.42,-218.80L-294.46,-212.10L-303.23,-208.70L-327.75,-203.71L-336.53,-200.30L-357.56,-195.28L-364.55,-195.35L-378.57,-192.00L-385.56,-192.07L-392.57,-190.40L-406.55,-190.54L-415.31,-188.88L-427.54,-189.01L-434.55,-187.34L-453.78,-187.53L-499.09,-200.24L-506.08,-200.31L-518.28,-203.94L-523.52,-203.99L-551.40,-213.02L-560.10,-216.61L-561.85,-216.62" />
        <path d="M-532.30,-200.59L-549.72,-206.01L-554.91,-211.31L-561.85,-216.62L-563.60,-216.64L-567.06,-220.17" />
        <path d="M151.77,77.45L132.58,73.75L129.08,73.72L122.11,71.90L108.13,71.75L101.15,69.93L74.94,69.66L66.22,67.82L45.24,67.60L26.05,63.91L-8.81,54.81L-14.02,51.26L-19.24,49.45L-22.70,45.92L-26.18,44.14L-29.60,37.11L-31.33,35.34L-31.21,23.11L-29.42,19.63L-25.91,17.92L-22.36,12.71L-11.82,7.58L-6.57,7.63L-3.06,5.92L24.90,6.21L31.88,8.03L63.34,8.36L66.81,10.14L70.31,10.18L75.54,11.98L79.01,13.77L82.51,13.80L91.21,17.39L159.37,18.10L162.89,16.38L185.61,16.62L190.82,20.17L194.31,20.21L196.04,21.97L199.54,22.01L206.46,29.07L206.44,30.82L208.17,32.59L208.15,34.33L209.86,37.85L209.82,41.34" />
        <path d="M-213.28,50.94L-230.65,40.27L-235.88,38.47L-246.36,38.36L-251.59,36.56L-269.07,36.37L-272.56,36.34L-270.83,38.10L-269.09,38.12L-263.88,41.67L-256.91,43.49L-241.18,43.65L-235.90,40.21L-232.40,40.25" />
      </g>
      <g id="f7" transform="translate(-176.49 -119.19)" style="--index:7; opacity:0;" class="frame">
        <path d="M239.00,47.00L239.50,41.50L234.00,37.50L224.00,32.50L209.50,28.00L149.00,19.00L127.50,17.00L93.00,16.00L70.50,18.00L37.50,24.00L13.00,30.50L6.50,33.50L1.50,36.00L-5.50,42.00L-7.50,45.50L-8.50,49.00L-8.50,56.50L-7.50,60.00L-5.00,63.50L2.50,69.50L12.00,74.00L31.00,80.00L45.50,83.50L71.00,88.00L101.50,92.00L133.00,94.00L153.50,93.50L173.00,90.50L190.50,86.00L205.50,80.00L218.00,73.00L222.50,69.50L228.50,63.00L232.50,57.00L235.50,46.50L233.50,41.50" />
        <path d="M359.00,83.00L343.50,81.00L315.00,80.50L305.00,81.50L293.00,85.50L292.00,87.00L292.50,90.00L296.50,94.00L299.50,95.50L303.00,97.00L312.00,99.00L323.00,99.50L341.50,98.50L352.00,96.50L359.50,94.00L363.00,91.00L363.50,89.50L360.50,86.50L356.50,85.50" />
        <path d="M-436.46,-171.62L-462.57,-182.38L-467.78,-185.93L-479.96,-191.30L-492.12,-198.42L-502.53,-205.52L-509.49,-209.09L-514.68,-214.39L-526.84,-221.50L-530.28,-226.78L-533.74,-230.32L-540.62,-240.87L-545.68,-258.41L-545.56,-270.64L-547.25,-275.90L-547.12,-288.14L-545.32,-293.36L-538.18,-307.27L-532.87,-314.21L-520.51,-326.32L-515.19,-333.25L-506.40,-338.41L-499.33,-345.32L-483.50,-355.65L-448.32,-376.26L-420.23,-388.20L-409.73,-389.84L-399.20,-393.23L-355.44,-399.77L-283.78,-399.02L-273.31,-397.17L-261.11,-393.54L-248.89,-391.67L-236.70,-388.05L-224.48,-386.17L-201.83,-378.95L-180.95,-369.99L-172.26,-364.65L-156.61,-357.50L-149.67,-352.18L-125.35,-337.95L-108.07,-318.54L-106.36,-315.03L-102.90,-311.50L-94.36,-292.18L-94.59,-269.46L-101.78,-250.31L-108.90,-238.14L-112.49,-229.44L-114.25,-227.71L-117.82,-220.76L-117.86,-217.26L-119.62,-215.53L-123.19,-208.58L-123.21,-206.83L-126.76,-201.62L-130.29,-198.16L-139.09,-193.01L-149.61,-189.62L-189.90,-181.30L-198.64,-181.39L-217.90,-178.10L-228.39,-178.20L-301.94,-164.98L-310.68,-165.07L-317.69,-163.40L-324.68,-163.47L-331.69,-161.80L-345.67,-161.94L-350.93,-160.25L-413.85,-160.90L-439.98,-169.91L-445.22,-169.97L-450.44,-171.77L-460.93,-171.88L-464.41,-173.66L-478.39,-173.81" />
        <path d="M155.10,93.21L135.89,91.27L52.00,90.40L43.28,88.56L36.29,88.49L-0.33,79.37L-16.00,73.96L-19.46,70.43L-31.62,63.31L-35.06,58.03L-34.96,47.54L-33.17,44.07L-27.89,40.62L-26.11,37.15L-19.08,33.72L-8.56,30.34L1.98,25.20L14.25,21.83L19.50,21.89L26.51,20.21L101.66,20.99L112.20,15.86L119.21,14.18L122.73,12.47L133.21,12.58L138.47,10.89L143.72,10.94L175.07,21.75L188.96,30.64L194.19,32.44" />
      </g>
      <g id="f8" transform="translate(-176.49 -119.19)" style="--index:8; opacity:0;" class="frame">
        <path d="M225.00,46.00L218.50,41.00L191.50,31.50L178.50,29.00L151.00,27.50L119.50,27.50L96.00,30.50L61.50,37.50L41.50,43.50L27.00,49.00L16.00,55.00L12.50,58.00L9.50,61.00L7.00,67.50L7.00,70.50L8.50,73.50L11.50,76.50L21.50,81.50L36.00,85.50L72.00,93.00L92.50,95.50L113.50,96.00L124.50,94.50L157.00,88.00L177.00,82.00L203.00,72.00L230.00,59.50L239.50,52.50L241.00,48.50L240.00,47.00" />
        <path d="M386.00,86.00L380.50,84.00L353.00,81.50L326.50,81.00L315.00,82.50L305.50,85.00L301.00,87.50L300.00,89.00L301.00,92.00L306.50,95.00L310.50,96.00L325.00,97.50L337.50,97.50L369.00,94.50L374.50,93.00L376.50,90.50L375.50,87.50L371.00,85.00" />
        <path d="M-406.00,-159.07L-426.10,-159.28L-431.33,-161.08L-434.82,-161.12L-448.73,-168.25L-453.90,-175.30L-457.33,-182.33L-460.79,-185.86L-465.90,-198.15L-469.36,-201.68L-472.78,-208.71L-477.88,-222.74L-477.65,-245.47L-472.26,-259.39L-466.92,-268.08L-458.09,-276.73L-452.82,-280.17L-442.22,-290.55L-436.94,-293.99L-422.89,-300.83L-415.84,-306.00L-401.79,-312.85L-345.60,-336.74L-329.84,-340.07L-322.81,-343.49L-307.04,-346.83L-298.27,-350.23L-279.01,-353.53L-270.23,-356.93L-224.70,-365.20L-215.96,-365.11L-207.20,-366.77L-182.73,-366.51L-151.34,-359.19L-132.21,-350.26L-125.24,-348.43L-114.82,-341.33L-104.37,-337.73L-93.94,-332.38L-88.73,-328.83L-83.51,-327.03L-73.11,-318.18L-69.63,-316.39L-67.92,-312.88L-64.46,-309.35L-60.99,-307.56L-48.88,-295.20L-45.40,-293.42L-43.69,-289.91L-40.21,-288.12L-36.75,-284.59L-33.31,-279.31L-29.85,-275.78L-21.30,-258.21L-17.84,-254.68L-7.57,-233.60L-7.64,-226.60L-5.93,-223.09L-6.00,-216.10L-9.59,-207.40L-9.62,-203.90L-13.17,-198.69L-13.21,-195.20L-14.96,-195.22L-16.72,-193.49L-16.74,-191.74L-20.27,-188.28L-23.77,-188.32L-30.83,-181.40L-32.58,-181.42L-34.35,-179.69L-36.09,-179.71L-39.61,-177.99L-46.60,-178.07L-50.11,-176.35L-142.74,-177.32L-149.75,-175.64L-175.97,-175.91L-184.73,-174.26L-193.47,-174.35L-202.22,-172.69L-210.96,-172.78L-265.25,-162.85L-273.99,-162.95L-300.26,-157.97L-309.00,-158.07L-319.51,-156.43L-403.40,-157.30L-406.00,-159.07" />
        <path d="M-287.86,-173.58L-307.11,-172.03L-310.62,-170.32L-315.87,-170.37L-322.87,-168.70L-329.87,-168.77L-373.65,-160.48L-382.39,-160.57L-389.40,-158.90L-406.00,-159.07L-408.61,-160.85L-417.33,-162.69L-420.80,-164.47L-436.43,-175.12L-441.65,-176.92L-452.06,-184.02" />
        <path d="M-379.54,-267.17L-398.76,-267.37L-402.27,-265.66L-407.52,-265.71L-416.29,-262.31L-421.57,-258.87L-442.76,-238.11L-460.48,-215.57L-464.05,-208.62L-464.19,-194.63L-460.71,-192.85L-459.00,-189.34L-441.61,-180.42L-436.39,-178.61L-427.70,-173.28L-422.48,-171.48L-415.49,-171.41L-399.81,-166.00L-392.82,-165.93L-382.37,-162.32L-375.38,-162.25L-364.93,-158.65L-350.95,-158.50L-345.72,-156.70L-303.78,-156.26L-298.51,-157.96L-268.80,-157.65L-263.58,-155.85L-258.33,-155.79L-254.86,-154.01L-223.40,-153.68L-219.92,-151.90L-216.42,-151.86L-214.69,-150.09L-211.20,-150.06L-207.72,-148.27L-204.22,-148.24L-200.75,-146.45L-190.26,-146.35L-179.74,-149.73L-169.25,-149.62L-163.99,-151.32L-137.77,-151.04L-113.21,-159.53L-109.72,-159.49L-106.20,-161.20L-100.96,-161.15L-97.45,-162.86L-90.46,-162.79L-81.68,-166.19L-78.19,-166.16L-69.41,-169.56L-65.91,-169.53L-53.63,-174.64L-50.13,-174.61L-44.85,-178.05L-37.82,-181.47L-36.08,-181.45L-25.52,-188.34L-14.92,-198.71L-14.88,-202.21" />
      </g>
      <g id="f9" transform="translate(-176.49 -119.19)" style="--index:9; opacity:0;" class="frame">
        <path d="M-69.00,-293.00L-78.00,-295.00L-96.50,-296.50L-146.50,-297.00L-188.50,-294.00L-217.50,-290.50L-257.50,-284.00L-304.00,-273.50L-327.50,-267.50L-360.50,-255.00L-380.50,-245.50L-396.00,-236.00L-408.00,-227.00L-421.00,-216.00L-425.50,-210.50L-427.50,-206.00L-427.50,-202.50L-425.00,-199.00L-413.00,-190.50L-398.50,-182.00L-384.50,-175.00L-361.50,-168.50L-344.00,-165.00L-315.00,-161.50L-288.00,-161.00L-247.50,-165.50L-179.50,-177.50L-147.50,-181.00L-130.00,-182.00L-38.00,-182.00L27.50,-185.50L43.50,-187.00L62.50,-190.00L71.50,-192.50L78.50,-196.00L85.00,-201.50L88.00,-206.50L89.00,-210.00L89.00,-215.00L87.00,-220.50L77.50,-232.50L62.50,-245.50L45.00,-257.00L31.00,-265.00L21.50,-269.50L-9.50,-280.50L-35.50,-288.00L-68.50,-296.00L-91.00,-299.50L-133.00,-301.50" />
        <path d="M227.60,47.37L232.50,40.50L242.50,33.50L235.50,33.00L214.00,33.00L197.50,34.00L108.00,43.00L71.00,50.00L51.50,55.50L47.00,57.50L40.50,62.50L38.00,67.50L38.00,73.00L46.00,81.50L55.00,87.50L73.00,95.00L88.00,99.00L105.50,102.00L124.50,103.50L154.00,103.50L173.00,102.00L199.00,97.00L213.50,92.00L225.00,84.50L230.00,80.00L238.00,70.50L242.00,62.50L242.00,58.50L240.00,55.00L237.00,52.00L227.60,47.37" />
        <path d="M227.50,47.50L211.00,42.50" />
        <path d="M389.00,85.00L383.00,82.00L375.00,81.00L349.00,81.00L334.50,83.50L325.00,86.50L323.00,88.50L324.00,91.50L328.00,94.50L331.00,95.50L344.00,97.00L364.50,95.50L380.50,91.00L383.00,90.00L385.00,88.00L385.00,87.00L384.50,86.00L380.00,85.00" />
        <path d="M-285.28,-253.96L-309.61,-268.19L-316.60,-268.27L-323.57,-270.09L-332.31,-270.18L-349.82,-266.86L-379.64,-256.68L-395.45,-249.86L-407.77,-241.24L-413.07,-236.06L-414.87,-230.83L-418.42,-225.62L-420.22,-220.40L-420.35,-208.16L-418.66,-202.90L-411.78,-192.34L-387.49,-174.61L-380.53,-171.04L-375.34,-165.75L-361.43,-158.61L-338.79,-151.38L-330.05,-151.29L-319.58,-149.44L-291.61,-149.14L-282.87,-149.05L-274.12,-150.71L-230.42,-150.26L-225.20,-148.46L-221.70,-148.42L-211.25,-144.82L-206.01,-144.76L-178.13,-135.73L-172.89,-135.68L-162.44,-132.07L-157.20,-132.02L-151.97,-130.22L-146.73,-130.16L-136.28,-126.56L-99.58,-126.18L-94.31,-127.87L-89.07,-127.82L-82.06,-129.49L-76.82,-129.44L-71.56,-131.13L-64.57,-131.06L-59.30,-132.75L-54.06,-132.70L-50.55,-134.41L-45.30,-134.35L-41.79,-136.06L-29.54,-137.69L-22.51,-141.11L-19.01,-141.07L-13.75,-142.77L-8.47,-146.21L-4.98,-146.17L-3.21,-147.90L0.28,-147.86L2.05,-149.59L3.80,-149.58L7.31,-151.29L9.08,-153.02L21.38,-159.88L24.92,-163.34L26.70,-166.82L26.72,-168.57L32.05,-177.25L32.09,-180.75L37.44,-191.18L39.21,-192.91L39.24,-196.40L41.03,-199.88L41.14,-210.37" />
        <path d="M-392.46,-200.88L-409.94,-201.06L-409.92,-202.81L-411.65,-204.58L-411.38,-230.79L-409.56,-237.77L-402.46,-248.18L-381.27,-268.94L-356.61,-286.16L-332.04,-296.39L-321.53,-298.03L-311.01,-301.42L-300.50,-303.06L-289.98,-306.45L-279.48,-308.08L-268.99,-307.98L-230.47,-314.57L-221.73,-314.48L-184.95,-321.09L-176.21,-321.00L-169.20,-322.67L-144.73,-322.42L-123.82,-316.96L-116.82,-316.88L-101.13,-313.23L-74.99,-305.96L-62.82,-298.84L-45.42,-291.67L-35.01,-284.57L-29.78,-282.77L-26.32,-279.24L-0.29,-261.49L1.43,-257.97L15.26,-243.85" />
      </g>
      <g id="f10" transform="translate(-176.49 -119.19)" style="--index:10; opacity:0;" class="frame">
        <path d="M45.00,-263.50L36.50,-266.00L23.00,-267.50L-29.50,-270.50L-82.50,-272.00L-144.00,-271.50L-195.00,-268.00L-231.50,-263.50L-265.00,-257.50L-294.00,-251.00L-326.00,-241.50L-345.50,-233.50L-355.50,-228.50L-368.00,-220.50L-374.00,-215.00L-380.00,-207.00L-380.50,-204.50L-380.00,-197.00L-374.50,-190.00L-355.50,-172.50L-348.00,-166.50L-343.50,-164.00L-329.00,-158.00L-300.50,-149.00L-274.00,-142.00L-252.00,-137.50L-227.00,-135.50L-211.00,-135.50L-167.50,-137.50L-115.00,-137.50L-88.50,-139.50L-24.00,-147.50L5.50,-153.50L48.00,-164.00L63.00,-167.00L82.50,-172.50L89.00,-175.00L107.50,-184.50L121.50,-195.50L125.00,-200.50L127.50,-208.00L127.50,-214.50L126.00,-219.00L123.50,-224.00L118.00,-230.50L111.00,-237.00L99.00,-245.00L90.50,-249.00L68.00,-259.00L42.50,-268.50" />
        <path d="M246.50,57.00L241.00,51.50L237.00,50.00L226.00,48.00L202.50,46.50L174.50,46.50L142.00,49.00L131.00,51.00L102.00,57.50L83.00,64.50L75.50,69.00L73.00,71.50L71.50,76.50L73.50,82.00L82.50,91.00L91.50,96.00L102.00,100.50L124.50,106.00L135.50,106.50L151.50,106.00L187.50,98.50L203.50,94.00L217.50,89.00L223.50,86.50L233.50,80.50L239.00,74.00L240.00,71.00L240.00,68.00L238.00,65.00L234.50,62.50L223.00,58.50L206.50,56.50L196.50,56.50" />
        <path d="M395.00,84.50L389.00,82.00L385.50,81.50L367.50,81.50L353.00,85.00L348.50,87.00L346.50,89.00L346.50,91.00L352.00,93.50L365.50,95.00L374.00,95.00L389.00,93.00L394.00,91.50L395.50,90.50L396.50,87.50L393.00,85.50L386.50,84.00" />
        <path d="M402.50,87.00L394.50,84.50L388.50,84.00L375.00,84.00L366.50,85.50L361.00,88.00L359.50,89.50L359.50,92.00L363.50,94.00L371.00,94.50" />
        <path d="M-341.90,-188.12L-353.99,-202.23L-355.74,-202.25L-357.47,-204.02L-360.96,-204.05L-360.91,-209.29L-350.22,-228.41L-343.05,-245.82L-332.38,-263.19L-327.08,-268.37L-312.99,-278.72L-307.69,-283.91L-300.65,-289.08L-279.57,-299.35L-272.56,-301.02L-265.57,-300.95L-256.81,-302.60L-239.33,-302.42L-230.61,-300.59L-221.87,-300.49L-195.71,-294.98L-186.97,-294.89L-160.83,-287.63L-155.62,-284.08L-136.49,-275.14L-132.99,-275.10L-129.51,-273.32L-122.52,-273.24L-119.04,-271.46L-113.80,-271.41L-110.29,-273.12L-106.79,-273.08L-101.53,-274.77L-98.00,-278.23L-87.47,-281.62L-82.20,-285.06L-55.89,-293.53L-48.90,-293.46L-45.38,-295.17L-27.91,-294.99L-1.78,-285.97L3.43,-282.42L8.65,-280.62L13.86,-277.07L17.32,-273.54L22.53,-269.99L29.45,-262.93L34.67,-261.13L38.13,-257.59L53.70,-241.70L55.41,-238.19L58.87,-234.65L60.56,-229.39L64.02,-225.86" />
      </g>
      <g id="f11" transform="translate(-176.49 -119.19)" style="--index:11; opacity:0;" class="frame">
        <path d="M110.00,-220.00L107.00,-225.00L104.00,-227.00L91.00,-231.50L75.50,-234.00L51.50,-236.50L21.50,-238.50L-25.50,-240.50L-105.50,-241.00L-145.50,-239.50L-194.00,-234.00L-227.00,-227.50L-246.50,-222.00L-264.50,-215.50L-292.00,-201.00L-309.50,-187.50L-316.50,-179.50L-319.50,-174.50L-321.00,-168.00L-321.00,-161.00L-319.00,-155.50L-315.50,-151.00L-308.50,-146.50L-299.00,-142.50L-275.00,-135.00L-249.00,-128.00L-193.50,-117.00L-160.00,-114.00L-80.50,-114.50L-58.50,-116.50L-16.50,-123.00L11.50,-129.50L70.00,-148.00L85.00,-154.50L99.00,-163.00L104.00,-167.50L107.50,-169.50L123.00,-184.50L125.00,-187.50L126.50,-194.00L122.00,-204.00" />
        <path d="M240.00,65.00L234.00,61.00L224.50,59.00L186.50,58.00L155.50,61.00L135.00,65.00L119.00,70.00L109.00,75.00L106.00,77.50L104.00,80.50L103.50,83.00L103.50,86.00L105.50,89.00L112.00,94.00L129.50,100.00L143.50,103.50L159.50,105.50L185.50,105.00L211.00,100.00L218.50,97.50L229.50,92.50L236.50,86.00L239.00,82.50L240.50,76.00L240.00,72.00L238.00,69.00L234.50,66.00L218.00,60.50" />
        <path d="M389.50,85.50L387.50,84.50L375.50,84.50L359.00,86.00L349.50,89.00L348.00,92.00L350.50,94.00L353.50,95.00L360.50,96.00L374.50,96.00L384.50,95.00L392.00,93.50L398.00,90.50L398.00,88.50L395.50,86.50L389.50,85.50" />
        <path d="M392.50,87.00L389.50,85.50L383.50,85.00" />
        <path d="M-681.32,-326.24L-670.69,-340.11L-665.41,-343.55L-649.63,-348.63L-639.14,-348.52L-632.18,-344.96L-630.45,-343.19L-630.49,-339.69L-628.76,-337.93L-632.29,-334.47L-635.81,-332.76L-641.07,-331.06L-670.78,-331.37" />
        <path d="M-307.42,-142.32L-324.86,-145.99L-324.73,-158.23L-319.34,-172.16L-315.81,-175.62L-308.71,-186.03L-306.91,-191.25L-298.08,-199.90L-294.53,-205.11L-289.25,-208.55L-273.37,-222.37L-268.09,-225.81L-262.80,-231.00L-248.72,-239.59L-245.19,-243.05L-239.93,-244.75L-234.69,-244.69L-224.16,-248.08L-215.43,-247.99L-208.42,-249.66L-176.96,-249.34L-131.60,-240.13L-124.61,-240.05L-115.89,-238.22L-100.22,-232.81L-96.76,-229.28L-93.33,-222.25L-91.61,-220.48L-89.89,-216.97L-89.91,-215.22L-84.67,-215.17L-77.60,-222.09L-74.09,-223.80L-67.03,-230.72L-60.02,-232.39L-49.46,-239.27L-24.92,-246.01L-0.45,-245.76L11.75,-242.14L23.93,-236.77L36.09,-229.65L41.28,-224.35L53.44,-217.23L69.03,-203.09L105.48,-178.24" />
      </g>
    </g>
  </g>
</svg>