<?xml version="1.0" encoding="utf-8"?>
<svg width="1194" height="834" viewBox="-597 -417 1194 834" xmlns="http://www.w3.org/2000/svg">
  <style>
svg { background-color:#B2B2B2; }

#looom { --version:2; }

#t0 {
--visible:1; --timeOffset:4.8; --speed:10; --bookmarkIndex:-1; --latched:0; --playMode:0; --masked:0; --blendMode:0; --pressureEnabled:1; 
stroke:#FFF900; stroke-opacity:1; fill-opacity:0; stroke-width:1; stroke-linecap:round; stroke-linejoin:round;
}
@keyframes t0 { 0% { opacity: 1; } 12.5% { opacity: 0; } }
#t0 .frame { animation:t0 0.8s calc(var(--index) * 0.1s) steps(1) infinite; }

#t1 {
--visible:1; --timeOffset:4; --speed:10; --bookmarkIndex:-1; --latched:0; --playMode:0; --masked:0; --blendMode:0; --pressureEnabled:1; 
stroke:#FFF900; stroke-opacity:1; fill-opacity:0; stroke-width:1; stroke-linecap:round; stroke-linejoin:round;
}
@keyframes t1 { 0% { opacity: 1; } 12.5% { opacity: 0; } }
#t1 .frame { animation:t1 0.8s calc(var(--index) * 0.1s) steps(1) infinite; }

#t2 {
--visible:1; --timeOffset:6.049996; --speed:10; --bookmarkIndex:-1; --latched:0; --playMode:0; --masked:0; --blendMode:0; --pressureEnabled:0; 
fill:#85288A; stroke-opacity:0; fill-opacity:1; stroke-width:10; stroke-linecap:round; stroke-linejoin:round;
}
@keyframes t2 { 0% { opacity: 1; } 8.333333% { opacity: 0; } }
#t2 .frame { animation:t2 1.2s calc(var(--index) * 0.1s) steps(1) infinite; }

#t3 {
--visible:1; --timeOffset:4.849997; --speed:10; --bookmarkIndex:-1; --latched:0; --playMode:0; --masked:0; --blendMode:0; --pressureEnabled:1; 
stroke:#41325B; stroke-opacity:1; fill-opacity:0; stroke-width:5.803905; stroke-linecap:round; stroke-linejoin:round;
}
@keyframes t3 { 0% { opacity: 1; } 8.333333% { opacity: 0; } }
#t3 .frame { animation:t3 1.2s calc(var(--index) * 0.1s) steps(1) infinite; }

</style>
  <g id="w0" transform="translate(292.25 11.50) scale(1.08 1.08) rotate(-323.74)" class="weave">
    <g id="t0" transform="translate(72.23 18.62) scale(0.63 0.63) rotate(-16.38)" class="thread">
      <g id="f0" transform="translate(-310.58 331.28)" style="--index:0; opacity:1;" class="frame">
        <path d="M-397.00,-75.42L-402.78,-84.59" stroke-profile="1.07237 1.057169 " />
        <path d="M-402.78,-84.59L-402.78,-84.59" stroke-profile="1.057169 1.170226 " />
        <path d="M-402.78,-84.59L-396.14,-75.25" stroke-profile="1.170226 1.267482 " />
        <path d="M-396.14,-75.25L-388.05,-64.10L-396.14,-75.25" stroke-profile="1.267482 1.383475 1.071961 " />
        <path d="M-396.14,-75.25L-399.69,-80.24" stroke-profile="1.071961 0.1821511 " />
        <path d="M-400.61,-81.64L-397.87,-76.85L-397.57,-73.50L-398.73,-71.52L-402.59,-68.50" stroke-profile="0.682717 1.340459 1.582831 1.670231 1.629641 " />
        <path d="M-402.59,-68.50L-402.59,-68.50" stroke-profile="1.629641 1.5327 " />
        <path d="M-402.59,-68.50L-397.22,-73.38L-388.55,-78.81L-394.15,-76.96L-396.62,-77.24L-398.01,-78.53" stroke-profile="1.5327 1.584333 1.600142 1.534837 1.510888 1.34782 " />
        <path d="M-398.01,-78.53L-398.01,-78.53" stroke-profile="1.34782 1.407909 " />
        <path d="M-398.01,-78.53L-396.30,-77.05L-393.29,-77.15L-397.06,-74.59" stroke-profile="1.407909 1.422472 1.44108 1.39807 " />
        <path d="M-397.06,-74.59L-397.06,-74.59" stroke-profile="1.39807 1.339347 " />
        <path d="M-397.06,-74.59L-395.81,-76.94L-395.82,-74.88L-397.83,-72.48L-395.27,-72.65L-392.75,-71.07L-396.74,-73.20" stroke-profile="1.339347 1.332306 1.36937 1.246882 1.451533 1.303189 1.04014 " />
        <path d="M-396.74,-73.20L-396.74,-73.20" stroke-profile="1.04014 1.091923 " />
        <path d="M-396.74,-73.20L-390.69,-67.67L-393.15,-73.53L-393.19,-76.13L-393.50,-73.16L-392.39,-70.76L-394.96,-75.60" stroke-profile="1.091923 1.145537 1.18298 1.205888 1.291993 1.14052 1.029432 " />
        <path d="M-394.96,-75.60L-394.96,-75.60" stroke-profile="1.029432 1.174094 " />
        <path d="M-394.96,-75.60L-393.68,-72.68L-395.53,-75.10" stroke-profile="1.174094 1.256447 0.303751 " />
        <path d="M-398.80,-72.70L-398.52,-76.10L-399.78,-79.70L-394.77,-77.47L-389.28,-78.77" stroke-profile="0.9253277 0.9719188 0.8996563 1.074406 1.136268 " />
        <path d="M-389.28,-78.77L-389.28,-78.77" stroke-profile="1.136268 1.27453 " />
        <path d="M-389.28,-78.77L-391.75,-76.96L-392.29,-74.88L-392.00,-71.67L-390.32,-68.50" stroke-profile="1.27453 1.325034 1.499582 1.475633 1.055752 " />
        <path d="M-398.10,-70.77L-396.22,-71.53L-391.81,-68.88L-387.93,-64.24L-390.81,-70.14L-390.85,-76.08" stroke-profile="1.152396 1.206157 1.219137 0.9379839 0.9259931 0.510676 " />
      </g>
      <g id="f1" transform="translate(-310.58 331.28)" style="--index:1; opacity:0;" class="frame">
        <path d="M-402.63,-84.29L-400.41,-79.14L-399.39,-74.40L-400.82,-70.20L-402.34,-68.31L-398.76,-69.95L-394.54,-69.38L-390.56,-66.77L-387.66,-63.48L-389.80,-70.78L-388.38,-77.94L-395.62,-78.48L-401.22,-83.01" stroke-profile="1.149487 1.25635 1.376731 1.48429 1.394866 1.494606 1.450684 1.395127 1.186133 1.20871 1.259821 1.355731 1.105251 " />
        <path d="M-400.47,-82.09L-395.10,-73.05" stroke-profile="1.070386 1.00285 " />
        <path d="M-395.10,-73.05L-393.71,-70.62L-395.10,-73.05" stroke-profile="1.00285 0.9752308 0.7812933 " />
        <path d="M-395.10,-73.05L-398.77,-78.69" stroke-profile="0.7812933 0.7650156 " />
        <path d="M-398.77,-78.69L-400.20,-81.68L-398.77,-78.69" stroke-profile="0.7650156 1.119834 1.273093 " />
        <path d="M-398.77,-78.69L-394.43,-71.69L-390.68,-67.48" stroke-profile="1.273093 1.312709 0.8831174 " />
        <path d="M-390.68,-67.48L-390.68,-67.48" stroke-profile="0.8831174 0.7481599 " />
        <path d="M-390.68,-67.48L-394.68,-71.53" stroke-profile="0.7481599 0.04779297 " />
        <path d="M-399.59,-79.57L-396.57,-72.86" stroke-profile="1.206023 1.437466 " />
        <path d="M-396.57,-72.86L-394.11,-69.73L-396.57,-72.86" stroke-profile="1.437466 0.8191354 0.4430605 " />
        <path d="M-396.57,-72.86L-400.18,-78.92" stroke-profile="0.4430605 0.7754813 " />
        <path d="M-400.18,-78.92L-400.18,-78.92" stroke-profile="0.7754813 0.9489287 " />
        <path d="M-400.18,-78.92L-395.57,-70.10L-398.17,-73.74" stroke-profile="0.9489287 1.216511 0.94172 " />
        <path d="M-398.17,-73.74L-398.94,-74.96L-398.17,-73.74" stroke-profile="0.94172 1.11382 1.299086 " />
        <path d="M-398.17,-73.74L-396.38,-69.13L-399.12,-73.86L-398.35,-69.94L-399.21,-72.69L-399.19,-70.47" stroke-profile="1.299086 1.263238 0.7347393 1.3323 1.154964 1.182755 " />
        <path d="M-399.19,-70.47L-399.16,-69.41L-399.19,-70.47" stroke-profile="1.182755 1.203285 1.029681 " />
        <path d="M-399.19,-70.47L-392.37,-67.96L-396.72,-70.25L-398.20,-72.04L-397.66,-72.63L-390.24,-67.15L-396.72,-76.12L-397.65,-78.55L-389.77,-67.40L-397.18,-79.22L-392.92,-73.18" stroke-profile="1.029681 1.17522 0.667318 0.69346 1.010628 1.34261 0.639491 0.8741692 1.429385 1.01797 1.332609 " />
        <path d="M-392.92,-73.18L-390.01,-68.76L-392.92,-73.18" stroke-profile="1.332609 1.36638 0.8188133 " />
        <path d="M-392.92,-73.18L-396.99,-79.26L-394.31,-76.28" stroke-profile="0.8188133 0.8237506 1.373009 " />
        <path d="M-394.31,-76.28L-391.38,-72.29L-394.31,-76.28" stroke-profile="1.373009 1.481777 0.9822447 " />
        <path d="M-394.31,-76.28L-395.67,-78.34" stroke-profile="0.9822447 1.251911 " />
        <path d="M-395.67,-78.34L-392.44,-74.94L-395.67,-78.34" stroke-profile="1.251911 1.288786 0.973847 " />
        <path d="M-395.67,-78.34L-398.64,-81.02L-392.59,-73.03L-397.37,-79.45" stroke-profile="0.973847 0.9801289 1.400105 0.9151503 " />
        <path d="M-397.37,-79.45L-397.37,-79.45" stroke-profile="0.9151503 1.065356 " />
        <path d="M-397.37,-79.45L-392.02,-74.30L-391.41,-74.57L-392.87,-78.23L-390.48,-75.09" stroke-profile="1.065356 1.508622 1.483948 1.206676 1.514799 " />
        <path d="M-390.48,-75.09L-390.18,-74.63L-390.48,-75.09" stroke-profile="1.514799 1.523842 1.230898 " />
        <path d="M-390.48,-75.09L-392.17,-78.17" stroke-profile="1.230898 1.016411 " />
        <path d="M-392.17,-78.17L-392.17,-78.17" stroke-profile="1.016411 1.123211 " />
        <path d="M-392.17,-78.17L-390.59,-74.69L-390.35,-73.01L-391.05,-74.09" stroke-profile="1.123211 1.449724 1.339784 1.048375 " />
        <path d="M-391.05,-74.09L-392.01,-77.55L-391.05,-74.09" stroke-profile="1.048375 1.212536 1.381629 " />
        <path d="M-391.05,-74.09L-390.58,-71.49" stroke-profile="1.381629 1.347273 " />
        <path d="M-390.58,-71.49L-390.08,-68.17L-390.58,-69.13L-391.25,-76.19L-389.12,-66.47L-390.58,-71.49" stroke-profile="1.347273 1.386361 1.315983 1.290997 1.272756 1.216212 " />
        <path d="M-390.58,-71.49L-393.00,-77.57" stroke-profile="1.216212 1.282578 " />
        <path d="M-393.00,-77.57L-395.05,-78.77L-393.00,-77.57" stroke-profile="1.282578 1.276569 1.438507 " />
        <path d="M-393.00,-77.57L-390.61,-77.00" stroke-profile="1.438507 1.55017 " />
        <path d="M-390.61,-77.00L-389.35,-77.05L-390.61,-77.00" stroke-profile="1.55017 1.408013 1.168812 " />
        <path d="M-390.61,-77.00L-388.43,-77.69" stroke-profile="1.168812 1.335578 " />
        <path d="M-388.43,-77.69L-391.16,-75.32L-388.43,-77.69" stroke-profile="1.335578 1.328659 1.072171 " />
        <path d="M-388.43,-77.69L-393.69,-78.09L-386.32,-79.35L-389.88,-75.70" stroke-profile="1.072171 1.299082 1.524275 1.448522 " />
      </g>
      <g id="f2" transform="translate(-310.58 331.28)" style="--index:2; opacity:0;" class="frame">
        <path d="M-400.27,-77.16L-401.42,-81.31L-405.65,-89.81" stroke-profile="0.7714455 1.132815 1.008361 " />
        <path d="M-405.65,-89.81L-405.65,-89.81" stroke-profile="1.008361 1.144422 " />
        <path d="M-405.65,-89.81L-401.39,-83.58L-397.36,-80.26L-390.78,-79.90L-383.97,-82.79L-387.08,-79.79L-388.11,-77.57L-389.44,-69.22L-387.52,-63.64L-384.08,-58.28" stroke-profile="1.144422 1.456418 1.51265 1.615229 1.716316 1.731474 1.744448 1.636778 1.643737 1.634177 " />
        <path d="M-384.08,-58.28L-384.08,-58.28" stroke-profile="1.634177 1.590376 " />
        <path d="M-384.08,-58.28L-391.40,-66.31L-394.18,-68.11L-400.02,-68.56L-407.22,-65.81L-403.51,-70.29L-400.92,-75.34L-401.39,-80.79L-402.79,-84.84" stroke-profile="1.590376 1.516376 1.528203 1.49373 1.483589 1.522655 1.553813 1.464358 0.3144637 " />
        <path d="M-401.49,-82.99L-388.39,-63.91" stroke-profile="1.083624 1.206533 " />
        <path d="M-388.39,-63.91L-388.39,-63.91" stroke-profile="1.206533 1.155356 " />
        <path d="M-388.39,-63.91L-399.11,-80.05L-390.87,-68.48" stroke-profile="1.155356 0.8090061 0.5647247 " />
        <path d="M-398.72,-80.02L-390.43,-68.60" stroke-profile="0.7848275 0.2237551 " />
        <path d="M-397.48,-79.66L-391.17,-69.97" stroke-profile="0.9201953 0.3857475 " />
        <path d="M-396.14,-78.40L-390.86,-71.06" stroke-profile="0.9234043 0.9012443 " />
        <path d="M-394.98,-78.05L-390.09,-67.56" stroke-profile="0.8489263 0.7565424 " />
        <path d="M-390.09,-67.56L-389.89,-66.95L-390.09,-67.56" stroke-profile="0.7565424 0.8920943 1.07067 " />
        <path d="M-390.09,-67.56L-390.77,-72.39L-390.37,-79.91" stroke-profile="1.07067 1.056761 0.4559911 " />
        <path d="M-389.67,-73.04L-392.54,-76.77" stroke-profile="0.9271733 1.138771 " />
        <path d="M-392.54,-76.77L-395.81,-80.36L-389.88,-72.29L-392.54,-76.77" stroke-profile="1.138771 0.9331495 1.231459 0.7290429 " />
        <path d="M-392.54,-76.77L-393.32,-77.95" stroke-profile="0.7290429 0.6788951 " />
        <path d="M-393.32,-77.95L-390.55,-75.56L-389.45,-78.81L-393.32,-77.95" stroke-profile="0.6788951 1.279242 0.9682065 1.033865 " />
        <path d="M-393.32,-77.95L-395.73,-78.28L-395.02,-78.96L-388.14,-78.23" stroke-profile="1.033865 0.9336413 1.285209 1.479231 " />
        <path d="M-388.14,-78.23L-388.14,-78.23" stroke-profile="1.479231 1.454281 " />
        <path d="M-388.14,-78.23L-390.68,-78.48" stroke-profile="1.454281 1.11922 " />
        <path d="M-390.68,-78.48L-396.30,-79.45L-392.50,-79.60L-388.80,-78.91L-390.68,-78.48" stroke-profile="1.11922 1.010445 1.51942 1.590723 1.28262 " />
        <path d="M-390.68,-78.48L-393.97,-77.59L-391.34,-76.16L-390.20,-76.55" stroke-profile="1.28262 1.09205 1.415217 1.232481 " />
        <path d="M-390.20,-76.55L-389.26,-78.54L-390.20,-76.55" stroke-profile="1.232481 1.211699 1.370369 " />
        <path d="M-390.20,-76.55L-390.64,-70.12L-389.18,-79.12L-389.11,-76.75L-389.97,-71.36L-391.02,-69.53L-395.60,-78.10L-398.30,-81.28L-393.07,-71.08" stroke-profile="1.370369 1.444808 1.276198 1.339156 1.255365 1.345583 1.094719 1.137698 1.480137 " />
        <path d="M-393.07,-71.08L-392.29,-69.65L-393.07,-71.08" stroke-profile="1.480137 1.518989 1.187353 " />
        <path d="M-393.07,-71.08L-398.88,-80.27L-396.22,-73.81" stroke-profile="1.187353 1.309909 1.248864 " />
        <path d="M-396.22,-73.81L-392.47,-68.31L-396.22,-73.81" stroke-profile="1.248864 1.47879 1.12229 " />
        <path d="M-396.22,-73.81L-398.67,-76.88" stroke-profile="1.12229 0.9891068 " />
        <path d="M-398.67,-76.88L-400.33,-79.45L-398.67,-76.88" stroke-profile="0.9891068 0.9334505 1.420327 " />
        <path d="M-398.67,-76.88L-394.08,-69.46" stroke-profile="1.420327 1.496051 " />
        <path d="M-394.08,-69.46L-394.08,-69.46" stroke-profile="1.496051 1.283603 " />
        <path d="M-394.08,-69.46L-398.83,-74.66" stroke-profile="1.283603 0.955076 " />
        <path d="M-398.83,-74.66L-400.57,-77.03L-398.83,-74.66" stroke-profile="0.955076 0.9105258 1.319776 " />
        <path d="M-398.83,-74.66L-396.54,-71.41" stroke-profile="1.319776 1.497332 " />
        <path d="M-396.54,-71.41L-394.73,-69.21L-396.54,-71.41" stroke-profile="1.497332 1.360581 1.121143 " />
        <path d="M-396.54,-71.41L-399.83,-75.21L-396.39,-69.38" stroke-profile="1.121143 1.055714 1.478125 " />
        <path d="M-396.39,-69.38L-396.39,-69.38" stroke-profile="1.478125 1.236019 " />
        <path d="M-396.39,-69.38L-400.46,-74.27L-397.48,-68.83L-400.50,-72.56L-399.08,-69.03L-400.92,-71.48L-400.13,-69.06L-401.45,-70.35L-400.84,-68.66L-401.96,-69.03" stroke-profile="1.236019 1.052513 1.416586 1.181029 1.265664 1.210579 1.25906 1.017505 1.279473 0.8993078 " />
        <path d="M-401.96,-69.03L-403.24,-68.99L-403.75,-67.65L-401.96,-69.03" stroke-profile="0.8993078 0.9925325 1.165879 1.376197 " />
        <path d="M-401.96,-69.03L-397.51,-74.60L-403.13,-68.32L-402.91,-69.70" stroke-profile="1.376197 1.378078 1.192527 1.315231 " />
        <path d="M-402.91,-69.70L-398.73,-77.60L-402.91,-69.70" stroke-profile="1.315231 1.2848 1.097685 " />
        <path d="M-402.91,-69.70L-398.46,-79.47" stroke-profile="1.097685 1.405552 " />
        <path d="M-398.46,-79.47L-398.34,-80.91L-399.07,-81.39L-398.46,-79.47" stroke-profile="1.405552 1.144136 0.8886667 1.307388 " />
        <path d="M-398.46,-79.47L-397.39,-77.68" stroke-profile="1.307388 1.429023 " />
        <path d="M-397.39,-77.68L-393.96,-72.54L-392.22,-71.51L-393.94,-74.54L-397.39,-77.68" stroke-profile="1.429023 1.421434 1.223289 0.8420042 0.7900857 " />
        <path d="M-397.39,-77.68L-393.48,-73.40L-393.87,-74.52L-399.94,-81.59" stroke-profile="0.7900857 1.420097 1.12753 0.8975659 " />
        <path d="M-399.94,-81.59L-399.94,-81.59" stroke-profile="0.8975659 1.078451 " />
        <path d="M-399.94,-81.59L-396.34,-75.57L-393.99,-74.34L-392.09,-74.71" stroke-profile="1.078451 1.345776 1.37617 1.359083 " />
        <path d="M-392.09,-74.71L-390.73,-76.23L-390.39,-79.31L-392.09,-74.71" stroke-profile="1.359083 1.335282 1.089912 1.324352 " />
        <path d="M-392.09,-74.71L-392.72,-73.95" stroke-profile="1.324352 1.428678 " />
        <path d="M-392.72,-73.95L-389.88,-79.70L-392.72,-73.95" stroke-profile="1.428678 1.438363 1.250738 " />
        <path d="M-392.72,-73.95L-392.93,-72.37L-391.61,-73.30L-389.45,-78.61" stroke-profile="1.250738 1.515525 1.621235 1.386116 " />
      </g>
      <g id="f3" transform="translate(-310.58 331.28)" style="--index:3; opacity:0;" class="frame" />
      <g id="f4" transform="translate(-310.58 331.28)" style="--index:4; opacity:0;" class="frame" />
      <g id="f5" transform="translate(-310.58 331.28)" style="--index:5; opacity:0;" class="frame" />
      <g id="f6" transform="translate(-310.58 331.28)" style="--index:6; opacity:0;" class="frame">
        <path d="M-396.05,-74.93" stroke-profile="0.1649619 " />
        <path d="M-395.85,-74.26L-397.15,-77.01" stroke-profile="1.307027 1.285339 " />
        <path d="M-397.15,-77.01L-397.15,-77.01" stroke-profile="1.285339 1.321901 " />
        <path d="M-397.15,-77.01L-394.82,-74.86" stroke-profile="1.321901 1.393835 " />
        <path d="M-394.82,-74.86L-394.82,-74.86" stroke-profile="1.393835 1.239151 " />
        <path d="M-394.82,-74.86L-396.03,-75.80L-394.58,-73.44" stroke-profile="1.239151 1.289876 1.421378 " />
        <path d="M-394.58,-73.44L-392.75,-71.62L-394.58,-73.44" stroke-profile="1.421378 1.369776 1.413979 " />
        <path d="M-394.58,-73.44L-393.68,-72.48" stroke-profile="1.413979 1.42218 " />
        <path d="M-393.68,-72.48L-392.19,-70.83L-393.68,-72.48" stroke-profile="1.42218 1.388425 1.272895 " />
        <path d="M-393.68,-72.48L-394.66,-73.87" stroke-profile="1.272895 1.282847 " />
        <path d="M-394.66,-73.87L-397.55,-72.12L-394.66,-73.87" stroke-profile="1.282847 1.383703 1.510521 " />
        <path d="M-394.66,-73.87L-392.68,-75.17L-393.18,-72.04L-394.49,-72.67" stroke-profile="1.510521 1.651124 1.521123 1.377641 " />
        <path d="M-394.49,-72.67L-396.50,-73.02L-394.49,-72.67" stroke-profile="1.377641 1.264608 1.369263 " />
        <path d="M-394.49,-72.67L-393.13,-72.24L-391.59,-69.85" stroke-profile="1.369263 1.45623 1.450268 " />
        <path d="M-391.59,-69.85L-391.59,-69.85" stroke-profile="1.450268 1.094051 " />
        <path d="M-391.59,-69.85L-391.72,-70.11" stroke-profile="1.094051 0.9169888 " />
        <path d="M-581.21,-71.92L-572.39,-78.08L-562.94,-83.04" stroke-profile="0.1 0.1 0.1 " />
      </g>
      <g id="f7" transform="translate(-310.58 331.28)" style="--index:7; opacity:0;" class="frame">
        <path d="M-397.06,-73.77L-398.69,-78.34L-400.16,-79.96" stroke-profile="1.058299 1.059117 0.4902686 " />
        <path d="M-397.24,-74.02L-398.22,-77.29" stroke-profile="0.8985636 1.191612 " />
        <path d="M-398.22,-77.29L-400.05,-81.08L-395.65,-77.24L-390.97,-76.33L-395.56,-75.38L-398.22,-77.29" stroke-profile="1.191612 1.162957 1.3439 1.346832 1.231451 1.242439 " />
        <path d="M-398.22,-77.29L-399.77,-79.58" stroke-profile="1.242439 1.1637 " />
        <path d="M-399.77,-79.58L-399.95,-80.29L-399.77,-79.58" stroke-profile="1.1637 1.297851 1.278467 " />
        <path d="M-399.77,-79.58L-397.24,-74.52L-397.86,-71.11" stroke-profile="1.278467 1.386442 1.412006 " />
        <path d="M-397.86,-71.11L-398.95,-70.40L-397.86,-71.11" stroke-profile="1.412006 1.33191 1.397341 " />
        <path d="M-397.86,-71.11L-395.64,-72.54L-394.30,-72.52L-390.57,-68.29" stroke-profile="1.397341 1.392841 1.433072 1.352946 " />
        <path d="M-390.57,-68.29L-390.57,-68.29" stroke-profile="1.352946 1.318781 " />
        <path d="M-390.57,-68.29L-396.05,-75.93" stroke-profile="1.318781 1.172195 " />
        <path d="M-396.05,-75.93L-397.82,-78.67L-396.05,-75.93" stroke-profile="1.172195 1.118531 1.216196 " />
        <path d="M-396.05,-75.93L-394.69,-72.61L-396.16,-74.50" stroke-profile="1.216196 1.243384 0.9561659 " />
        <path d="M-396.16,-74.50L-397.68,-78.35L-396.16,-74.50" stroke-profile="0.9561659 0.9836677 1.195792 " />
        <path d="M-396.16,-74.50L-395.84,-72.37L-396.54,-73.42" stroke-profile="1.195792 1.259116 1.179791 " />
        <path d="M-396.54,-73.42L-397.62,-76.93L-396.54,-73.42" stroke-profile="1.179791 1.049021 1.266472 " />
        <path d="M-396.54,-73.42L-398.10,-78.49" stroke-profile="1.266472 0.9675372 " />
        <path d="M-398.10,-78.49L-398.10,-78.49" stroke-profile="0.9675372 1.16103 " />
        <path d="M-398.10,-78.49L-397.36,-73.16L-398.46,-77.04" stroke-profile="1.16103 1.191117 0.9865721 " />
        <path d="M-398.46,-77.04L-398.85,-79.22L-398.46,-77.04" stroke-profile="0.9865721 1.156973 1.300868 " />
        <path d="M-398.46,-77.04L-398.48,-72.62L-399.48,-70.42L-395.82,-71.81L-391.36,-69.03L-396.30,-77.52L-392.43,-71.89L-394.28,-76.29" stroke-profile="1.300868 1.444823 1.287534 1.479338 1.239054 1.078726 1.32582 1.068048 " />
        <path d="M-394.28,-76.29L-394.28,-76.29" stroke-profile="1.068048 1.200786 " />
        <path d="M-394.28,-76.29L-394.05,-75.71" stroke-profile="1.200786 1.256471 " />
        <path d="M-394.05,-75.71L-392.31,-70.90L-389.87,-67.55L-391.73,-73.46L-391.32,-75.80L-390.26,-76.77L-394.05,-75.71" stroke-profile="1.256471 1.285239 1.209234 1.267261 1.282014 1.277786 1.203843 " />
        <path d="M-394.05,-75.71L-394.18,-75.63" stroke-profile="1.203843 1.242387 " />
        <path d="M-394.18,-75.63L-394.18,-75.63" stroke-profile="1.242387 1.259995 " />
        <path d="M-394.18,-75.63L-392.48,-76.11L-392.12,-72.82" stroke-profile="1.259995 1.193737 1.414266 " />
        <path d="M-392.12,-72.82L-392.12,-72.82" stroke-profile="1.414266 1.375271 " />
        <path d="M-392.12,-72.82L-392.61,-75.82" stroke-profile="1.375271 1.093803 " />
        <path d="M-392.61,-75.82L-392.61,-75.82" stroke-profile="1.093803 1.164251 " />
        <path d="M-392.61,-75.82L-391.64,-72.44" stroke-profile="1.164251 1.375203 " />
        <path d="M-391.64,-72.44L-391.64,-72.44" stroke-profile="1.375203 1.271991 " />
        <path d="M-391.64,-72.44L-392.02,-75.56" stroke-profile="1.271991 1.208315 " />
        <path d="M-392.02,-75.56L-392.02,-75.56" stroke-profile="1.208315 1.244282 " />
        <path d="M-392.02,-75.56L-391.58,-72.62L-396.59,-78.00" stroke-profile="1.244282 1.270295 0.8805076 " />
      </g>
    </g>
    <g id="t1" transform="translate(68.24 -116.52) scale(0.53 0.53) rotate(-334.97)" class="thread">
      <g id="f0" transform="translate(73.38 589.56)" style="--index:0; opacity:1;" class="frame">
        <path d="M-396.05,-74.93" stroke-profile="0.1649619 " />
        <path d="M-395.85,-74.26L-397.15,-77.01" stroke-profile="1.307027 1.285339 " />
        <path d="M-397.15,-77.01L-397.15,-77.01" stroke-profile="1.285339 1.321901 " />
        <path d="M-397.15,-77.01L-394.82,-74.86" stroke-profile="1.321901 1.393835 " />
        <path d="M-394.82,-74.86L-394.82,-74.86" stroke-profile="1.393835 1.239151 " />
        <path d="M-394.82,-74.86L-396.03,-75.80L-394.58,-73.44" stroke-profile="1.239151 1.289876 1.421378 " />
        <path d="M-394.58,-73.44L-392.75,-71.62L-394.58,-73.44" stroke-profile="1.421378 1.369776 1.413979 " />
        <path d="M-394.58,-73.44L-393.68,-72.48" stroke-profile="1.413979 1.42218 " />
        <path d="M-393.68,-72.48L-392.19,-70.83L-393.68,-72.48" stroke-profile="1.42218 1.388425 1.272895 " />
        <path d="M-393.68,-72.48L-394.66,-73.87" stroke-profile="1.272895 1.282847 " />
        <path d="M-394.66,-73.87L-397.55,-72.12L-394.66,-73.87" stroke-profile="1.282847 1.383703 1.510521 " />
        <path d="M-394.66,-73.87L-392.68,-75.17L-393.18,-72.04L-394.49,-72.67" stroke-profile="1.510521 1.651124 1.521123 1.377641 " />
        <path d="M-394.49,-72.67L-396.50,-73.02L-394.49,-72.67" stroke-profile="1.377641 1.264608 1.369263 " />
        <path d="M-394.49,-72.67L-393.13,-72.24L-391.59,-69.85" stroke-profile="1.369263 1.45623 1.450268 " />
        <path d="M-391.59,-69.85L-391.59,-69.85" stroke-profile="1.450268 1.094051 " />
        <path d="M-391.59,-69.85L-391.72,-70.11" stroke-profile="1.094051 0.9169888 " />
        <path d="M-581.21,-71.92L-572.39,-78.08L-562.94,-83.04" stroke-profile="0.1 0.1 0.1 " />
      </g>
      <g id="f1" transform="translate(73.38 589.56)" style="--index:1; opacity:0;" class="frame">
        <path d="M-397.06,-73.77L-398.69,-78.34L-400.16,-79.96" stroke-profile="1.058299 1.059117 0.4902686 " />
        <path d="M-397.24,-74.02L-398.22,-77.29" stroke-profile="0.8985636 1.191612 " />
        <path d="M-398.22,-77.29L-400.05,-81.08L-395.65,-77.24L-390.97,-76.33L-395.56,-75.38L-398.22,-77.29" stroke-profile="1.191612 1.162957 1.3439 1.346832 1.231451 1.242439 " />
        <path d="M-398.22,-77.29L-399.77,-79.58" stroke-profile="1.242439 1.1637 " />
        <path d="M-399.77,-79.58L-399.95,-80.29L-399.77,-79.58" stroke-profile="1.1637 1.297851 1.278467 " />
        <path d="M-399.77,-79.58L-397.24,-74.52L-397.86,-71.11" stroke-profile="1.278467 1.386442 1.412006 " />
        <path d="M-397.86,-71.11L-398.95,-70.40L-397.86,-71.11" stroke-profile="1.412006 1.33191 1.397341 " />
        <path d="M-397.86,-71.11L-395.64,-72.54L-394.30,-72.52L-390.57,-68.29" stroke-profile="1.397341 1.392841 1.433072 1.352946 " />
        <path d="M-390.57,-68.29L-390.57,-68.29" stroke-profile="1.352946 1.318781 " />
        <path d="M-390.57,-68.29L-396.05,-75.93" stroke-profile="1.318781 1.172195 " />
        <path d="M-396.05,-75.93L-397.82,-78.67L-396.05,-75.93" stroke-profile="1.172195 1.118531 1.216196 " />
        <path d="M-396.05,-75.93L-394.69,-72.61L-396.16,-74.50" stroke-profile="1.216196 1.243384 0.9561659 " />
        <path d="M-396.16,-74.50L-397.68,-78.35L-396.16,-74.50" stroke-profile="0.9561659 0.9836677 1.195792 " />
        <path d="M-396.16,-74.50L-395.84,-72.37L-396.54,-73.42" stroke-profile="1.195792 1.259116 1.179791 " />
        <path d="M-396.54,-73.42L-397.62,-76.93L-396.54,-73.42" stroke-profile="1.179791 1.049021 1.266472 " />
        <path d="M-396.54,-73.42L-398.10,-78.49" stroke-profile="1.266472 0.9675372 " />
        <path d="M-398.10,-78.49L-398.10,-78.49" stroke-profile="0.9675372 1.16103 " />
        <path d="M-398.10,-78.49L-397.36,-73.16L-398.46,-77.04" stroke-profile="1.16103 1.191117 0.9865721 " />
        <path d="M-398.46,-77.04L-398.85,-79.22L-398.46,-77.04" stroke-profile="0.9865721 1.156973 1.300868 " />
        <path d="M-398.46,-77.04L-398.48,-72.62L-399.48,-70.42L-395.82,-71.81L-391.36,-69.03L-396.30,-77.52L-392.43,-71.89L-394.28,-76.29" stroke-profile="1.300868 1.444823 1.287534 1.479338 1.239054 1.078726 1.32582 1.068048 " />
        <path d="M-394.28,-76.29L-394.28,-76.29" stroke-profile="1.068048 1.200786 " />
        <path d="M-394.28,-76.29L-394.05,-75.71" stroke-profile="1.200786 1.256471 " />
        <path d="M-394.05,-75.71L-392.31,-70.90L-389.87,-67.55L-391.73,-73.46L-391.32,-75.80L-390.26,-76.77L-394.05,-75.71" stroke-profile="1.256471 1.285239 1.209234 1.267261 1.282014 1.277786 1.203843 " />
        <path d="M-394.05,-75.71L-394.18,-75.63" stroke-profile="1.203843 1.242387 " />
        <path d="M-394.18,-75.63L-394.18,-75.63" stroke-profile="1.242387 1.259995 " />
        <path d="M-394.18,-75.63L-392.48,-76.11L-392.12,-72.82" stroke-profile="1.259995 1.193737 1.414266 " />
        <path d="M-392.12,-72.82L-392.12,-72.82" stroke-profile="1.414266 1.375271 " />
        <path d="M-392.12,-72.82L-392.61,-75.82" stroke-profile="1.375271 1.093803 " />
        <path d="M-392.61,-75.82L-392.61,-75.82" stroke-profile="1.093803 1.164251 " />
        <path d="M-392.61,-75.82L-391.64,-72.44" stroke-profile="1.164251 1.375203 " />
        <path d="M-391.64,-72.44L-391.64,-72.44" stroke-profile="1.375203 1.271991 " />
        <path d="M-391.64,-72.44L-392.02,-75.56" stroke-profile="1.271991 1.208315 " />
        <path d="M-392.02,-75.56L-392.02,-75.56" stroke-profile="1.208315 1.244282 " />
        <path d="M-392.02,-75.56L-391.58,-72.62L-396.59,-78.00" stroke-profile="1.244282 1.270295 0.8805076 " />
      </g>
      <g id="f2" transform="translate(73.38 589.56)" style="--index:2; opacity:0;" class="frame">
        <path d="M-397.00,-75.42L-402.78,-84.59" stroke-profile="1.07237 1.057169 " />
        <path d="M-402.78,-84.59L-402.78,-84.59" stroke-profile="1.057169 1.170226 " />
        <path d="M-402.78,-84.59L-396.14,-75.25" stroke-profile="1.170226 1.267482 " />
        <path d="M-396.14,-75.25L-388.05,-64.10L-396.14,-75.25" stroke-profile="1.267482 1.383475 1.071961 " />
        <path d="M-396.14,-75.25L-399.69,-80.24" stroke-profile="1.071961 0.1821511 " />
        <path d="M-400.61,-81.64L-397.87,-76.85L-397.57,-73.50L-398.73,-71.52L-402.59,-68.50" stroke-profile="0.682717 1.340459 1.582831 1.670231 1.629641 " />
        <path d="M-402.59,-68.50L-402.59,-68.50" stroke-profile="1.629641 1.5327 " />
        <path d="M-402.59,-68.50L-397.22,-73.38L-388.55,-78.81L-394.15,-76.96L-396.62,-77.24L-398.01,-78.53" stroke-profile="1.5327 1.584333 1.600142 1.534837 1.510888 1.34782 " />
        <path d="M-398.01,-78.53L-398.01,-78.53" stroke-profile="1.34782 1.407909 " />
        <path d="M-398.01,-78.53L-396.30,-77.05L-393.29,-77.15L-397.06,-74.59" stroke-profile="1.407909 1.422472 1.44108 1.39807 " />
        <path d="M-397.06,-74.59L-397.06,-74.59" stroke-profile="1.39807 1.339347 " />
        <path d="M-397.06,-74.59L-395.81,-76.94L-395.82,-74.88L-397.83,-72.48L-395.27,-72.65L-392.75,-71.07L-396.74,-73.20" stroke-profile="1.339347 1.332306 1.36937 1.246882 1.451533 1.303189 1.04014 " />
        <path d="M-396.74,-73.20L-396.74,-73.20" stroke-profile="1.04014 1.091923 " />
        <path d="M-396.74,-73.20L-390.69,-67.67L-393.15,-73.53L-393.19,-76.13L-393.50,-73.16L-392.39,-70.76L-394.96,-75.60" stroke-profile="1.091923 1.145537 1.18298 1.205888 1.291993 1.14052 1.029432 " />
        <path d="M-394.96,-75.60L-394.96,-75.60" stroke-profile="1.029432 1.174094 " />
        <path d="M-394.96,-75.60L-393.68,-72.68L-395.53,-75.10" stroke-profile="1.174094 1.256447 0.303751 " />
        <path d="M-398.80,-72.70L-398.52,-76.10L-399.78,-79.70L-394.77,-77.47L-389.28,-78.77" stroke-profile="0.9253277 0.9719188 0.8996563 1.074406 1.136268 " />
        <path d="M-389.28,-78.77L-389.28,-78.77" stroke-profile="1.136268 1.27453 " />
        <path d="M-389.28,-78.77L-391.75,-76.96L-392.29,-74.88L-392.00,-71.67L-390.32,-68.50" stroke-profile="1.27453 1.325034 1.499582 1.475633 1.055752 " />
        <path d="M-398.10,-70.77L-396.22,-71.53L-391.81,-68.88L-387.93,-64.24L-390.81,-70.14L-390.85,-76.08" stroke-profile="1.152396 1.206157 1.219137 0.9379839 0.9259931 0.510676 " />
      </g>
      <g id="f3" transform="translate(73.38 589.56)" style="--index:3; opacity:0;" class="frame">
        <path d="M-402.63,-84.29L-400.41,-79.14L-399.39,-74.40L-400.82,-70.20L-402.34,-68.31L-398.76,-69.95L-394.54,-69.38L-390.56,-66.77L-387.66,-63.48L-389.80,-70.78L-388.38,-77.94L-395.62,-78.48L-401.22,-83.01" stroke-profile="1.149487 1.25635 1.376731 1.48429 1.394866 1.494606 1.450684 1.395127 1.186133 1.20871 1.259821 1.355731 1.105251 " />
        <path d="M-400.47,-82.09L-395.10,-73.05" stroke-profile="1.070386 1.00285 " />
        <path d="M-395.10,-73.05L-393.71,-70.62L-395.10,-73.05" stroke-profile="1.00285 0.9752308 0.7812933 " />
        <path d="M-395.10,-73.05L-398.77,-78.69" stroke-profile="0.7812933 0.7650156 " />
        <path d="M-398.77,-78.69L-400.20,-81.68L-398.77,-78.69" stroke-profile="0.7650156 1.119834 1.273093 " />
        <path d="M-398.77,-78.69L-394.43,-71.69L-390.68,-67.48" stroke-profile="1.273093 1.312709 0.8831174 " />
        <path d="M-390.68,-67.48L-390.68,-67.48" stroke-profile="0.8831174 0.7481599 " />
        <path d="M-390.68,-67.48L-394.68,-71.53" stroke-profile="0.7481599 0.04779297 " />
        <path d="M-399.59,-79.57L-396.57,-72.86" stroke-profile="1.206023 1.437466 " />
        <path d="M-396.57,-72.86L-394.11,-69.73L-396.57,-72.86" stroke-profile="1.437466 0.8191354 0.4430605 " />
        <path d="M-396.57,-72.86L-400.18,-78.92" stroke-profile="0.4430605 0.7754813 " />
        <path d="M-400.18,-78.92L-400.18,-78.92" stroke-profile="0.7754813 0.9489287 " />
        <path d="M-400.18,-78.92L-395.57,-70.10L-398.17,-73.74" stroke-profile="0.9489287 1.216511 0.94172 " />
        <path d="M-398.17,-73.74L-398.94,-74.96L-398.17,-73.74" stroke-profile="0.94172 1.11382 1.299086 " />
        <path d="M-398.17,-73.74L-396.38,-69.13L-399.12,-73.86L-398.35,-69.94L-399.21,-72.69L-399.19,-70.47" stroke-profile="1.299086 1.263238 0.7347393 1.3323 1.154964 1.182755 " />
        <path d="M-399.19,-70.47L-399.16,-69.41L-399.19,-70.47" stroke-profile="1.182755 1.203285 1.029681 " />
        <path d="M-399.19,-70.47L-392.37,-67.96L-396.72,-70.25L-398.20,-72.04L-397.66,-72.63L-390.24,-67.15L-396.72,-76.12L-397.65,-78.55L-389.77,-67.40L-397.18,-79.22L-392.92,-73.18" stroke-profile="1.029681 1.17522 0.667318 0.69346 1.010628 1.34261 0.639491 0.8741692 1.429385 1.01797 1.332609 " />
        <path d="M-392.92,-73.18L-390.01,-68.76L-392.92,-73.18" stroke-profile="1.332609 1.36638 0.8188133 " />
        <path d="M-392.92,-73.18L-396.99,-79.26L-394.31,-76.28" stroke-profile="0.8188133 0.8237506 1.373009 " />
        <path d="M-394.31,-76.28L-391.38,-72.29L-394.31,-76.28" stroke-profile="1.373009 1.481777 0.9822447 " />
        <path d="M-394.31,-76.28L-395.67,-78.34" stroke-profile="0.9822447 1.251911 " />
        <path d="M-395.67,-78.34L-392.44,-74.94L-395.67,-78.34" stroke-profile="1.251911 1.288786 0.973847 " />
        <path d="M-395.67,-78.34L-398.64,-81.02L-392.59,-73.03L-397.37,-79.45" stroke-profile="0.973847 0.9801289 1.400105 0.9151503 " />
        <path d="M-397.37,-79.45L-397.37,-79.45" stroke-profile="0.9151503 1.065356 " />
        <path d="M-397.37,-79.45L-392.02,-74.30L-391.41,-74.57L-392.87,-78.23L-390.48,-75.09" stroke-profile="1.065356 1.508622 1.483948 1.206676 1.514799 " />
        <path d="M-390.48,-75.09L-390.18,-74.63L-390.48,-75.09" stroke-profile="1.514799 1.523842 1.230898 " />
        <path d="M-390.48,-75.09L-392.17,-78.17" stroke-profile="1.230898 1.016411 " />
        <path d="M-392.17,-78.17L-392.17,-78.17" stroke-profile="1.016411 1.123211 " />
        <path d="M-392.17,-78.17L-390.59,-74.69L-390.35,-73.01L-391.05,-74.09" stroke-profile="1.123211 1.449724 1.339784 1.048375 " />
        <path d="M-391.05,-74.09L-392.01,-77.55L-391.05,-74.09" stroke-profile="1.048375 1.212536 1.381629 " />
        <path d="M-391.05,-74.09L-390.58,-71.49" stroke-profile="1.381629 1.347273 " />
        <path d="M-390.58,-71.49L-390.08,-68.17L-390.58,-69.13L-391.25,-76.19L-389.12,-66.47L-390.58,-71.49" stroke-profile="1.347273 1.386361 1.315983 1.290997 1.272756 1.216212 " />
        <path d="M-390.58,-71.49L-393.00,-77.57" stroke-profile="1.216212 1.282578 " />
        <path d="M-393.00,-77.57L-395.05,-78.77L-393.00,-77.57" stroke-profile="1.282578 1.276569 1.438507 " />
        <path d="M-393.00,-77.57L-390.61,-77.00" stroke-profile="1.438507 1.55017 " />
        <path d="M-390.61,-77.00L-389.35,-77.05L-390.61,-77.00" stroke-profile="1.55017 1.408013 1.168812 " />
        <path d="M-390.61,-77.00L-388.43,-77.69" stroke-profile="1.168812 1.335578 " />
        <path d="M-388.43,-77.69L-391.16,-75.32L-388.43,-77.69" stroke-profile="1.335578 1.328659 1.072171 " />
        <path d="M-388.43,-77.69L-393.69,-78.09L-386.32,-79.35L-389.88,-75.70" stroke-profile="1.072171 1.299082 1.524275 1.448522 " />
      </g>
      <g id="f4" transform="translate(73.38 589.56)" style="--index:4; opacity:0;" class="frame">
        <path d="M-400.27,-77.16L-401.42,-81.31L-405.65,-89.81" stroke-profile="0.7714455 1.132815 1.008361 " />
        <path d="M-405.65,-89.81L-405.65,-89.81" stroke-profile="1.008361 1.144422 " />
        <path d="M-405.65,-89.81L-401.39,-83.58L-397.36,-80.26L-390.78,-79.90L-383.97,-82.79L-387.08,-79.79L-388.11,-77.57L-389.44,-69.22L-387.52,-63.64L-384.08,-58.28" stroke-profile="1.144422 1.456418 1.51265 1.615229 1.716316 1.731474 1.744448 1.636778 1.643737 1.634177 " />
        <path d="M-384.08,-58.28L-384.08,-58.28" stroke-profile="1.634177 1.590376 " />
        <path d="M-384.08,-58.28L-391.40,-66.31L-394.18,-68.11L-400.02,-68.56L-407.22,-65.81L-403.51,-70.29L-400.92,-75.34L-401.39,-80.79L-402.79,-84.84" stroke-profile="1.590376 1.516376 1.528203 1.49373 1.483589 1.522655 1.553813 1.464358 0.3144637 " />
        <path d="M-401.49,-82.99L-388.39,-63.91" stroke-profile="1.083624 1.206533 " />
        <path d="M-388.39,-63.91L-388.39,-63.91" stroke-profile="1.206533 1.155356 " />
        <path d="M-388.39,-63.91L-399.11,-80.05L-390.87,-68.48" stroke-profile="1.155356 0.8090061 0.5647247 " />
        <path d="M-398.72,-80.02L-390.43,-68.60" stroke-profile="0.7848275 0.2237551 " />
        <path d="M-397.48,-79.66L-391.17,-69.97" stroke-profile="0.9201953 0.3857475 " />
        <path d="M-396.14,-78.40L-390.86,-71.06" stroke-profile="0.9234043 0.9012443 " />
        <path d="M-394.98,-78.05L-390.09,-67.56" stroke-profile="0.8489263 0.7565424 " />
        <path d="M-390.09,-67.56L-389.89,-66.95L-390.09,-67.56" stroke-profile="0.7565424 0.8920943 1.07067 " />
        <path d="M-390.09,-67.56L-390.77,-72.39L-390.37,-79.91" stroke-profile="1.07067 1.056761 0.4559911 " />
        <path d="M-389.67,-73.04L-392.54,-76.77" stroke-profile="0.9271733 1.138771 " />
        <path d="M-392.54,-76.77L-395.81,-80.36L-389.88,-72.29L-392.54,-76.77" stroke-profile="1.138771 0.9331495 1.231459 0.7290429 " />
        <path d="M-392.54,-76.77L-393.32,-77.95" stroke-profile="0.7290429 0.6788951 " />
        <path d="M-393.32,-77.95L-390.55,-75.56L-389.45,-78.81L-393.32,-77.95" stroke-profile="0.6788951 1.279242 0.9682065 1.033865 " />
        <path d="M-393.32,-77.95L-395.73,-78.28L-395.02,-78.96L-388.14,-78.23" stroke-profile="1.033865 0.9336413 1.285209 1.479231 " />
        <path d="M-388.14,-78.23L-388.14,-78.23" stroke-profile="1.479231 1.454281 " />
        <path d="M-388.14,-78.23L-390.68,-78.48" stroke-profile="1.454281 1.11922 " />
        <path d="M-390.68,-78.48L-396.30,-79.45L-392.50,-79.60L-388.80,-78.91L-390.68,-78.48" stroke-profile="1.11922 1.010445 1.51942 1.590723 1.28262 " />
        <path d="M-390.68,-78.48L-393.97,-77.59L-391.34,-76.16L-390.20,-76.55" stroke-profile="1.28262 1.09205 1.415217 1.232481 " />
        <path d="M-390.20,-76.55L-389.26,-78.54L-390.20,-76.55" stroke-profile="1.232481 1.211699 1.370369 " />
        <path d="M-390.20,-76.55L-390.64,-70.12L-389.18,-79.12L-389.11,-76.75L-389.97,-71.36L-391.02,-69.53L-395.60,-78.10L-398.30,-81.28L-393.07,-71.08" stroke-profile="1.370369 1.444808 1.276198 1.339156 1.255365 1.345583 1.094719 1.137698 1.480137 " />
        <path d="M-393.07,-71.08L-392.29,-69.65L-393.07,-71.08" stroke-profile="1.480137 1.518989 1.187353 " />
        <path d="M-393.07,-71.08L-398.88,-80.27L-396.22,-73.81" stroke-profile="1.187353 1.309909 1.248864 " />
        <path d="M-396.22,-73.81L-392.47,-68.31L-396.22,-73.81" stroke-profile="1.248864 1.47879 1.12229 " />
        <path d="M-396.22,-73.81L-398.67,-76.88" stroke-profile="1.12229 0.9891068 " />
        <path d="M-398.67,-76.88L-400.33,-79.45L-398.67,-76.88" stroke-profile="0.9891068 0.9334505 1.420327 " />
        <path d="M-398.67,-76.88L-394.08,-69.46" stroke-profile="1.420327 1.496051 " />
        <path d="M-394.08,-69.46L-394.08,-69.46" stroke-profile="1.496051 1.283603 " />
        <path d="M-394.08,-69.46L-398.83,-74.66" stroke-profile="1.283603 0.955076 " />
        <path d="M-398.83,-74.66L-400.57,-77.03L-398.83,-74.66" stroke-profile="0.955076 0.9105258 1.319776 " />
        <path d="M-398.83,-74.66L-396.54,-71.41" stroke-profile="1.319776 1.497332 " />
        <path d="M-396.54,-71.41L-394.73,-69.21L-396.54,-71.41" stroke-profile="1.497332 1.360581 1.121143 " />
        <path d="M-396.54,-71.41L-399.83,-75.21L-396.39,-69.38" stroke-profile="1.121143 1.055714 1.478125 " />
        <path d="M-396.39,-69.38L-396.39,-69.38" stroke-profile="1.478125 1.236019 " />
        <path d="M-396.39,-69.38L-400.46,-74.27L-397.48,-68.83L-400.50,-72.56L-399.08,-69.03L-400.92,-71.48L-400.13,-69.06L-401.45,-70.35L-400.84,-68.66L-401.96,-69.03" stroke-profile="1.236019 1.052513 1.416586 1.181029 1.265664 1.210579 1.25906 1.017505 1.279473 0.8993078 " />
        <path d="M-401.96,-69.03L-403.24,-68.99L-403.75,-67.65L-401.96,-69.03" stroke-profile="0.8993078 0.9925325 1.165879 1.376197 " />
        <path d="M-401.96,-69.03L-397.51,-74.60L-403.13,-68.32L-402.91,-69.70" stroke-profile="1.376197 1.378078 1.192527 1.315231 " />
        <path d="M-402.91,-69.70L-398.73,-77.60L-402.91,-69.70" stroke-profile="1.315231 1.2848 1.097685 " />
        <path d="M-402.91,-69.70L-398.46,-79.47" stroke-profile="1.097685 1.405552 " />
        <path d="M-398.46,-79.47L-398.34,-80.91L-399.07,-81.39L-398.46,-79.47" stroke-profile="1.405552 1.144136 0.8886667 1.307388 " />
        <path d="M-398.46,-79.47L-397.39,-77.68" stroke-profile="1.307388 1.429023 " />
        <path d="M-397.39,-77.68L-393.96,-72.54L-392.22,-71.51L-393.94,-74.54L-397.39,-77.68" stroke-profile="1.429023 1.421434 1.223289 0.8420042 0.7900857 " />
        <path d="M-397.39,-77.68L-393.48,-73.40L-393.87,-74.52L-399.94,-81.59" stroke-profile="0.7900857 1.420097 1.12753 0.8975659 " />
        <path d="M-399.94,-81.59L-399.94,-81.59" stroke-profile="0.8975659 1.078451 " />
        <path d="M-399.94,-81.59L-396.34,-75.57L-393.99,-74.34L-392.09,-74.71" stroke-profile="1.078451 1.345776 1.37617 1.359083 " />
        <path d="M-392.09,-74.71L-390.73,-76.23L-390.39,-79.31L-392.09,-74.71" stroke-profile="1.359083 1.335282 1.089912 1.324352 " />
        <path d="M-392.09,-74.71L-392.72,-73.95" stroke-profile="1.324352 1.428678 " />
        <path d="M-392.72,-73.95L-389.88,-79.70L-392.72,-73.95" stroke-profile="1.428678 1.438363 1.250738 " />
        <path d="M-392.72,-73.95L-392.93,-72.37L-391.61,-73.30L-389.45,-78.61" stroke-profile="1.250738 1.515525 1.621235 1.386116 " />
      </g>
      <g id="f5" transform="translate(73.38 589.56)" style="--index:5; opacity:0;" class="frame" />
      <g id="f6" transform="translate(73.38 589.56)" style="--index:6; opacity:0;" class="frame" />
      <g id="f7" transform="translate(73.38 589.56)" style="--index:7; opacity:0;" class="frame" />
    </g>
    <g id="t2" transform="translate(175.23 -136.76) scale(0.99 0.99) rotate(-1.78)" class="thread">
      <g id="f0" transform="translate(-486.63 429.25)" style="--index:0; opacity:1;" class="frame">
        <path d="M-236.12,-42.08L-239.04,-46.72L-240.44,-50.75L-240.89,-59.95L-239.84,-64.00L-237.78,-67.57L-234.28,-71.28L-229.63,-74.32L-223.15,-75.91L-212.69,-75.64L-205.73,-72.07L-199.77,-65.92L-197.06,-60.49L-195.93,-54.00L-196.40,-47.91L-199.04,-42.21L-201.83,-38.90L-207.12,-35.86L-212.95,-33.67L-218.85,-32.74L-223.88,-33.15L-229.23,-35.53L-232.02,-37.91L-235.59,-43.27L-238.51,-51.48L-238.91,-59.10L-237.52,-62.41L-234.41,-65.78L-229.31,-68.69L-223.35,-70.48L-215.86,-70.35L-210.18,-67.50L-206.46,-63.86L-203.67,-59.62L-202.16,-54.14L-202.09,-50.23L-206.92,-44.53L-215.08,-39.44L-219.38,-38.51L-223.60,-38.78L-228.98,-42.81L-233.61,-50.42L-233.68,-58.63L-230.56,-62.74L-225.59,-65.92L-219.71,-67.31L-214.15,-66.71L-209.90,-63.34L-207.59,-59.10L-207.12,-53.67L-209.78,-50.03L-215.13,-47.91L-222.69,-48.10L-224.53,-49.43L-225.66,-51.95L-225.74,-58.30L-222.35,-64.25L-219.58,-65.78L-216.52,-65.78L-213.87,-63.34L-212.22,-59.62L-211.63,-54.14L-212.36,-51.15L-215.46,-48.83L-220.03,-48.70L-222.22,-50.09L-223.22,-52.28L-223.15,-55.85L-222.35,-57.51L-220.23,-59.95L-216.99,-61.02L-215.33,-60.09L-214.15,-56.05L-214.40,-52.55L-215.81,-51.39" />
        <path d="M-215.81,-51.39L-218.78,-51.22L-220.11,-52.81L-220.16,-55.71L-218.85,-57.64L-217.79,-57.84L-216.72,-56.58L-215.81,-51.39" />
        <path d="M-215.81,-51.39L-215.93,-49.36L-216.92,-48.57L-219.63,-48.31L-220.69,-49.36L-221.29,-52.88L-221.09,-64.19L-222.55,-67.31L-225.59,-70.02L-230.64,-70.81L-233.08,-69.89L-237.65,-65.72L-239.51,-62.01" />
        <path d="M-239.51,-62.01L-240.24,-51.88L-237.72,-44.26L-229.23,-33.21L-224.48,-30.10L-219.96,-28.25L-213.47,-26.85L-204.07,-26.66L-199.37,-28.51L-195.15,-31.09L-192.69,-33.61L-186.60,-44.80L-185.80,-54.53L-188.06,-63.53L-191.16,-69.48L-195.07,-73.66L-201.96,-78.62L-210.63,-82.80L-215.86,-84.25L-220.36,-84.25L-226.39,-82.20L-231.49,-78.95L-236.39,-74.13L-238.71,-70.08L-239.51,-62.01" />
        <path d="M-239.51,-62.01L-238.38,-52.88L-233.73,-43.93L-228.71,-38.18L-222.02,-34.21L-210.43,-30.30L-202.82,-30.03L-196.13,-34.40L-193.54,-37.52L-192.23,-40.95L-190.43,-51.48L-190.24,-57.57L-191.88,-63.53L-194.54,-67.43L-205.66,-73.80L-217.19,-79.16L-228.85,-80.28L-234.73,-77.74" />
        <path d="M-234.73,-77.74L-238.45,-74.05L-240.69,-69.75L-241.95,-62.14L-241.62,-54.26L-240.89,-51.22L-235.74,-40.76L-228.45,-31.89L-222.62,-28.11L-218.52,-26.66L-206.79,-25.86L-194.07,-29.10L-188.99,-32.29L-184.27,-37.78L-179.71,-45.85L-177.78,-50.15L-176.12,-57.04L-176.20,-63.07L-177.38,-67.17L-180.77,-73.33L-185.14,-78.49L-192.43,-84.39L-199.17,-88.03L-206.59,-90.01L-216.79,-90.47L-223.48,-88.42L-228.98,-84.98L-232.68,-81.68L-234.73,-77.74" />
        <path d="M-234.73,-77.74L-237.00,-71.34L-237.58,-65.39L-237.38,-71.55L-235.06,-77.36L-231.57,-81.87L-225.54,-86.31L-221.16,-87.96L-214.73,-88.62L-205.86,-88.62L-198.72,-87.10L-192.43,-83.33L-185.40,-74.65L-181.90,-67.04L-179.27,-56.41" />
        <path d="M-179.27,-56.41L-178.91,-54.86L-179.27,-56.41" />
        <path d="M-179.27,-56.41L-188.06,-74.19L-183.49,-70.02L-177.93,-59.75" />
        <path d="M-177.93,-59.75L-177.45,-58.83L-177.93,-59.75" />
        <path d="M-177.93,-59.75L-186.46,-73.72L-193.87,-82.40L-196.93,-84.78L-208.25,-88.56L-213.35,-89.15L-219.96,-89.02L-226.59,-86.37L-232.29,-82.73L-235.14,-79.02L-238.51,-65.84L-239.11,-51.02L-237.85,-45.27L-234.66,-37.85L-231.16,-33.88L-222.62,-28.77L-213.15,-25.67L-200.90,-25.07L-195.00,-26.19L-192.81,-27.45L-185.60,-33.67L-181.63,-41.36L-179.77,-47.18L-177.73,-56.91L-177.73,-60.82L-180.17,-69.36L-177.78,-68.16L-174.81,-64.06L-174.34,-55.13L-176.12,-48.91L-180.17,-39.90L-182.83,-35.80L-188.59,-29.83L-183.61,-29.97L-178.26,-33.81L-173.94,-40.04L-169.97,-50.95L-169.38,-61.42L-170.17,-64.79L-174.08,-73.80L-179.31,-80.08L-184.67,-83.79L-194.67,-88.09L-206.53,-90.34L-214.16,-89.60" />
        <path d="M-214.16,-89.60L-214.68,-89.48L-214.16,-89.60" />
        <path d="M-214.16,-89.60L-203.72,-93.31" />
        <path d="M-203.72,-93.31L-195.20,-93.32L-182.23,-86.97L-174.87,-79.02L-170.44,-69.03L-169.84,-55.52L-174.01,-42.81L-178.51,-35.06L-182.36,-30.16L-190.97,-25.53L-199.24,-25.01L-203.22,-25.73L-219.10,-35.80L-228.45,-46.32L-231.89,-52.67L-233.48,-58.30L-233.48,-70.41L-231.09,-76.37L-227.92,-81.14L-225.74,-82.92L-209.65,-90.94L-198.24,-91.79L-203.72,-93.31" />
        <path d="M-203.72,-93.31L-212.36,-93.52L-214.68,-92.92L-220.03,-90.55L-222.69,-87.03" />
        <path d="M-31.32,-118.81L-33.17,-119.60" />
        <path d="M-33.17,-119.60L-36.22,-123.57L-38.61,-130.06L-38.61,-133.76L-35.82,-137.61L-29.66,-139.59L-21.04,-139.86L-15.23,-136.82L-10.13,-131.52L-6.34,-122.45L-6.34,-119.14L-8.87,-114.24L-12.57,-111.06L-16.62,-109.88L-27.80,-110.79L-31.05,-114.30L-33.17,-119.60" />
        <path d="M-33.17,-119.60L-36.02,-132.11" />
        <path d="M-32.38,-133.84L-35.49,-134.63L-36.55,-132.44L-37.33,-126.81L-36.47,-122.45L-32.63,-116.35L-27.27,-112.65L-19.46,-110.73L-16.94,-111.26L-13.90,-115.50" />
      </g>
      <g id="f1" transform="translate(-486.63 429.25)" style="--index:1; opacity:0;" class="frame">
        <path d="M-198.77,-62.14L-196.06,-71.61L-195.93,-88.09L-194.14,-99.75L-189.84,-108.48L-180.90,-115.36L-177.13,-116.16L-167.78,-116.16L-162.50,-115.23L-154.74,-112.71L-144.61,-107.09L-142.04,-102.39L-140.91,-89.15L-144.68,-79.49L-150.31,-74.32L-154.81,-72.73L-174.34,-72.13L-181.37,-68.63L-187.53,-62.68L-191.30,-60.69L-192.43,-60.75L-193.74,-63.01L-194.07,-69.23" />
        <path d="M-188.99,-71.01L-191.63,-70.29L-194.14,-66.38L-195.00,-61.68L-193.34,-59.43L-188.51,-58.83L-179.19,-65.18L-170.90,-77.96L-171.17,-79.75L-173.56,-81.80L-177.58,-83.13" />
        <path d="M-191.16,-71.88L-193.69,-70.88L-196.40,-66.71L-197.91,-58.44L-196.20,-57.04L-190.10,-56.78L-184.87,-58.69L-181.23,-61.08L-177.93,-64.81" />
        <path d="M-177.93,-64.81L-172.03,-72.73L-168.91,-75.45L-165.41,-76.24L-159.64,-76.11L-161.62,-73.39L-165.79,-70.55L-177.93,-64.81" />
        <path d="M-177.93,-64.81L-184.01,-62.01L-188.84,-56.52L-192.29,-56.38L-194.95,-57.90L-196.66,-60.61L-196.93,-65.98L-192.89,-77.77L-191.30,-79.75L-187.13,-73.00L-184.94,-70.81L-179.64,-69.48L-175.62,-69.86" />
        <path d="M-175.62,-69.86L-169.44,-72.81L-172.03,-68.96L-176.67,-65.72L-179.04,-65.06L-179.91,-65.51L-175.62,-69.86" />
        <path d="M-175.62,-69.86L-171.36,-73.00" />
        <path d="M-171.36,-73.00L-170.37,-73.59L-171.36,-73.00" />
        <path d="M-171.36,-73.00L-173.88,-70.55L-172.10,-71.55L-170.90,-73.86L-171.04,-74.85L-173.36,-73.07" />
        <path d="M-173.36,-73.07L-176.40,-69.29L-176.12,-71.41L-174.14,-75.04L-171.95,-77.44L-173.36,-73.07" />
        <path d="M-173.36,-73.07L-173.41,-72.27L-172.62,-72.21" />
        <path d="M-172.62,-72.21L-165.87,-73.93L-171.22,-70.15L-177.20,-67.31L-172.62,-72.21" />
        <path d="M-172.62,-72.21L-165.94,-77.44" />
        <path d="M-38.79,-91.40L-39.74,-97.63" />
        <path d="M-39.74,-97.63L-39.72,-102.46L-38.61,-106.22L-35.95,-110.40L-32.58,-112.85L-30.59,-113.52L-26.67,-113.25L-23.38,-110.66L-20.31,-106.30L-20.11,-98.68L-23.56,-95.04L-27.67,-93.05L-30.12,-92.45L-36.42,-92.92L-38.21,-94.25L-39.74,-97.63" />
        <path d="M-39.74,-97.63L-40.85,-108.08L-38.46,-112.59L-36.35,-114.30L-32.90,-115.44L-26.02,-115.96L-24.23,-115.23L-21.72,-112.98L-17.95,-106.22L-17.40,-100.54L-19.06,-97.76L-22.97,-94.58L-28.13,-92.72L-34.96,-93.59L-37.40,-96.17" />
      </g>
      <g id="f2" transform="translate(-486.63 429.25)" style="--index:2; opacity:0;" class="frame">
        <path d="M-147.14,-130.66L-149.58,-129.46L-150.84,-127.88L-155.54,-119.60L-157.12,-111.00L-157.20,-103.12L-155.94,-99.87L-153.02,-96.44L-147.72,-92.78L-140.71,-89.55L-137.06,-88.81L-127.79,-88.81L-121.50,-90.14L-115.02,-93.32L-108.46,-98.68L-103.89,-103.91L-100.31,-109.67L-98.33,-116.82L-98.78,-122.05L-100.84,-126.48L-104.36,-131.26L-111.43,-135.82L-118.66,-137.81L-126.66,-137.15L-139.52,-133.43L-142.29,-131.52L-145.08,-128.21L-148.05,-120.79" />
        <path d="M-148.19,-111.78L-148.25,-109.01L-149.18,-106.96L-150.71,-109.74L-150.76,-114.18L-149.12,-123.90L-146.21,-131.38L-143.69,-134.90L-140.51,-136.68L-134.28,-138.53L-120.50,-139.07L-117.79,-138.53L-113.36,-136.09L-109.11,-132.04L-106.55,-128.28L-103.10,-118.42L-103.28,-115.69L-106.40,-111.72" />
        <path d="M-42.71,-70.02L-43.08,-71.16" />
        <path d="M-43.08,-71.16L-43.56,-73.47L-42.43,-73.93L-41.25,-73.93L-40.25,-72.21L-39.86,-67.70L-41.32,-65.65L-42.63,-65.72L-43.11,-66.77L-43.08,-71.16" />
        <path d="M-43.08,-71.16L-40.52,-71.80L-40.12,-71.07L-39.92,-67.57L-40.96,-65.47" />
        <path d="M-40.96,-65.47L-43.43,-64.33L-43.84,-72.93L-42.38,-76.51L-39.19,-77.69L-37.00,-74.38L-36.60,-70.35L-38.33,-67.04L-40.96,-65.47" />
        <path d="M-40.96,-65.47L-42.51,-65.84L-43.36,-67.64L-43.56,-74.38L-42.05,-77.23L-39.52,-78.02L-37.33,-77.30L-35.87,-75.31L-35.35,-68.16L-36.68,-66.11L-38.93,-64.99L-43.80,-65.43" />
        <path d="M-43.80,-65.43L-45.22,-68.49L-45.15,-72.13L-40.92,-78.89L-38.01,-79.82L-35.95,-77.50L-34.69,-74.52L-34.36,-68.90L-37.08,-65.58L-39.26,-64.66L-42.05,-64.46L-43.80,-65.43" />
        <path d="M-43.80,-65.43L-45.75,-68.96L-45.88,-74.52L-44.95,-76.64L-42.30,-79.28L-39.26,-80.48L-35.49,-80.28L-33.51,-76.90L-33.43,-71.67L-36.42,-68.10L-40.97,-66.98L-42.30,-71.07L-42.18,-75.71L-41.38,-76.64" />
      </g>
      <g id="f3" transform="translate(-486.63 429.25)" style="--index:3; opacity:0;" class="frame">
        <path d="M-91.17,-108.55L-97.33,-107.48L-105.82,-107.81L-110.72,-110.54L-113.49,-113.11L-116.00,-117.88L-116.68,-125.16L-114.49,-129.40L-110.85,-133.04L-100.52,-136.61L-90.51,-137.15L-72.69,-133.70L-63.37,-129.21L-60.32,-125.49L-59.52,-119.14L-61.44,-115.36L-63.97,-113.11L-69.78,-111.20L-84.15,-110.93L-88.93,-110.93L-97.60,-112.78" />
        <path d="M-101.57,-118.08L-100.57,-114.84L-98.20,-112.59L-83.30,-108.68L-81.11,-108.68L-76.01,-111.45L-71.04,-114.70L-69.54,-116.52" />
        <path d="M-69.54,-116.52L-69.45,-118.42L-70.58,-119.80L-76.61,-123.90L-82.82,-125.89L-89.71,-126.09L-96.94,-123.77L-99.84,-122.05L-103.56,-117.35L-104.49,-113.18L-102.96,-108.15L-99.99,-105.31L-96.47,-104.44L-89.33,-104.44L-76.47,-106.10L-71.04,-108.68L-68.52,-112.59L-68.47,-114.90L-69.54,-116.52" />
        <path d="M-69.54,-116.52L-73.92,-118.62" />
        <path d="M-73.92,-118.62L-80.78,-120.46L-86.07,-120.53L-93.03,-118.54L-94.94,-117.16L-95.34,-115.83L-91.64,-112.52L-86.94,-110.66L-74.88,-110.27L-66.41,-112.05L-62.97,-114.70L-61.84,-117.22L-61.98,-119.33L-63.69,-122.12L-66.68,-123.44L-70.71,-122.84L-73.02,-120.79L-73.92,-118.62" />
        <path d="M-73.92,-118.62L-74.55,-114.90L-71.71,-113.97" />
        <path d="M-36.27,-80.02L-54.17,-89.41L-66.41,-98.28L-71.04,-103.12L-75.35,-109.94L-76.28,-113.38L-76.01,-115.90L-71.84,-118.42L-62.11,-119.08L-55.81,-117.61L-44.09,-111.78L-34.56,-103.51L-28.66,-91.93L-28.20,-89.16" />
        <path d="M-28.20,-89.16L-29.53,-86.57L-32.63,-84.91L-38.53,-84.98L-36.80,-81.41L-34.16,-79.94L-28.93,-79.49L-27.73,-83.79L-28.20,-89.16" />
        <path d="M-28.20,-89.16L-30.93,-92.16" />
        <path d="M-30.93,-92.16L-37.15,-95.37L-38.41,-95.30L-38.41,-93.19L-31.05,-85.05L-27.93,-83.25L-27.60,-87.43L-30.93,-92.16" />
        <path d="M-30.93,-92.16L-32.78,-94.64" />
      </g>
      <g id="f4" transform="translate(-486.63 429.25)" style="--index:4; opacity:0;" class="frame">
        <path d="M-26.34,-55.79L-26.83,-55.97" />
        <path d="M-26.83,-55.97L-29.39,-57.24L-32.45,-61.81L-38.21,-74.85L-39.99,-83.06L-40.05,-87.30L-38.86,-89.22L-36.55,-90.74L-29.66,-90.61L-24.89,-86.91L-18.93,-76.44L-15.09,-67.04L-13.37,-58.90L-13.30,-53.81L-14.10,-52.74L-17.02,-50.23L-21.92,-49.69L-24.23,-51.29L-26.83,-55.97" />
        <path d="M-26.83,-55.97L-29.46,-67.57" />
        <path d="M-33.16,-77.96L-31.72,-68.82L-27.35,-55.38L-22.70,-51.29L-19.99,-51.41" />
      </g>
      <g id="f5" transform="translate(-486.63 429.25)" style="--index:5; opacity:0;" class="frame">
        <path d="M5.90,-31.29L-1.91,-32.49L-6.29,-34.47L-15.09,-42.02L-19.00,-46.59L-22.70,-53.54L-22.83,-57.44L-19.13,-65.18L-16.87,-66.77L-7.62,-69.56L-2.57,-69.36L1.46,-67.97L8.87,-64.25L21.66,-53.60L33.98,-45.72L37.15,-42.08L38.15,-38.45L35.16,-34.87L27.09,-31.83L11.59,-31.62L5.50,-32.35L-1.51,-35.47L-3.97,-39.11" />
        <path d="M-3.97,-45.46L-4.50,-39.96L-1.46,-35.14L3.39,-31.29L10.80,-29.24L21.13,-29.10L31.59,-30.24L33.45,-31.29L34.05,-32.55L33.65,-38.38" />
      </g>
      <g id="f6" transform="translate(-486.63 429.25)" style="--index:6; opacity:0;" class="frame">
        <path d="M64.97,-41.42L57.75,-37.05L49.67,-34.40L44.18,-33.55L35.44,-33.88L29.81,-38.18L27.02,-42.81L26.49,-49.57L27.82,-54.33L32.32,-59.76L37.55,-64.19L48.35,-70.88L54.04,-73.26L66.83,-75.78L75.70,-75.78L83.44,-74.38L91.31,-70.48L95.30,-65.32L95.49,-62.27L91.99,-53.40L87.34,-50.69L78.62,-48.83L73.04,-48.57L59.21,-43.27" />
        <path d="M51.80,-44.46L63.04,-40.76L70.93,-40.23L80.46,-41.94L88.80,-45.60L94.58,-51.62L95.69,-60.03L94.43,-65.72L87.94,-68.76" />
        <path d="M73.57,-59.43L65.63,-73.26L62.66,-80.54L59.80,-92.99L59.34,-107.03L61.73,-115.36L66.76,-122.98L74.64,-131.12L81.13,-135.95L89.33,-137.08L94.30,-135.43L99.20,-132.52L108.93,-123.98L123.96,-104.71L131.12,-94.18L134.89,-86.57L137.15,-79.94L136.88,-70.95L133.44,-65.92L127.15,-61.35L117.08,-56.58L105.76,-55.46L94.03,-55.46L86.09,-57.18L80.98,-60.69L74.90,-68.76L71.78,-74.32L69.93,-79.28L68.87,-86.37" />
      </g>
      <g id="f7" transform="translate(-486.63 429.25)" style="--index:7; opacity:0;" class="frame">
        <path d="M93.77,-126.03L86.88,-141.78" />
        <path d="M86.88,-141.78L82.44,-154.42L80.86,-162.31L79.47,-179.58L81.13,-187.00L86.36,-195.20L90.00,-198.78L104.10,-207.84L113.71,-210.69L125.95,-211.62L141.33,-211.16L150.25,-208.25L157.67,-203.74L169.58,-192.49L177.20,-182.03L182.57,-170.64L186.27,-155.82L186.47,-145.81L185.54,-138.20L182.57,-129.33L178.93,-122.72L173.70,-117.35L167.94,-113.97L161.79,-111.66L150.85,-109.47L124.16,-107.89L113.43,-110.13L102.97,-114.64L94.03,-121.91L90.13,-127.81L87.54,-135.35L86.88,-141.78" />
        <path d="M86.88,-141.78L86.56,-173.82" />
      </g>
      <g id="f8" transform="translate(-486.63 429.25)" style="--index:8; opacity:0;" class="frame">
        <path d="M93.05,-157.66L84.50,-168.33L78.47,-173.29L74.30,-175.54L69.40,-176.87L58.54,-178.13L38.22,-178.32L25.23,-182.16L18.95,-187.06L13.85,-194.21L12.19,-201.43L12.92,-208.25L17.02,-214.20L22.59,-218.63L27.16,-220.49L36.09,-222.02L48.08,-222.35L59.74,-221.36L74.90,-218.44L85.23,-214.20L96.09,-206.00L99.60,-202.36L106.62,-192.75L109.66,-184.14L110.46,-170.38L109.41,-166.40L105.16,-162.97L94.70,-161.11" />
        <path d="M93.65,-166.47L93.57,-162.43L94.63,-160.31L98.15,-157.66L102.32,-157.27L106.02,-158.86L107.75,-160.58L109.61,-164.42L110.13,-168.59" />
        <path d="M95.36,-165.08L93.57,-163.16L93.70,-160.12L95.30,-157.80L99.33,-155.08L103.50,-155.75L108.35,-159.25L112.38,-164.95L113.23,-168.33L112.98,-174.22L103.78,-191.30L94.63,-202.28L91.92,-204.67L83.40,-207.25" />
        <path transform="translate(0.00 NaN)" d="M83.40,-207.25L82.84,-207.25L83.40,-207.25" />
        <path d="M83.40,-207.25L90.20,-206.00L99.60,-200.37L106.89,-193.94L113.38,-184.81L115.42,-176.66L114.96,-169.92L110.52,-166.67L104.23,-165.62" />
      </g>
      <g id="f9" transform="translate(-486.63 429.25)" style="--index:9; opacity:0;" class="frame">
        <path d="M34.31,-198.91L30.94,-200.37L18.55,-200.56L3.59,-204.94L-3.04,-207.84L-10.13,-212.94L-13.57,-216.38L-17.75,-223.80L-19.73,-230.23L-19.86,-240.61L-18.07,-247.90L-13.83,-257.50L-9.98,-262.07L-3.24,-265.04L10.93,-265.97L15.70,-264.51L29.00,-258.02L40.39,-248.49L49.34,-239.03L63.58,-228.83L68.09,-223.47L70.73,-218.57L72.06,-214.14L72.11,-210.63L69.01,-205.27L62.46,-201.62L48.15,-199.30L37.35,-199.77L24.38,-205.27" />
      </g>
      <g id="f10" transform="translate(-486.63 429.25)" style="--index:10; opacity:0;" class="frame">
        <path d="M-31.90,-182.03L-32.88,-181.86" />
        <path d="M-32.88,-181.86L-34.96,-181.50L-38.93,-185.74L-42.58,-191.17L-43.96,-195.47L-44.22,-205.33L-42.38,-210.16L-39.52,-214.53L-28.33,-224.46L-18.07,-228.30L-8.14,-228.70L-2.11,-226.32L2.33,-223.20L5.98,-219.50L12.86,-206.72L14.98,-197.91L14.45,-187.99L9.22,-178.91L5.37,-175.40L1.99,-174.88L-12.04,-169.92L-16.87,-169.78L-22.17,-172.23L-26.55,-175.67L-32.05,-182.62L-34.03,-188.05L-35.02,-187.00L-35.09,-185.20L-32.88,-181.86" />
        <path d="M-32.88,-181.86L-30.64,-178.52L-26.67,-174.82L-20.19,-171.64L-26.62,-173.09L-31.45,-176.93L-38.53,-188.98L-38.13,-191.56L-36.88,-191.63L-35.87,-190.10" />
        <path d="M-27.60,-185.61L-32.50,-190.76L-32.70,-184.02L-31.65,-181.50L-24.83,-175.21L-21.84,-174.28L-19.46,-174.82" />
        <path d="M-32.25,-191.69L-33.76,-189.04L-33.76,-182.16L-32.30,-178.32L-29.13,-175.15L-19.79,-171.76" />
        <path d="M-19.79,-171.76L-19.79,-171.76" />
        <path d="M-19.79,-171.76L-22.25,-172.09L-26.62,-174.28L-32.90,-180.44L-35.69,-187.00L-35.82,-191.63L-34.09,-193.68L-34.16,-184.28L-31.17,-180.50L-27.15,-178.52" />
      </g>
      <g id="f11" transform="translate(-486.63 429.25)" style="--index:11; opacity:0;" class="frame">
        <path d="M-30.44,-139.53L-33.23,-139.53L-36.68,-141.51L-38.95,-143.89" />
        <path d="M-38.95,-143.89L-41.12,-151.38L-41.38,-158.65L-38.93,-165.74L-35.02,-171.24L-29.79,-174.49L-26.14,-175.61L-20.06,-175.61L-7.74,-172.36L0.40,-167.86L8.34,-159.39L11.20,-152.70L12.26,-146.81L11.66,-139.73L10.15,-136.42L7.69,-133.57L-1.91,-125.76L-7.42,-122.98L-13.37,-121.46L-18.00,-121.58L-21.12,-122.65L-25.62,-124.77L-32.90,-129.73L-37.68,-135.29L-38.95,-143.89" />
        <path d="M-38.95,-143.89L-39.19,-152.24L-37.15,-157.08" />
        <path d="M-26.87,-92.20" />
      </g>
    </g>
    <g id="t3" transform="translate(241.77 -192.74) scale(0.99 0.99) rotate(-0.31)" class="thread">
      <g id="f0" transform="translate(-535.41 497.22)" style="--index:0; opacity:1;" class="frame">
        <path d="M-212.54,-86.31L-218.98,-85.71L-223.60,-89.08L-225.13,-91.67" stroke-profile="1.613685 1.612142 1.42097 0.8627136 " />
        <path d="M-213.07,-87.10L-209.58,-87.24L-205.93,-89.02L-200.83,-93.46L-198.39,-97.82" stroke-profile="1.188851 1.303876 1.373879 1.371604 0.7679865 " />
        <path d="M-208.92,-86.37L-210.63,-82.07L-213.22,-78.62L-218.12,-76.18" stroke-profile="1.099434 1.185356 1.223939 0.9413882 " />
        <path d="M-212.42,-84.98L-199.37,-79.94L-193.54,-79.16" stroke-profile="1.012278 1.319464 1.094576 " />
        <path d="M-209.30,-86.37L-210.50,-97.35" stroke-profile="1.035357 0.9500195 " />
        <path d="M-212.95,-77.77L-221.56,-76.37" stroke-profile="0.7806891 0.6164804 " />
      </g>
      <g id="f1" transform="translate(-535.41 497.22)" style="--index:1; opacity:0;" class="frame">
        <path d="M-171.42,-109.47L-179.44,-110.87L-178.38,-108.88L-174.01,-107.62L-170.44,-107.56L-168.78,-108.62L-167.85,-111.92L-164.01,-114.70" stroke-profile="1.187239 1.300971 1.381369 1.423345 1.390208 1.357239 1.266752 0.4922995 " />
        <path d="M-169.11,-110.00L-176.85,-109.47L-179.44,-110.46L-185.27,-110.66L-190.50,-112.85" stroke-profile="0.7549779 0.9658461 1.036114 1.041069 0.6400043 " />
        <path d="M-173.41,-108.35L-182.96,-99.81" stroke-profile="1.140517 0.5738021 " />
      </g>
      <g id="f2" transform="translate(-535.41 497.22)" style="--index:2; opacity:0;" class="frame">
        <path d="M-149.71,-118.54L-142.62,-119.53L-137.86,-121.06L-134.55,-125.10L-131.63,-127.15L-131.31,-130.12" stroke-profile="1.24757 1.257096 1.273664 1.232076 0.870455 0.4855376 " />
        <path d="M-142.57,-132.25L-140.58,-127.62L-140.31,-120.53L-141.69,-114.84L-143.82,-110.13" stroke-profile="0.6711501 0.7540355 0.8659543 0.8370376 0.5766361 " />
        <path d="M-140.58,-120.40L-143.35,-122.45L-148.05,-128.67" stroke-profile="0.4750199 0.5082633 0.4246388 " />
        <path d="M-139.91,-120.65L-133.02,-116.35" stroke-profile="0.3970437 0.7158091 " />
      </g>
      <g id="f3" transform="translate(-535.41 497.22)" style="--index:3; opacity:0;" class="frame" />
      <g id="f4" transform="translate(-535.41 497.22)" style="--index:4; opacity:0;" class="frame">
        <path d="M-46.35,-97.23L-41.90,-92.78L-36.88,-90.01L-35.22,-90.07L-35.75,-93.26L-30.26,-94.52" stroke-profile="1.026213 1.215662 1.274416 1.265767 1.289757 0.3179654 " />
        <path d="M-38.26,-90.14L-25.82,-92.20" stroke-profile="0.658974 0.6231123 " />
        <path d="M-34.29,-91.13L-40.59,-86.70L-46.75,-84.72" stroke-profile="1.005815 1.121257 0.8107718 " />
        <path d="M-34.62,-90.41L-30.85,-84.98" stroke-profile="0.9542626 0.8683563 " />
      </g>
      <g id="f5" transform="translate(-535.41 497.22)" style="--index:5; opacity:0;" class="frame">
        <path d="M19.88,-42.68L28.68,-39.17L33.45,-38.90L36.95,-39.96L36.95,-39.11" stroke-profile="1.077228 1.340979 1.287075 1.307352 0.7505309 " />
        <path d="M25.11,-42.08L21.66,-42.28L12.32,-46.45" stroke-profile="0.4750216 0.3337693 0.292766 " />
        <path d="M25.03,-40.70L10.33,-46.32" stroke-profile="0.5336637 0.7027614 " />
        <path d="M22.99,-43.08L25.83,-43.34L34.38,-52.55" stroke-profile="0.9064936 1.068937 0.9798443 " />
        <path d="M27.42,-42.81L26.36,-37.91L24.05,-32.74L22.06,-29.77L20.13,-28.84" stroke-profile="1.096696 1.170167 1.143056 0.994138 0.6353953 " />
        <path d="M28.08,-40.49L32.85,-33.74" stroke-profile="1.032314 1.091031 " />
      </g>
      <g id="f6" transform="translate(-535.41 497.22)" style="--index:6; opacity:0;" class="frame">
        <path d="M99.73,-114.24L96.56,-115.63L92.57,-118.94L89.07,-124.37" stroke-profile="1.379152 1.417577 1.389165 0.7224228 " />
        <path d="M94.90,-117.88L92.32,-118.67L85.96,-127.29" stroke-profile="0.7129568 0.7377751 0.5131056 " />
        <path d="M91.26,-121.19L97.35,-115.69L101.85,-113.18L113.83,-109.34L121.19,-109.47" stroke-profile="0.6741104 1.324132 1.49101 1.469477 0.8903049 " />
        <path d="M103.10,-111.66L101.46,-105.89L97.02,-97.62" stroke-profile="1.440519 1.488288 0.8898646 " />
        <path d="M101.06,-110.13L103.58,-111.66L105.43,-114.51L106.29,-126.03" stroke-profile="1.025993 1.176737 1.331267 0.8756253 " />
        <path d="M105.23,-114.24L94.23,-110.87L89.47,-111.12L83.90,-113.44" stroke-profile="1.226549 1.519699 1.49839 0.9724992 " />
      </g>
      <g id="f7" transform="translate(-535.41 497.22)" style="--index:7; opacity:0;" class="frame">
        <path d="M122.31,-197.58L104.83,-195.39L89.20,-194.67" stroke-profile="1.469636 1.790696 0.7421233 " />
        <path d="M116.68,-195.20L111.65,-192.62L104.18,-185.74L101.99,-183.09L99.08,-176.93" stroke-profile="1.320732 1.456104 1.635123 1.65532 0.7561781 " />
        <path d="M119.79,-194.54L119.79,-187.59L126.68,-174.94" stroke-profile="1.36944 1.497 1.184862 " />
        <path d="M122.78,-193.41L113.05,-201.49L109.79,-207.25L109.01,-211.56" stroke-profile="0.7804774 1.374682 1.2355 0.8044778 " />
        <path d="M119.06,-200.17L125.22,-200.04L128.46,-200.89L132.31,-202.94L138.54,-207.98" stroke-profile="1.187041 1.482967 1.499133 1.421742 0.9256719 " />
        <path d="M126.09,-197.13L128.14,-195.39L131.65,-194.48L152.84,-191.23" stroke-profile="1.194348 1.274799 1.513564 1.017196 " />
        <path d="M123.38,-193.61L129.54,-191.03" stroke-profile="0.8599034 0.9367793 " />
        <path d="M126.35,-195.39L133.56,-188.05L143.37,-181.76" stroke-profile="1.043925 1.356649 1.078724 " />
      </g>
      <g id="f8" transform="translate(-535.41 497.22)" style="--index:8; opacity:0;" class="frame">
        <path d="M13.32,-206.78L18.02,-205.93L26.36,-206.78L29.35,-209.16L30.13,-212.61" stroke-profile="1.443097 1.450106 1.405648 1.353548 0.8700203 " />
        <path d="M23.12,-206.52L25.76,-210.23L31.79,-214.20L34.71,-217.37" stroke-profile="0.7821031 0.9780049 1.348649 1.209808 " />
        <path d="M25.71,-209.76L25.76,-204.01L22.99,-197.25L21.06,-194.61L17.56,-192.95" stroke-profile="1.201121 1.358931 1.425854 1.397995 0.5644702 " />
        <path d="M26.36,-207.71L36.49,-199.84" stroke-profile="1.066035 0.7328908 " />
        <path d="M25.36,-208.17L23.05,-216.38L19.55,-223.86" stroke-profile="0.9469256 1.146379 0.9573494 " />
        <path d="M27.95,-207.59L42.25,-196.46" stroke-profile="1.431644 1.320479 " />
        <path d="M31.34,-207.45L41.32,-207.45L46.50,-208.77" stroke-profile="1.080948 1.353233 1.313669 " />
      </g>
      <g id="f9" transform="translate(-535.41 497.22)" style="--index:9; opacity:0;" class="frame">
        <path d="M-24.16,-232.67L-18.33,-233.39L-6.81,-232.40L-5.81,-233.33L-5.56,-236.91" stroke-profile="1.118097 1.435031 1.191029 0.8569245 0.5508231 " />
        <path d="M-14.76,-233.39L-16.67,-223.14L-16.82,-217.37L-15.81,-215.92" stroke-profile="1.416667 1.43475 1.223516 0.2506858 " />
        <path d="M-15.23,-230.56L-20.72,-249.48" stroke-profile="0.9737778 0.4677608 " />
        <path d="M-15.16,-238.43L-6.34,-247.70" stroke-profile="1.211667 0.6290559 " />
      </g>
      <g id="f10" transform="translate(-535.41 497.22)" style="--index:10; opacity:0;" class="frame">
        <path d="M-43.84,-210.49L-45.29,-201.03" stroke-profile="1.351349 0.711732 " />
        <path d="M-42.76,-205.86" stroke-profile="0.05819635 " />
        <path d="M-42.76,-207.59L-45.35,-208.50L-53.69,-208.17L-55.28,-208.83" stroke-profile="1.328184 1.412135 1.265801 0.5675964 " />
        <path d="M-43.84,-209.49L-35.09,-209.57L-32.50,-211.68" stroke-profile="0.9359852 1.093532 0.5176497 " />
        <path d="M-43.03,-205.86L-45.02,-193.68" stroke-profile="0.842498 0.6636674 " />
        <path d="M-42.43,-208.44L-35.95,-220.03" stroke-profile="0.95831 0.5435762 " />
        <path d="M-41.98,-211.95L-43.11,-214.39L-43.11,-216.85L-41.90,-221.22" stroke-profile="1.133366 1.148413 1.149968 0.6613501 " />
        <path d="M-40.19,-208.17L-37.08,-202.22" stroke-profile="0.5997131 0.6532596 " />
      </g>
      <g id="f11" transform="translate(-535.41 497.22)" style="--index:11; opacity:0;" class="frame">
        <path d="M-40.39,-159.46L-40.52,-155.22L-41.90,-150.71" stroke-profile="1.065857 1.121892 1.012616 " />
        <path d="M-40.97,-157.53L-34.62,-168.26" stroke-profile="0.8818969 0.4133117 " />
        <path d="M-39.86,-159.13L-41.50,-161.71L-44.04,-163.63" stroke-profile="1.133094 1.071486 0.619259 " />
        <path d="M-38.79,-158.40L-43.03,-158.59L-49.06,-157.33" stroke-profile="0.9142566 1.04821 0.8586413 " />
      </g>
    </g>
  </g>
</svg>