<?xml version="1.0" encoding="utf-8"?>

<svg width="1194" height="600" viewBox="-597 -400 1194 834" xmlns="http://www.w3.org/2000/svg">
  <style>
#t0 {
--visible:1; --timeOffset:119.9963; --speed:16; --bookmarkIndex:-1; --latched:0; --playMode:1; --masked:0; --blendMode:0; --pressureEnabled:0; 
fill:#DDDEDD; stroke-opacity:0; fill-opacity:1; stroke-width:10; stroke-linecap:round; stroke-linejoin:round;
}
@keyframes t0 { 0% { opacity: 1; } 4.166667% { opacity: 0; } }
#t0 .frame { animation:t0 1.5s calc(var(--index) * 0.0625s) steps(1) infinite; }

#t1 {
--visible:1; --timeOffset:266.9294; --speed:4; --bookmarkIndex:-1; --latched:0; --playMode:0; --masked:0; --blendMode:0; --pressureEnabled:0; 
fill:#CBAC89; stroke-opacity:0; fill-opacity:1; stroke-width:10; stroke-linecap:round; stroke-linejoin:round;
}
@keyframes t1 { 0% { opacity: 1; } 8.333333% { opacity: 0; } }
#t1 .frame { animation:t1 3s calc(var(--index) * 0.25s) steps(1) infinite; }

#t2 {
--visible:1; --timeOffset:266.9294; --speed:4; --bookmarkIndex:-1; --latched:0; --playMode:0; --masked:0; --blendMode:0; --pressureEnabled:0; 
fill:#8BD98F; stroke-opacity:0; fill-opacity:1; stroke-width:10; stroke-linecap:round; stroke-linejoin:round;
}
@keyframes t2 { 0% { opacity: 1; } 8.333333% { opacity: 0; } }
#t2 .frame { animation:t2 3s calc(var(--index) * 0.25s) steps(1) infinite; }

#t3 {
--visible:1; --timeOffset:21.33335; --speed:12; --bookmarkIndex:-1; --latched:0; --playMode:1; --masked:0; --blendMode:0; --pressureEnabled:0; 
stroke:#E44F50; stroke-opacity:1; fill-opacity:0; stroke-width:29.40059; stroke-linecap:round; stroke-linejoin:round;
}
@keyframes t3 { 0% { opacity: 1; } 6.25% { opacity: 0; } }
#t3 .frame { animation:t3 1.333333s calc(var(--index) * 0.08333334s) steps(1) infinite; }

</style>
  <g id="w0" transform="translate(222.00 125.00) scale(1.00 1.00) rotate(-357.45)" class="weave">
    <g id="t0" transform="translate(358.21 -10.89) scale(1.56 1.56) rotate(-339.19)" class="thread">
      <g id="f0" transform="translate(-133.04 188.15)" style="--index:0; opacity:1;" class="frame">
        <path transform="translate(-294.21 -150.55)" d="M0.00,0.00L-4.02,1.18L-5.01,1.87L-5.89,2.92L-7.34,6.12L-8.03,11.89L-7.69,15.76L-6.19,20.87L-4.92,22.49L-1.98,24.40L1.01,25.12L2.95,24.95L6.24,23.98L9.10,21.55L10.24,20.03L11.17,17.77L12.12,11.53L11.89,8.03L11.03,5.10L10.34,4.11L7.76,2.09L6.45,1.68L5.03,0.91L2.41,0.09L-0.88,1.05L-2.86,2.43L-5.75,8.83L-6.09,11.71" />
        <path transform="translate(-271.28 -196.51)" d="M0.00,0.00L-2.82,1.02L-4.22,1.97L-4.56,2.78L-5.02,3.39L-5.35,5.07L-5.40,7.16L-4.85,10.58L-3.48,14.34L-2.39,15.95L-1.65,16.62L0.10,17.48L1.11,17.67L4.81,17.52L5.75,17.18L6.82,17.04L10.38,15.81L11.18,15.26L11.92,15.06L13.93,13.70L15.12,11.14L15.32,10.13L15.65,9.32L15.71,7.24L14.47,2.81L12.57,-0.01L11.02,-1.01L6.91,-2.33L4.09,-2.18L3.15,-1.83L-0.67,0.74L-3.20,3.92L-3.27,4.25" />
        <path transform="translate(-131.25 -254.21)" d="M0.00,0.00L-2.55,0.55L-2.68,1.23L-2.00,2.23L-1.53,2.50L-0.86,2.63L-0.12,2.42L0.28,2.15L0.55,1.68L0.68,1.00L0.40,-0.27L-0.55,-1.68L-0.88,-1.74L-1.09,-1.61L-1.28,-0.60L-1.15,-0.40L-1.21,-0.06L-1.07,0.14L-0.67,-0.13L-0.61,-0.47L-0.34,-0.94L-0.21,-1.61" />
        <path d="M-289.74,-149.56L-292.27,-150.53L-294.38,-150.27L-299.38,-146.35L-300.67,-143.10L-300.61,-137.07L-299.43,-134.10L-296.53,-132.62L-291.95,-133.33L-288.73,-137.36" />
      </g>
      <g id="f1" transform="translate(-133.04 188.15)" style="--index:1; opacity:0;" class="frame">
        <path transform="translate(-287.53 -145.36)" d="M0.00,0.00L-6.22,1.82L-9.01,5.82L-9.32,7.50L-10.09,8.92L-10.70,12.27L-10.63,13.84L-9.35,18.23L-8.19,19.48L-5.13,21.76L-1.78,22.36L1.51,21.40L4.48,19.33L6.65,15.92L7.32,14.13L8.10,5.96L7.03,2.31L6.45,1.68L4.56,0.65L3.25,0.24L0.47,0.26L-3.55,1.44L-6.20,4.60L-6.61,5.91L-7.38,7.33L-7.79,8.64L-7.47,9.74" />
        <path transform="translate(-268.73 -197.07)" d="M0.00,0.00L-2.42,0.75L-5.23,2.65L-5.90,3.40L-6.69,4.81L-7.35,7.30L-7.61,9.52L-7.33,10.80L-7.53,11.81L-6.50,14.63L-5.42,16.23L-4.67,16.90L-1.51,18.56L0.92,18.68L1.99,18.54L4.21,17.93L5.21,17.25L6.35,16.77L9.36,14.74L12.63,10.48L13.30,8.86L13.29,7.99L13.49,6.98L13.28,6.24L13.28,5.37L12.86,3.89L11.24,1.48L10.49,0.81L7.93,-0.38L2.42,-0.75L-0.20,0.14L-1.00,0.68L-1.74,0.88L-3.95,2.38L-4.02,2.71L-5.02,4.26L-5.35,5.07L-5.34,5.95" />
        <path d="M-283.46,-143.24L-284.60,-144.97L-288.68,-144.99L-294.54,-140.68L-295.83,-137.26L-295.47,-132.66L-293.42,-130.26L-289.50,-129.70L-285.69,-132.15" />
        <path d="M-264.20,-195.10L-265.86,-196.63L-269.58,-196.49L-271.15,-195.89L-273.19,-193.51L-273.58,-189.94L-272.82,-188.73L-271.35,-187.37L-268.84,-186.76" />
      </g>
      <g id="f2" transform="translate(-133.04 188.15)" style="--index:2; opacity:0;" class="frame">
        <path transform="translate(-283.83 -140.89)" d="M0.00,0.00L-4.45,-0.28L-6.64,0.36L-8.41,2.47L-10.00,6.51L-9.88,9.65L-8.91,12.94L-6.85,15.91L-4.01,17.46L0.33,17.37L3.82,14.37L5.52,10.69L6.38,6.86L6.08,1.79L5.55,-0.04L4.97,-0.66L4.02,-1.18L1.87,-1.74L-1.27,-1.61L-3.83,-0.86L-5.70,0.88L-7.25,3.71L-7.55,5.39L-7.49,6.96" />
        <path transform="translate(-267.44 -193.85)" d="M0.00,0.00L-2.82,1.02L-3.42,1.43L-4.09,2.18L-4.69,3.46L-5.14,6.69L-4.58,10.11L-3.90,11.99L-2.81,13.60L-1.87,14.13L1.56,14.44L2.10,14.37L4.18,13.56L9.33,9.49L10.60,7.47L11.19,5.31L11.05,3.36L10.09,1.08L9.41,0.08L7.66,-0.78L3.76,-1.37L-0.47,-0.27L-2.68,1.23L-3.35,1.97L-3.61,3.32" />
      </g>
      <g id="f3" transform="translate(-133.04 188.15)" style="--index:3; opacity:0;" class="frame">
        <path transform="translate(-278.54 -140.45)" d="M0.00,0.00L-4.82,-0.18L-5.91,0.15L-7.89,1.52L-8.67,2.94L-9.68,7.60L-9.62,9.17L-8.22,13.93L-6.01,16.06L-3.39,16.88L-2.18,16.92L0.37,16.17L1.73,15.38L3.65,12.43L4.31,10.65L4.92,7.29L4.86,5.72L3.78,2.07L2.73,1.18L1.31,0.41L0.00,0.00L-2.77,0.02L-4.97,0.66L-5.96,1.35L-6.47,2.30L-7.29,4.92L-7.34,6.12" />
        <path transform="translate(-127.51 -23.53)" d="M0.00,0.00L0.19,0.07" />
        <path transform="translate(-265.76 -194.39)" d="M0.00,0.00L-3.36,0.22L-5.17,1.44L-6.10,2.66L-6.43,3.47L-6.89,6.70L-6.74,7.77L-5.58,10.79L-3.69,13.60L-1.66,14.87L0.56,15.12L3.11,14.57L5.12,13.21L6.92,11.12L8.25,8.76L8.90,3.65L8.08,1.57L6.86,-0.24L5.17,-0.57L0.27,0.40L-0.87,0.88L-2.68,2.10L-4.48,4.19L-5.08,5.48L-5.01,6.01" />
        <path d="M-259.30,-192.28L-260.26,-194.19L-263.16,-195.67L-267.24,-195.69L-268.63,-194.93L-271.12,-190.57L-271.19,-187.73L-267.48,-183.62" />
      </g>
      <g id="f4" transform="translate(-133.04 188.15)" style="--index:4; opacity:0;" class="frame">
        <path transform="translate(-276.01 -137.22)" d="M0.00,0.00L-3.93,-1.23L-6.86,-0.37L-7.85,0.32L-8.37,1.26L-9.18,3.89L-8.95,7.39L-7.99,10.68L-5.77,12.81L-2.94,14.36L-0.16,14.34L2.03,13.70L3.39,12.90L4.27,11.85L5.61,8.28L5.89,3.83L5.14,1.27L3.03,-0.49L0.04,-1.20L-1.16,-1.25L-4.45,-0.28L-4.97,0.66L-5.85,1.72L-6.37,2.66L-6.41,3.87L-6.93,4.81L-7.02,7.22L-6.37,9.41" />
        <path transform="translate(-265.71 -197.35)" d="M0.00,0.00L-2.61,1.76L-3.75,3.11L-4.28,4.06L-4.95,4.80L-5.34,5.95L-5.88,6.89L-6.27,8.91L-5.85,12.14L-5.37,13.28L-3.60,15.89L-1.72,16.95L0.44,17.54L2.79,17.13L3.99,16.31L5.13,15.84L7.34,14.34L10.48,9.89L10.87,8.74L10.94,7.53L9.83,3.30L8.89,1.90L8.08,1.57L4.45,1.39L1.42,1.67L-0.86,2.63L-2.87,3.98L-3.20,4.79L-3.67,5.40L-3.80,6.07" />
      </g>
      <g id="f5" transform="translate(-133.04 188.15)" style="--index:5; opacity:0;" class="frame">
        <path transform="translate(-273.13 -136.88)" d="M0.00,0.00L-3.87,0.34L-5.70,0.88L-6.32,1.46L-6.73,2.77L-7.25,3.71L-7.66,5.03L-7.70,6.23L-6.52,10.25L-2.53,13.05L-1.21,13.46L1.93,13.33L3.39,12.90L4.38,12.22L6.29,9.27L6.60,7.60L6.73,3.98L5.55,-0.04L3.44,-1.80L0.45,-2.52L-0.75,-2.56L-2.94,-1.92L-3.93,-1.23L-4.71,0.19L-5.83,4.49L-5.96,8.10L-5.43,9.93" />
        <path transform="translate(-270.12 -192.62)" d="M0.00,0.00L3.88,-2.91L79.40,-56.53L83.96,-58.44L85.04,-58.58L85.71,-58.45L86.59,-58.46L87.66,-57.72L88.61,-56.32L88.76,-54.37L88.50,-52.15L87.45,-48.51L87.45,-47.64L87.13,-45.96L86.80,-45.15L86.67,-44.47L86.74,-43.94L86.47,-43.46L86.21,-42.12L86.01,-41.98L85.81,-40.97L85.55,-40.50L85.48,-40.16L83.48,-37.06L82.88,-36.65L81.28,-34.69L80.47,-34.15L79.81,-33.41L79.00,-32.87L77.67,-31.38L76.86,-30.84L75.99,-29.96L14.71,9.66L13.57,10.14L11.56,11.50L10.42,11.97L9.62,12.52L8.88,12.72L8.28,13.13L7.00,13.40L6.60,13.68L6.06,13.75L5.66,14.02L5.12,14.09L3.78,13.83L3.31,13.56L3.03,13.16L1.48,12.16L1.21,11.76L0.60,11.29L0.20,10.69L-0.41,10.22L-1.63,8.41L-1.84,7.67L-1.71,7.00L-1.91,6.26L-1.78,5.59L-1.52,5.12L-1.39,4.45L-0.52,2.69L0.15,1.95" />
      </g>
      <g id="f6" transform="translate(-162.23 77.41)" style="--index:6; opacity:0;" class="frame">
        <path transform="translate(-239.96 -26.11)" d="M0.00,0.00L-4.13,0.81L-5.74,2.08L-6.26,3.03L-6.67,4.34L-6.71,5.54L-7.12,6.85L-7.06,8.42L-5.88,12.45L-5.19,13.44L-3.09,15.20L-1.78,15.61L-0.21,15.55L1.99,14.90L2.98,14.22L4.53,11.38L5.48,5.14L5.42,3.57L5.09,2.48L5.14,1.27L4.82,0.18L3.40,-0.60L1.36,-0.79L-0.84,-0.15L-2.82,1.22L-4.58,3.33L-6.13,6.17L-5.92,6.90L-6.07,7.74L-5.75,8.83" />
        <path transform="translate(-150.71 -150.98)" d="M0.00,0.00L-2.42,0.75L-31.73,24.05L-32.46,25.13L-33.33,26.01L-34.59,28.91L-33.60,37.31L-30.24,47.91L-28.00,51.66L-27.12,52.53L-24.83,53.32L-23.28,53.45L-21.67,53.24L-4.57,46.08L8.95,36.65L13.61,28.83L14.80,25.39L15.32,20.95L14.62,16.45L14.14,15.31L13.86,14.04L12.57,10.82L10.40,7.60L8.50,5.66L7.42,4.93L6.54,4.06L2.57,2.07L1.56,1.87L-1.14,0.48L-1.68,-0.33" />
      </g>
      <g id="f7" transform="translate(-162.23 77.41)" style="--index:7; opacity:0;" class="frame">
        <path transform="translate(-238.08 -27.86)" d="M0.00,0.00L-4.49,0.92L-5.48,1.61L-6.52,3.50L-7.23,6.49L-7.21,9.26L-6.03,13.28L-4.98,14.17L-4.03,14.68L-2.72,15.09L0.05,15.07L1.52,14.64L3.75,12.80L5.05,10.43L5.35,8.76L5.22,5.62L4.58,3.42L4.00,2.80L2.11,1.76L-0.30,1.68L-2.50,2.32L-4.48,3.70L-6.03,6.53L-6.37,9.41L-6.16,10.14L-5.58,10.77" />
        <path transform="translate(-148.04 -153.95)" d="M0.00,0.00L-2.69,0.35L-5.91,1.65L-11.40,5.65L-21.00,18.27L-22.79,23.86L-22.90,27.16L-22.62,28.44L-19.30,33.79L-18.08,34.73L-7.06,46.29L-6.11,46.83L-3.35,47.89L-2.61,47.68L-1.74,47.68L1.28,46.51L13.46,37.70L18.13,31.63L19.06,28.66L19.58,25.10L19.14,19.25L18.31,16.30L14.58,10.34L13.43,9.06L12.22,8.13L11.07,6.86L8.23,5.26L-0.79,3.16L-3.01,2.91L-3.82,2.58L-5.16,2.32" />
        <path d="M-234.86,-25.99L-240.38,-26.66L-243.66,-24.22L-244.60,-21.17L-244.48,-17.98L-243.15,-15.73L-241.32,-14.38L-238.66,-14.31L-236.91,-15.08L-234.39,-18.73L-234.16,-21.93L-235.13,-23.85" />
      </g>
      <g id="f8" transform="translate(-162.23 77.41)" style="--index:8; opacity:0;" class="frame">
        <path transform="translate(-238.71 -27.28)" d="M0.00,0.00L-3.81,1.91L-4.07,2.38L-4.69,2.96L-6.24,5.80L-6.59,8.68L-5.62,11.97L-4.57,12.86L-3.62,13.37L-2.42,13.42L-1.11,13.83L0.10,13.87L1.19,13.55L2.40,13.59L3.49,13.27L4.48,12.58L5.78,10.22L6.12,7.34L5.16,4.05L4.47,3.06L3.42,2.17L2.47,1.66L-0.52,0.95L-1.61,1.27L-2.39,2.69" />
        <path transform="translate(-145.01 -153.37)" d="M0.00,0.00L-2.56,-0.32L-6.85,1.12L-11.41,3.90L-13.48,5.59L-15.48,8.70L-15.88,9.84L-15.22,19.05L-5.44,36.13L-2.86,39.08L-1.65,40.01L-0.50,41.28L0.45,41.81L1.59,42.21L2.54,42.74L4.55,43.13L5.09,43.06L5.43,43.13L5.63,42.99L5.77,43.19L7.11,43.46L9.86,42.77L13.08,40.60L15.35,37.89L18.87,30.55L19.66,27.38L19.84,23.75L18.25,16.63L14.24,9.40L11.94,6.85L7.76,4.12L1.42,1.67L-4.91,0.10" />
      </g>
      <g id="f9" transform="translate(-162.23 77.41)" style="--index:9; opacity:0;" class="frame">
        <path transform="translate(-241.56 -15.32)" d="M0.00,0.00L-1.80,-3.44L-1.55,-3.91L-1.76,-4.65L-1.50,-5.12L-1.82,-6.22L-1.39,-11.51L-0.87,-12.45L-0.68,-14.49L-1.00,-15.59L-0.67,-21.25L-0.99,-22.34L-1.01,-25.12L-0.86,-25.96L-1.18,-27.05L-0.69,-30.77L-0.17,-31.72L-0.02,-32.56L1.02,-34.45L2.84,-34.98L2.95,-34.62L4.11,-33.37L10.97,-9.97L10.82,-9.13L11.36,-7.30L11.10,-6.83L11.32,-6.10L11.06,-5.63L10.91,-4.79L9.87,-2.90L8.62,-1.74L8.37,-1.26L7.12,-0.10L3.10,1.08L2.62,0.82L1.89,1.03L1.78,0.67" />
        <path transform="translate(-146.41 -151.54)" d="M0.00,0.00L-2.70,-1.40L-3.77,-1.26L-4.78,-0.58L-5.44,0.17L-6.50,3.80L-6.94,8.78L-5.63,14.62L4.02,32.38L8.62,37.46L10.38,38.33L11.05,38.46L11.45,38.19L11.79,38.25L14.00,36.76L22.67,26.22L23.21,25.28L23.66,22.92L22.47,13.79L18.80,7.49L14.81,3.75L8.00,0.15L1.74,-1.76L0.53,-1.82L-1.69,-1.20L-3.50,0.02L-4.23,1.10" />
      </g>
      <g id="f10" transform="translate(-162.23 77.41)" style="--index:10; opacity:0;" class="frame">
        <path transform="translate(-241.80 -35.10)" d="M0.00,0.00L-7.66,-24.76L-8.17,-30.56L-8.60,-32.02L-8.19,-33.34L-8.01,-38.15L-7.39,-38.73L-7.24,-39.57L-6.61,-40.15L-4.79,-40.69L-3.84,-40.17L-2.21,-38.66L-0.73,-36.32L0.33,-35.44L1.81,-33.09L2.24,-31.63L3.03,-30.27L9.52,6.74L9.48,7.94L9.69,8.67L9.24,11.19L8.98,11.66L8.83,12.50L8.20,13.08L7.95,13.55L7.21,13.77L6.96,14.24" />
        <path transform="translate(-143.92 -151.76)" d="M0.00,0.00L-2.37,-2.20L-2.77,-2.81L-3.11,-2.87L-3.58,-3.14L-4.18,-2.73L-4.52,-1.92L-4.71,-0.91L-1.64,19.24L1.64,27.55L8.08,36.66L10.44,37.99L11.59,38.39L14.75,38.30L15.89,37.82L18.90,35.79L22.94,25.75L23.44,19.56L22.48,15.53L19.22,9.84L14.28,5.56L8.83,3.11L3.71,2.47L1.36,2.88L-2.19,4.11L-3.00,4.66" />
        <path d="M-144.00,-139.38L-146.05,-141.78L-147.86,-151.65L-145.64,-154.04L-142.30,-154.88L-133.04,-149.39L-128.82,-145.83L-126.89,-142.00L-124.99,-134.27" />
        <path d="M-152.62,43.57L-152.67,43.52" />
      </g>
      <g id="f11" transform="translate(-162.23 77.41)" style="--index:11; opacity:0;" class="frame">
        <path transform="translate(-242.88 -78.07)" d="M0.00,0.00L-4.15,-1.96L-5.61,-1.53L-6.24,-0.95L-8.65,5.71L-8.76,12.10L-7.26,17.22L-5.05,19.35L-3.74,19.76L-2.17,19.70L1.13,18.73L2.48,17.94L3.73,16.78L6.62,10.37L6.79,5.55L6.15,3.36L4.88,1.75L2.52,0.45L0.11,0.37L-3.91,1.55L-5.53,2.81L-6.56,4.70L-6.86,6.38" />
        <path transform="translate(-136.72 -151.06)" d="M0.00,0.00L-3.51,-1.73L-5.73,-1.98L-7.94,-1.37L-8.95,-0.69L-9.81,0.19L-10.98,8.00L-8.43,19.14L-4.55,26.18L-3.13,27.85L2.00,31.12L3.82,31.64L8.92,31.41L14.42,28.29L16.22,25.32L17.60,20.87L17.79,18.12L17.37,15.76L15.80,12.14L12.35,7.46L2.70,1.40L-1.61,0.21L-4.23,0.23L-4.97,0.43L-5.85,0.44L-6.58,0.64L-7.59,1.32" />
        <path d="M-249.02,-66.07L-249.81,-67.99L-249.60,-71.72L-248.36,-76.39L-246.68,-78.76L-242.79,-79.26L-239.54,-77.62L-238.63,-72.51L-239.34,-68.04" />
      </g>
      <g id="f12" transform="translate(-162.23 77.41)" style="--index:12; opacity:0;" class="frame">
        <path transform="translate(-285.93 -117.86)" d="M0.00,0.00L-0.80,5.40L-0.59,6.13L-0.74,6.97L-0.20,8.79L0.38,9.42L0.85,9.68L1.22,9.57L1.33,9.94L3.15,9.40L3.67,8.45L3.56,8.09L3.71,7.25L3.61,6.88L3.87,6.41L2.90,3.12L2.43,2.86L2.21,2.13L1.74,1.87L1.63,1.51L0.90,1.72" />
        <path transform="translate(-239.68 -76.63)" d="M0.00,0.00L-3.87,0.34L-7.89,1.52L-9.40,3.15L-10.17,4.57L-11.06,5.63L-11.71,10.18L-10.95,12.74L-10.16,14.10L-9.00,15.35L-5.32,17.05L-1.60,17.55L3.51,16.04L6.16,12.89L7.50,9.32L7.80,7.64L7.67,4.50L7.03,2.31L5.98,1.42L0.62,-0.58L-2.88,-0.35L-5.81,0.51L-7.16,1.31L-8.04,2.36L-8.82,3.78L-9.70,4.83L-9.79,7.24" />
        <path transform="translate(-135.79 -151.40)" d="M0.00,0.00L-2.89,-0.39L-3.70,-0.72L-5.99,-0.64L-7.39,0.31L-8.25,2.94L-8.56,7.24L-7.17,15.37L-4.04,22.61L-1.59,26.23L1.85,29.17L7.04,31.22L9.86,31.07L11.54,30.52L15.42,27.61L17.15,24.10L18.79,16.56L18.78,14.82L18.29,11.93L17.33,9.65L14.83,6.37L13.48,5.23L12.06,4.43L10.71,3.30L9.09,2.64L7.54,1.64L1.75,-0.01L-0.34,-0.07L-3.29,0.76L-4.29,1.44L-5.43,1.91L-6.44,2.59L-7.77,4.08L-8.31,5.02" />
      </g>
      <g id="f13" transform="translate(-133.04 188.15)" style="--index:13; opacity:0;" class="frame">
        <path transform="translate(-314.99 -225.46)" d="M0.00,0.00L-1.83,7.29L-1.62,8.02L-1.77,8.86L-1.23,10.69L-0.76,10.94L-0.18,11.57L0.18,11.46L1.02,11.61L2.85,11.08L4.10,9.92L4.25,9.08L5.03,7.66L5.18,6.82L4.96,6.09L5.22,5.62L4.68,3.79L4.10,3.16L4.00,2.80L3.05,2.28L2.21,2.13L0.75,2.56L0.28,2.30L-0.82,2.62L-1.08,3.10" />
        <path transform="translate(-263.37 -186.20)" d="M0.00,0.00L-4.67,-1.01L-7.44,-0.99L-10.00,-0.24L-10.62,0.34L-12.17,3.17L-12.58,4.48L-12.93,7.37L-11.75,11.39L-10.16,14.10L-8.74,14.87L-5.75,15.59L-2.61,15.46L0.68,14.49L2.81,12.28L3.58,10.86L4.29,7.87L4.28,5.10L3.95,4.00L3.27,3.01L2.21,2.13L-0.88,1.05L-4.39,1.29L-7.31,2.14L-8.30,2.83L-9.18,3.89L-10.82,9.13L-10.87,10.33" />
        <path transform="translate(-165.15 -257.64)" d="M0.00,0.00L-3.24,-2.20L-4.92,-2.53L-5.93,-1.85L-6.39,-1.24L-6.65,0.11L-5.93,8.98L-2.44,18.91L0.95,23.93L3.65,26.20L5.27,26.86L8.29,27.45L13.07,27.15L15.55,26.06L17.96,24.43L19.56,21.60L20.02,20.12L19.99,14.88L18.48,10.04L15.29,4.89L10.29,0.95L5.98,-1.11L0.99,-2.43L-4.52,-2.80L-5.80,-2.52L-7.40,-1.44L-7.66,-0.09L-7.32,0.85" />
        <path d="M-161.43,-257.85L-163.46,-259.90L-168.27,-260.42L-171.10,-255.52L-170.82,-253.05L-167.98,-248.37L-164.72,-246.72L-161.39,-247.74" />
        <path d="M-261.22,-182.44L-261.83,-184.37L-263.48,-185.90L-271.46,-185.77L-274.34,-182.28L-275.61,-178.33L-274.92,-174.27L-271.26,-171.40L-266.85,-172.11L-264.77,-173.43L-261.93,-177.80" />
      </g>
      <g id="f14" transform="translate(-133.04 188.15)" style="--index:14; opacity:0;" class="frame">
        <path transform="translate(-312.20 -222.71)" d="M0.00,0.00L-3.81,1.91L-4.32,2.86L-4.73,4.17L-5.25,5.11L-5.81,7.26L-6.01,9.31L-5.79,10.04L-5.84,11.24L-5.62,11.97L-4.46,13.22L-3.99,13.48L-2.31,13.78L-0.48,13.25L1.13,11.98L2.01,10.93L3.05,9.03L3.61,6.88L4.12,5.94L3.91,5.21L3.95,4.00L3.20,1.44L2.36,1.29L1.89,1.03L1.05,0.88L-2.97,2.06L-4.22,3.22" />
        <path transform="translate(-258.32 -182.52)" d="M0.00,0.00L-4.15,-1.96L-5.83,-2.26L-6.92,-1.94L-8.13,-1.98L-9.22,-1.66L-10.58,-0.87L-12.34,1.24L-13.12,2.66L-13.53,3.97L-13.45,8.31L-13.02,9.77L-12.33,10.76L-7.71,12.98L-6.03,13.28L-4.57,12.86L-3.00,12.79L-0.07,11.93L2.06,9.72L3.13,6.63L3.12,3.85L2.47,1.66L1.42,0.78L0.11,0.37L-1.31,-0.41L-5.50,-1.17L-7.07,-1.10L-9.27,-0.46L-10.26,0.23L-10.77,1.17L-11.33,3.32L-11.38,4.53L-11.06,5.63" />
        <path transform="translate(-160.37 -257.06)" d="M0.00,0.00L-3.78,-2.13L-4.45,-2.26L-5.86,-2.18L-6.87,-1.51L-7.73,0.25L-7.79,1.46L-5.43,13.61L0.95,23.93L6.08,28.07L7.83,28.93L12.88,29.91L14.63,29.90L18.79,28.26L21.00,26.77L22.66,23.60L22.21,15.13L20.91,11.91L17.66,7.09L6.38,-1.38L-2.65,-4.35L-3.86,-4.41L-6.01,-4.13L-8.02,-2.78L-9.82,-0.68L-10.88,2.08L-10.85,6.45L-10.44,7.93" />
        <path d="M-156.52,-254.85L-156.63,-257.51L-157.55,-258.36L-162.96,-260.63L-166.86,-260.48L-169.28,-258.97L-170.42,-256.44L-170.69,-249.68L-167.07,-243.26L-163.20,-239.51L-158.00,-238.11L-152.14,-238.17" />
        <path d="M-255.78,-179.46L-256.21,-181.39L-257.51,-182.76L-262.90,-184.50L-266.43,-184.01L-270.24,-181.73L-271.55,-179.02L-271.42,-175.65L-269.93,-173.76L-266.12,-171.60L-262.74,-171.38L-260.30,-172.54L-258.26,-174.75L-257.13,-177.63" />
      </g>
      <g id="f15" transform="translate(-133.04 188.15)" style="--index:15; opacity:0;" class="frame">
        <path transform="translate(-310.96 -217.11)" d="M0.00,0.00L-4.24,0.45L-4.97,0.66L-5.48,1.61L-6.99,3.24L-7.51,4.19L-7.55,5.39L-8.52,8.85L-8.57,10.06L-7.71,12.98L-7.02,13.97L-5.60,14.75L-4.29,15.16L-3.56,14.94L-2.72,15.09L-0.89,14.56L1.09,13.18L1.97,12.13L2.38,10.82L2.90,9.87L3.46,7.72L3.65,5.68L3.01,3.49L2.43,2.86L1.48,2.34L0.90,1.72L-0.04,1.20L-1.72,0.90L-2.19,0.64L-4.75,1.39L-5.01,1.87L-5.16,2.71L-5.68,3.65" />
        <path transform="translate(-252.80 -178.58)" d="M0.00,0.00L-3.83,-0.86L-6.24,-0.95L-7.70,-0.52L-8.32,0.06L-8.84,1.00L-9.40,3.15L-8.22,7.18L-6.37,9.41L-5.32,10.30L0.29,11.83L1.50,11.87L2.59,11.55L3.58,10.86L4.87,8.50L5.22,5.62L4.36,2.69L3.31,1.81L2.00,1.40L0.58,0.62L-2.77,0.02L-4.71,0.19L-8.37,1.26L-9.40,3.15L-9.49,5.56L-9.17,6.66" />
        <path transform="translate(-156.28 -258.36)" d="M0.00,0.00L-2.96,-0.05L-3.90,0.29L-5.30,1.24L-5.77,1.85L-6.36,4.00L-6.47,8.17L-0.75,21.85L3.59,27.41L8.99,31.95L14.59,34.60L17.95,35.26L20.98,34.97L22.45,34.56L27.41,31.50L28.14,30.42L28.54,29.28L28.45,24.37L26.60,19.48L22.87,14.39L7.90,6.07L-0.12,3.29L-1.66,3.17L-2.81,2.77L-4.89,2.72L-5.63,2.92L-6.63,3.60L-7.10,4.21L-7.23,4.88L-6.89,5.82" />
        <path d="M-250.12,-175.42L-250.93,-177.87L-254.18,-179.34L-255.95,-179.28L-259.58,-176.83L-261.57,-173.20L-260.76,-170.57L-258.00,-168.19L-254.77,-167.26L-250.37,-168.14" />
        <path d="M-309.44,-213.03L-312.60,-216.81L-315.77,-216.15L-317.35,-211.12L-316.51,-207.78" />
      </g>
      <g id="f16" transform="translate(-133.04 188.15)" style="--index:16; opacity:0;" class="frame">
        <path transform="translate(-311.45 -213.39)" d="M0.00,0.00L-4.09,-0.39L-5.55,0.04L-6.58,1.93L-7.70,6.23L-7.64,7.80L-7.99,10.68L-6.70,15.07L-6.12,15.69L-5.65,15.95L-4.33,16.36L0.05,15.07L0.94,14.02L2.29,13.23L3.54,12.07L4.31,10.65L5.20,9.59L5.71,8.65L6.12,7.34L6.64,6.39L7.20,4.24L6.24,0.95L5.55,-0.04L4.60,-0.56L3.55,-1.44L2.60,-1.95L-1.48,-2.34L-3.68,-1.70L-4.30,-1.12L-5.85,1.72" />
        <path transform="translate(-245.41 -169.63)" d="M0.00,0.00L-3.78,-2.07L-4.62,-2.22L-5.09,-2.48L-7.65,-1.73L-7.85,0.32L-6.78,3.97L-4.67,5.74L-3.25,6.51L-1.94,6.92L0.47,7.01L3.03,6.26L3.65,5.68L3.80,4.84L3.59,4.11L3.74,3.27L3.31,1.81L-0.47,-0.26L-3.10,-1.08L-4.30,-1.12L-5.76,-0.69L-5.91,0.15L-5.48,1.61L-4.90,2.23" />
        <path transform="translate(-153.78 -245.13)" d="M0.00,0.00L-1.26,2.90L-1.05,3.64L-1.05,4.51L-0.77,5.79L1.33,9.34L5.93,13.55L18.20,20.47L20.36,21.06L22.11,21.92L32.41,23.74L33.35,23.40L34.42,23.26L35.23,22.72L36.17,22.38L39.78,19.94L44.99,13.79L45.59,12.51L46.05,11.90L46.65,10.62L46.78,9.95L47.25,9.34L47.77,6.65L47.70,6.11L48.09,4.09L47.39,-0.41L46.99,-1.01L46.71,-2.29L45.08,-4.70L43.53,-5.70L43.19,-5.77L42.72,-6.03L42.18,-5.96L41.71,-6.23L41.51,-6.09L41.18,-6.16L40.97,-6.02L40.44,-5.95L39.43,-5.27L37.70,-2.64L37.30,-2.37L36.36,-1.15L35.76,-0.75L35.29,-0.14L32.48,1.76L31.01,2.17L29.26,2.18L28.58,2.05L27.71,2.06L26.90,1.73L26.23,1.59L25.62,1.13L24.81,0.80L24.07,0.13L20.70,-1.40L13.37,-2.30L12.29,-2.16L11.28,-2.35L10.54,-2.15L5.77,-1.85L3.22,-1.30L0.41,0.60L0.08,1.41L-0.59,2.15L-0.92,2.96L-1.38,6.19L-0.69,8.95L0.94,11.36L2.16,12.29" />
      </g>
      <g id="f17" transform="translate(-133.04 188.15)" style="--index:17; opacity:0;" class="frame">
        <path transform="translate(-309.86 -210.68)" d="M0.00,0.00L-3.98,-0.02L-5.81,0.51L-7.36,3.35L-8.48,7.65L-8.41,9.22L-8.72,10.90L-8.65,12.47L-7.15,17.58L-6.47,18.57L-3.63,20.12L-0.75,20.47L1.45,19.83L3.79,18.35L5.56,16.24L7.78,11.62L8.08,9.94L8.01,8.37L8.42,7.06L8.36,5.49L7.50,2.56L3.29,-0.97L2.34,-1.48L0.30,-1.68L-2.62,-0.82L-4.86,1.03" />
        <path transform="translate(-240.61 -165.47)" d="M0.00,0.00L-3.83,-0.86L-4.92,-0.54L-4.82,-0.18L-5.12,1.50L-4.15,4.79L-3.10,5.67L-2.31,7.03L-1.36,7.55L-0.31,8.43L2.68,9.14L3.78,8.82L4.40,8.24L4.55,7.40L4.34,6.67L4.49,5.83L3.95,4.00L2.32,2.50L0.90,1.72L-0.15,0.84L-2.30,0.28L-3.40,0.60L-4.02,1.18L-4.28,1.65L-4.07,2.38L-4.11,3.59L-3.57,5.42L-2.31,7.03" />
        <path transform="translate(-120.63 -244.12)" d="M0.00,0.00L2.49,-0.22L4.29,-1.44L5.16,-2.32L6.49,-4.68L7.34,-9.05L7.25,-13.08L6.98,-14.36L5.68,-17.58L2.35,-23.81L2.14,-24.55L1.87,-24.95L1.94,-25.29L1.87,-25.83L1.93,-26.16L2.20,-26.64L2.26,-26.97L2.87,-27.38L3.13,-27.85L3.53,-28.12L5.55,-28.60L6.42,-28.61L7.09,-28.48L7.97,-28.48L8.64,-28.35L11.20,-27.16L13.57,-24.95L14.25,-23.95L14.99,-23.28L16.35,-21.27L16.69,-20.33L17.37,-19.33L17.84,-18.19L18.39,-17.39L18.73,-16.45L19.68,-15.04L19.88,-14.30L20.29,-13.70L20.63,-12.76L24.84,-6.53L25.59,-4.12L25.60,-3.24L25.07,-0.55L22.94,3.23L20.47,6.07L19.87,6.47L19.40,7.08L15.99,9.39L15.25,9.59L14.38,9.60L13.64,9.80L11.35,9.88L10.68,9.75L9.94,9.96L7.25,9.44L6.78,9.17L6.24,9.24L5.57,9.11L5.09,8.84L4.76,8.78L4.29,8.51L4.15,8.31L3.68,8.05L3.54,7.85L3.07,7.58L1.71,5.57L1.64,5.03L1.71,4.70L1.64,4.16L1.70,3.82L1.63,3.28L1.76,2.61L1.69,2.07L1.76,1.74L2.02,1.27L1.95,0.73L2.15,0.59L2.42,0.12L2.49,-0.22L2.69,-0.35L2.75,-0.69L2.95,-0.82L3.02,-1.16L3.22,-1.30L3.28,-1.63L3.55,-2.10L3.68,-2.78L4.68,-5.20" />
        <path d="M-238.98,-162.90L-241.79,-166.70L-243.21,-166.64L-244.89,-164.27L-244.76,-160.73L-240.56,-157.70L-238.60,-157.60L-237.56,-158.35" />
      </g>
      <g id="f18" transform="translate(-175.55 37.38)" style="--index:18; opacity:0;" class="frame">
        <path transform="translate(-270.30 -55.08)" d="M0.00,0.00L-3.76,0.71L-4.54,2.13L-5.36,4.75L-5.29,6.32L-6.09,11.71L-5.73,18.36L-4.34,23.11L-3.18,24.36L-1.76,25.14L-1.40,25.03L-0.56,25.18L3.47,24.00L4.09,23.42L4.82,23.21L5.08,22.73L5.70,22.15L6.07,22.05L6.59,21.10L6.95,20.99L7.98,19.10L7.77,18.37L8.29,17.42L8.44,16.59L8.96,15.64L9.32,15.53L9.21,15.17L9.58,15.06L9.84,14.59L10.20,14.48L10.46,14.01L11.19,13.79L11.45,13.32L11.82,13.21L12.08,12.74L12.44,12.63L13.06,12.05L13.32,11.58L13.69,11.47L14.31,10.89L15.86,8.05L15.76,7.69L16.27,6.74L15.41,3.82L14.47,3.30L13.31,2.05L10.47,0.50L9.89,-0.12L6.58,-1.93L2.50,-2.32L-2.26,-0.93L-2.52,-0.45" />
        <path transform="translate(-192.30 -8.46)" d="M0.00,0.00L-3.66,1.07L-3.74,3.48L-3.42,4.58L-3.36,6.15L-3.04,7.24L-2.24,8.60L0.55,11.35L1.39,11.51L1.86,11.76L3.32,11.33L3.58,10.86L3.71,7.25L2.43,2.86L1.37,1.98L-0.04,1.20L-0.88,1.05L-1.25,1.16L-1.87,1.74L-2.39,2.69L-2.46,7.87L-1.81,10.06L-1.13,11.05" />
        <path transform="translate(-68.44 -104.56)" d="M0.00,0.00L-4.14,-7.44L-5.63,-8.77L-8.60,-10.57L-22.53,-13.45L-23.34,-13.78L-23.95,-14.25L-24.36,-14.85L-25.10,-15.52L-25.51,-16.12L-25.71,-16.86L-25.72,-18.61L-25.40,-20.29L-24.53,-22.04L-23.86,-22.79L-23.06,-23.33L-22.19,-24.21L-20.38,-25.43L-17.23,-26.39L-14.41,-26.54L-13.40,-26.34L-12.59,-26.01L-11.58,-25.82L-10.77,-25.48L-5.77,-21.55L-5.09,-20.54L-4.35,-19.87L-3.67,-18.87L-1.44,-16.87L-0.90,-16.06L1.33,-14.06L1.74,-13.46L2.34,-12.99L2.62,-12.59L3.09,-12.32L3.77,-11.32L4.24,-11.05L6.00,-8.44L5.87,-7.77L5.67,-7.63L5.60,-7.29L5.40,-7.16L5.34,-6.82L4.94,-6.55L4.81,-5.88L4.40,-5.61L4.34,-5.27L3.94,-5.00L4.07,-4.80L3.87,-4.66L4.01,-4.46L3.81,-4.32L3.94,-4.12L3.74,-3.99L3.88,-3.79L3.68,-3.65L3.61,-3.32L3.41,-3.18L3.34,-2.84L1.74,-1.76L1.20,-2.56" />
        <path d="M-193.71,-4.97L-194.66,-6.53L-195.48,-4.90L-194.74,0.57L-193.25,2.29L-191.29,2.39L-190.68,-0.12L-191.63,-6.29L-193.10,-7.48L-194.69,-7.24" />
      </g>
      <g id="f19" transform="translate(-133.04 188.15)" style="--index:19; opacity:0;" class="frame">
        <path transform="translate(-313.06 -195.85)" d="M0.00,0.00L-3.49,3.01L-4.09,6.36L-3.41,14.10L-3.60,16.15L-3.07,17.97L-2.90,19.91L-1.50,24.66L-0.08,25.44L0.75,25.59L3.68,24.73L8.41,20.56L9.19,19.14L9.81,18.56L10.07,18.09L10.22,17.25L10.85,16.67L10.63,15.94L10.89,15.47L11.04,14.63L10.93,14.26L11.09,13.43L10.23,10.50L9.75,10.24L9.54,9.51L9.07,9.25L8.85,8.52L8.38,8.26L7.74,6.07L7.99,5.60L7.89,5.23L9.18,2.87L9.07,2.50L9.44,2.39L9.12,1.30L8.64,1.04L8.54,0.67L7.59,0.16L6.75,0.01L5.81,-0.51L4.97,-0.66L4.49,-0.92L3.66,-1.07L3.18,-1.33L2.82,-1.22L2.34,-1.48L1.98,-1.37L1.51,-1.63L0.04,-1.20L-0.73,0.21L-0.88,1.05L-1.51,1.63L-1.66,2.47L-2.17,3.42L-1.96,4.15L-2.22,4.62" />
        <path transform="translate(-308.13 -202.06)" d="M0.00,0.00L0.30,5.08L1.35,5.96L2.14,7.31L5.52,10.69L6.21,11.68L7.26,12.56L8.20,13.08L9.26,13.96L10.68,14.74L11.51,14.89L13.34,14.35L13.60,13.88L14.23,13.30L15.00,11.88L15.15,11.04L15.67,10.10L15.56,9.73L15.93,9.62L15.82,9.26L16.08,8.79L15.97,8.42L16.23,7.95L16.01,7.22L16.27,6.74L15.52,4.18L13.67,1.95L12.62,1.06L11.93,0.07L10.99,-0.44L9.94,-1.33L9.10,-1.48L7.21,-2.51L6.37,-2.66L5.42,-3.18L3.74,-3.48L3.27,-3.74L2.43,-3.89L-0.49,-3.03L-1.01,-2.09L-1.63,-1.51L-1.78,-0.67L-1.57,0.06" />
        <path transform="translate(-231.29 -149.94)" d="M0.00,0.00L-3.27,3.74L-3.32,4.94L-2.89,6.41L-2.82,7.98L-2.18,10.17L-1.60,10.79L-0.18,11.57L1.28,11.14L1.80,10.19L2.36,8.04L2.34,5.27L2.02,4.17L1.95,2.60L1.74,1.87L1.05,0.88L-0.37,0.11L-0.73,0.21L-1.36,0.79L-1.61,1.27L-1.76,2.11L-1.55,2.84L-1.70,3.68L-1.27,5.14" />
        <path transform="translate(-122.43 -276.24)" d="M0.00,0.00L-0.95,-2.28L-1.23,-2.68L-1.83,-3.15L-2.64,-3.48L-5.54,-3.87L-11.11,-3.03L-16.01,-1.18L-19.62,1.26L-20.49,2.14L-21.50,2.81L-22.16,3.56L-23.16,5.98L-23.15,7.73L-22.60,9.41L-21.65,10.82L-20.91,11.48L-17.54,13.01L-16.86,13.14L-15.25,13.80L-12.14,15.80L-11.81,15.87L-11.41,15.60L-10.87,15.53L-9.66,14.71L-8.92,14.51L-7.72,13.69L-6.98,13.49L-5.98,12.81L-5.44,12.74L-1.02,9.75L-0.48,9.68L0.52,9.01L0.59,8.67L0.85,8.20L0.71,7.12L0.97,5.78L0.90,5.24L1.04,4.57L0.62,2.21L0.35,1.81L0.28,1.28L0.01,0.87L-1.41,0.08L-2.08,-0.06L-2.89,-0.39L-3.50,-0.85L-4.17,-0.98L-4.78,-1.45L-5.45,-1.58L-5.93,-1.85L-7.27,-2.11L-7.47,-1.97L-7.81,-2.04L-8.21,-1.77L-8.55,-1.83L-9.62,-1.69L-10.30,-1.82" />
        <path d="M-232.22,-144.18L-230.66,-145.13L-230.10,-148.88L-232.97,-149.65L-233.63,-148.56L-233.69,-145.54L-232.50,-142.22" />
      </g>
      <g id="f20" transform="translate(-133.04 188.15)" style="--index:20; opacity:0;" class="frame">
        <path transform="translate(-311.49 -189.16)" d="M0.00,0.00L-2.33,4.26L-2.93,7.61L-2.59,18.23L-0.88,24.08L-0.19,25.07L0.28,25.33L0.86,25.96L1.33,26.21L5.36,25.03L6.86,23.40L7.90,21.51L8.78,20.46L9.08,18.78L9.71,18.20L9.86,17.36L9.75,16.99L10.01,16.52L9.90,16.16L10.16,15.68L10.05,15.32L10.31,14.85L10.20,14.48L10.35,13.64L10.14,12.91L10.33,10.87L10.12,10.14L10.16,8.93L8.77,4.18L7.61,2.93L7.40,2.20L6.92,1.94L5.76,0.69L4.92,0.54L4.34,-0.08L3.40,-0.60L1.72,-0.90L1.36,-0.79L0.52,-0.95L-0.21,-0.73L-0.84,-0.15L-1.87,1.74L-2.02,2.58L-1.81,3.31" />
        <path transform="translate(-230.33 -146.65)" d="M0.00,0.00L0.30,5.08L0.51,5.81L0.47,7.01L-0.05,7.96L-0.24,10.00L-0.76,10.94L-1.17,12.26L-1.69,13.20L-2.92,17.14L-2.96,18.34L-3.48,19.29L-3.52,20.49L-3.93,21.80L-4.00,26.98L-3.57,28.45L-3.61,29.65L-2.33,34.04L-1.17,35.29L-0.22,35.80L0.62,35.95L2.45,35.42L3.07,34.84L4.36,32.47L5.68,26.13L5.51,17.44L4.76,14.88L4.91,14.05L2.55,6.00L1.97,5.38L1.76,4.65L1.18,4.02L0.97,3.29L0.39,2.67L-0.04,1.20L-0.52,0.95L-0.73,0.21" />
        <path transform="translate(-299.77 -193.66)" d="M0.00,0.00L2.84,2.47L3.65,2.80L4.39,3.47L6.89,5.00L8.24,6.14L8.91,6.27L9.99,7.00L11.34,7.26L11.87,7.19L12.21,7.26L12.41,7.12L12.95,7.05L13.15,6.91L13.49,6.98L14.89,6.03L15.23,6.10L16.23,5.42L16.30,5.08L16.50,4.95L16.43,4.41L16.29,4.21L16.56,3.74L16.29,3.33L16.42,2.66L16.15,2.26L16.01,1.18L15.74,0.78L15.67,0.24L15.26,-0.36L15.19,-0.90L12.61,-4.71L12.14,-4.98L12.00,-5.18L11.67,-5.24L11.53,-5.45L11.20,-5.51L11.06,-5.71L10.86,-5.58L10.72,-5.78L10.25,-6.04L9.91,-6.11L9.78,-6.31L8.83,-6.84L8.50,-6.91L7.55,-7.44L7.02,-7.37L6.88,-7.57L5.53,-7.83L5.33,-7.70L4.32,-7.89L3.92,-7.62L3.59,-7.68L1.58,-6.33L1.31,-5.86L1.25,-5.52L0.84,-5.25L0.58,-4.78L0.18,-4.51L-0.09,-4.03L-0.29,-3.90L-0.56,-3.43L-0.96,-3.15L-1.02,-2.82L-1.23,-2.68L-1.29,-2.35L-1.69,-2.07L-1.56,-1.87L-1.76,-1.74L-1.35,-1.13" />
        <path transform="translate(-137.61 -273.60)" d="M0.00,0.00L-2.29,-0.79L-3.37,-0.65L-3.57,-0.52L-4.10,-0.45L-5.11,0.23L-6.24,1.58L-7.31,3.47L-9.16,9.40L-9.40,14.24L-8.85,15.92L-7.36,18.13L-6.68,18.26L-6.15,18.19L-4.80,18.45L-2.58,17.83L-1.98,17.42L-1.24,17.22L-0.64,16.81L-0.10,16.74L0.30,16.47L1.37,16.33L1.57,16.19L1.91,16.26L2.38,16.52L3.39,16.72L3.53,16.92L4.53,16.24L4.80,15.77L5.32,13.08L5.32,12.20L5.45,11.53L5.24,10.79L5.23,9.92L4.27,5.89L4.34,5.55L4.19,4.48L4.06,4.28L3.92,3.20L3.51,2.60L3.58,2.26L2.63,0.86L2.29,0.79L2.02,0.39L1.35,0.26L0.87,-0.01L-1.15,-0.40L-2.42,-0.12L-5.64,2.05L-5.77,2.72" />
      </g>
      <g id="f21" transform="translate(-133.04 188.15)" style="--index:21; opacity:0;" class="frame">
        <path transform="translate(-311.54 -181.20)" d="M0.00,0.00L-2.07,3.78L-2.41,6.66L-2.09,7.76L-2.37,12.21L-2.05,13.31L-2.14,15.72L-1.82,16.81L-1.76,18.38L0.93,27.52L2.19,29.14L2.30,29.50L4.04,31.38L4.15,31.74L4.62,32.00L4.99,31.89L5.46,32.15L6.56,31.83L8.43,30.09L10.50,26.31L10.80,24.63L11.06,24.16L10.84,23.43L11.10,22.95L10.99,22.59L11.14,21.75L11.04,21.38L11.19,20.54L11.08,20.18L11.12,18.97L10.91,18.24L11.00,15.83L10.68,14.74L10.81,11.13L10.38,9.66L10.36,6.89L9.61,4.33L9.65,3.13L8.15,-1.99L7.68,-2.25L7.46,-2.98L6.99,-3.24L6.15,-3.39L5.68,-3.65L4.84,-3.80L2.28,-3.05L0.78,-1.42L0.52,-0.95L-0.37,0.11L-0.88,1.05L-1.29,2.36" />
        <path transform="translate(-232.29 -135.75)" d="M0.00,0.00L-0.74,6.97L-4.42,18.77L-9.57,31.00L-9.75,35.82L-9.00,38.38L-8.42,39.00L-7.94,39.26L-5.90,39.45L-2.61,38.49L-0.63,37.11L-0.11,36.17L1.39,34.54L1.91,33.59L2.53,33.01L4.34,29.70L4.71,29.59L5.33,29.01L6.43,28.69L6.69,28.22L7.31,27.64L7.57,27.16L8.19,26.58L8.50,24.91L9.01,23.96L9.32,22.28L9.10,21.55L9.14,20.35L7.97,16.33L5.80,12.99L5.47,11.90L4.21,10.28L3.67,8.45L2.98,7.46L2.55,6.00L2.08,5.74L1.87,5.01L1.39,4.75L1.29,4.39L0.81,4.13L0.71,3.76L-0.39,4.09" />
        <path transform="translate(-295.32 -191.40)" d="M0.00,0.00L-2.23,-1.13L-2.36,-1.33L-2.09,-0.93L-1.48,-0.46L13.15,6.91L14.02,6.91L14.70,7.04L15.51,7.37L17.79,7.29L19.60,6.94L20.41,6.40L20.95,6.33L21.55,5.92L22.09,5.85L23.89,4.63L24.22,2.95L24.08,2.75L24.15,2.41L21.71,-1.20L17.59,-4.27L16.78,-4.60L16.17,-5.07L15.36,-5.40L14.69,-5.53L13.41,-6.13L9.37,-6.91L7.62,-6.90L6.89,-6.70L6.01,-6.69L3.06,-5.87L0.25,-3.97L-0.95,-1.41L-1.08,-0.73" />
        <path transform="translate(-143.82 -265.02)" d="M0.00,0.00L-2.14,2.03L-2.39,6.00L-1.97,8.35L-0.81,11.37L0.28,12.97L1.49,13.91L3.51,14.30L6.80,13.54L8.41,12.46L8.47,12.12L8.74,11.65L8.67,11.11L8.87,10.10L6.70,6.89L6.09,6.42L5.68,5.82L5.07,5.35L2.09,0.93L1.12,-3.97L1.18,-4.31L1.11,-4.85L1.18,-5.18L0.77,-5.79L0.37,-5.51L0.24,-4.84" />
      </g>
      <g id="f22" transform="translate(-133.04 188.15)" style="--index:22; opacity:0;" class="frame">
        <path transform="translate(-309.20 -175.93)" d="M0.00,0.00L-3.27,3.74L-3.47,5.78L-2.83,21.48L-2.30,23.31L-2.13,25.24L-1.70,26.71L-1.53,28.64L-1.10,30.10L-1.03,31.67L0.25,36.06L0.83,36.69L1.31,36.94L1.89,37.57L4.25,38.86L5.09,39.01L5.56,39.27L6.29,39.05L6.77,39.31L7.60,39.46L11.99,38.18L15.22,35.64L16.77,32.81L18.00,28.87L18.07,23.69L14.63,11.99L13.95,11.00L13.63,9.90L9.14,4.07L8.19,3.55L7.14,2.67L6.19,2.16L5.14,1.27L3.83,0.86L2.77,-0.02L0.62,-0.58L-1.57,0.06L-2.09,1.01" />
        <path transform="translate(-286.96 -187.68)" d="M0.00,0.00L-2.23,-1.13L-2.56,-1.20L-2.76,-1.06L-1.95,0.15L-0.13,1.55L3.52,3.48L18.46,7.42L18.94,7.69L19.47,7.62L20.48,7.81L20.88,7.54L21.56,7.67L22.10,7.60L22.30,7.47L23.37,7.33L23.71,7.39L24.25,7.32L24.45,7.19L24.98,7.11L25.18,6.98L25.52,7.04L25.92,6.77L26.46,6.70L28.27,5.48L28.20,4.94L28.46,4.47L28.59,3.80L28.39,3.06L28.65,1.72L28.64,0.84L28.77,0.17L28.57,-0.57L28.56,-1.44L27.95,-3.66L27.54,-4.26L27.33,-5.00L26.25,-6.61L21.19,-9.33L20.52,-9.46L20.04,-9.73L17.35,-10.25L16.54,-10.58L15.87,-10.71L15.00,-10.71L14.32,-10.84L13.79,-10.77L13.11,-10.90L10.02,-10.28L9.62,-10.01L9.09,-9.94L8.75,-10.00L7.67,-9.86L7.27,-9.59L6.73,-9.52L6.40,-9.58L6.00,-9.31L5.46,-9.24L4.86,-8.84L4.32,-8.76L2.51,-7.54L2.24,-7.07L1.84,-6.80L1.31,-5.86L0.91,-5.59L-0.09,-4.03L-1.50,-3.08" />
        <path transform="translate(-141.65 -262.68)" d="M0.00,0.00L-2.69,0.35L-3.09,0.62L-3.42,2.31L-3.27,4.25L-2.24,7.07L-1.16,8.68L0.06,9.61L1.67,10.28L2.35,10.41L3.16,10.74L3.89,10.53L4.57,10.66L6.04,10.25L7.65,9.17L7.78,8.49L7.51,8.09L7.57,7.75L6.35,5.95L5.27,5.21L3.66,4.55L3.05,4.08L-1.13,2.23L-2.21,1.49L-2.62,0.89L-3.09,0.62L-3.50,0.02L-3.43,-0.32L-3.57,-0.52L-3.50,-0.85L-3.23,-1.33L-2.63,-1.73L-1.89,-1.94" />
        <path d="M-302.55,-461.99L-305.11,-463.22" />
      </g>
      <g id="f23" transform="translate(-133.04 188.15)" style="--index:23; opacity:0;" class="frame">
        <path transform="translate(-300.79 -155.37)" d="M0.00,0.00L-3.93,-1.23L-4.67,-1.01L-5.66,-0.33L-6.54,0.73L-7.92,5.50L-8.61,11.26L-8.27,15.13L-6.77,20.25L-5.97,21.61L-3.87,23.37L-1.24,24.19L-0.04,24.23L4.35,22.95L7.42,21.25L10.70,17.51L11.47,16.09L12.59,11.79L12.62,7.82L11.65,4.52L10.17,2.18L7.96,0.05L6.54,-0.73L5.48,-1.61L1.08,-3.10L-2.21,-2.13L-3.46,-0.97L-5.57,4.02" />
        <path transform="translate(-273.70 -195.76)" d="M0.00,0.00L-2.42,-0.12L-2.62,0.02L-2.69,0.35L-2.95,0.82L-3.08,1.50L-3.42,2.31L-3.81,4.32L-3.67,5.40L-3.86,6.41L-3.57,10.31L-3.36,11.05L-3.15,13.53L-2.61,14.33L-2.54,14.87L-1.86,15.88L1.51,17.40L2.52,17.60L3.33,17.93L6.02,18.45L6.76,18.25L7.44,18.38L12.54,17.27L14.55,15.92L17.49,12.47L18.02,11.53L19.62,9.57L20.28,7.95L20.28,7.07L20.47,6.07L20.46,4.32L19.98,2.30L18.49,0.09L16.53,-1.51L15.72,-1.84L15.11,-2.31L12.69,-3.30L11.81,-3.30L11.00,-3.63L9.26,-3.62L8.25,-3.81L6.30,-3.67L1.80,-2.09L1.00,-1.55L0.06,-1.21" />
      </g>
    </g>
    <g id="t1" transform="translate(315.09 109.26) scale(0.88 0.88) rotate(-191.91)" class="thread">
      <g id="f0" transform="translate(361.56 -187.35)" style="--index:0; opacity:1;" class="frame">
        <path d="M415.05,469.76L409.63,472.45L402.95,478.11L396.86,481.36L385.38,490.57L377.94,500.27L341.76,539.17L334.59,544.92L321.57,553.58L303.39,564.51L267.51,578.17L253.69,581.46L238.99,582.60L228.08,582.18L198.86,577.41L183.67,570.73L165.24,556.84L156.43,547.91L144.97,537.95L117.28,509.31L109.52,502.28L94.33,490.44L69.64,472.91L42.57,458.70L24.73,451.95L-6.07,445.69L-24.64,445.01L-62.71,445.53L-77.74,444.68L-93.29,442.43L-106.32,438.89L-112.48,436.41L-125.85,428.52L-134.92,416.70L-142.29,402.28L-144.86,393.27L-146.02,377.04L-145.04,358.89L-141.11,334.00L-133.35,315.76L-128.04,307.51L-123.75,302.51L-115.46,296.95L-94.70,289.21L-72.20,283.78L-40.51,281.42L-24.96,275.77L-15.22,268.93L-6.54,260.48L33.00,206.81L41.90,197.54L48.79,191.85L65.74,180.13L80.15,172.83L97.83,168.11L110.42,165.85L117.06,165.54L131.97,166.64L146.09,169.42L155.38,173.19L172.41,182.93L182.59,189.81L243.29,244.84L263.89,257.29L302.08,274.64L318.62,278.96L335.47,281.91L446.66,290.56L462.62,292.70L483.74,294.17L515.54,300.13L527.71,303.73L541.30,310.90L548.63,317.67L553.60,324.90L555.63,329.35L560.28,345.30L561.94,354.55L563.17,369.92L561.17,384.47L558.11,392.91L548.23,407.83L540.97,416.32L530.26,426.05L510.51,436.82L493.10,442.16L462.20,448.84L445.14,455.50L430.62,459.51L423.49,464.41L413.79,473.36L392.88,484.59L386.45,489.99L380.27,498.87" />
      </g>
      <g id="f1" transform="translate(361.56 -187.35)" style="--index:1; opacity:0;" class="frame">
        <path d="M385.03,477.45L380.88,482.27L373.27,486.61L368.24,492.02" />
        <path d="M368.24,492.02L354.53,510.62L345.45,528.72L332.68,558.99L328.32,567.21L324.03,573.45L317.56,579.41L300.06,590.36L274.64,596.93L259.03,597.23L229.78,590.28L214.99,584.64L195.85,573.65L178.01,559.67L166.89,549.86L155.50,537.63L141.23,524.54L125.76,508.18L113.87,497.38L98.05,480.88L88.44,472.38L72.46,461.38L52.47,452.64L31.57,448.82L8.91,450.70L-46.53,450.27L-67.47,446.63L-81.59,442.13L-89.81,438.73L-98.90,433.38L-104.41,428.72L-111.31,420.97L-119.60,407.47L-122.56,398.47L-124.33,383.47L-124.66,355.09L-123.70,339.34L-122.21,329.95L-117.89,319.62L-113.30,312.86L-96.55,293.96L-86.90,286.54L-72.55,279.62L-38.26,269.79L-19.32,262.79L-11.97,259.36L-4.47,253.96L-0.25,249.82L2.78,244.99L8.33,215.50L16.99,195.99L23.89,185.13L29.55,178.08L36.98,170.96L48.91,162.96L60.72,158.01L73.94,155.48L88.64,155.48L108.62,157.44L120.31,159.42L127.81,161.93L152.68,173.30L196.16,203.75L221.32,220.23L252.91,235.50L311.07,256.42L321.14,258.98L342.07,262.62L393.90,268.75L420.30,269.98L464.20,267.59L490.66,268.54L502.92,270.53L532.24,278.26L540.83,282.10L545.51,285.48L553.69,294.02L559.22,301.34L564.73,313.91L568.38,330.65L568.13,346.81L565.94,360.85L557.46,383.73L552.78,392.96L547.01,401.61L532.09,418.06L516.44,430.48L502.83,438.18L478.21,449.46L462.50,454.33L446.31,460.47L419.83,466.94L411.13,470.42L405.91,470.87L401.07,472.34L368.24,492.02" />
        <path d="M368.24,492.02L363.74,495.00L360.37,499.22" />
      </g>
      <g id="f2" transform="translate(361.56 -187.35)" style="--index:2; opacity:0;" class="frame">
        <path d="M412.71,465.64L407.55,470.06" />
        <path d="M407.55,470.06L395.98,479.31L390.01,488.01L360.51,555.69L355.35,563.69L342.27,578.45L333.44,585.44L314.40,593.57L299.29,596.63L282.51,598.83L265.71,598.37L236.74,593.66L211.35,583.63L189.70,572.34L174.75,557.98L145.74,515.29L129.31,496.85L100.24,474.76L79.20,462.61L57.48,453.60L30.61,446.55L7.18,442.96L-17.06,443.62L-43.34,442.71L-49.28,441.70L-61.39,435.54L-66.87,430.71L-71.05,423.80L-77.86,401.56L-78.82,390.34L-78.15,377.86L-76.33,367.77L-73.37,360.35L-66.77,350.22L-51.78,333.78L-35.56,320.80L-9.67,303.72L-2.29,297.93L6.95,288.99L9.66,282.59L10.65,276.74L10.48,271.56L7.66,257.83L-6.26,218.86L-8.55,210.35L-9.24,199.26L-7.81,190.83L-4.93,185.79L9.51,168.58L16.95,162.89L22.85,159.69L39.39,153.81L46.46,152.05L66.90,150.84L73.59,151.32L103.07,156.88L133.29,167.81L148.79,172.55L179.50,185.57L202.11,196.84L261.71,222.88L305.14,237.96L326.56,243.88L354.63,248.73L392.75,247.95L417.52,245.38L448.17,239.98L478.14,238.29L492.15,239.42L508.59,242.21L520.51,247.29L536.66,262.24L541.81,269.01L547.06,282.50L551.27,303.80L551.96,333.49L549.29,358.89L546.26,375.63L538.48,393.97L533.14,401.83L512.44,422.65L493.72,435.68L480.44,443.73L450.28,457.80L441.55,459.75L422.56,467.11L407.55,470.06" />
        <path d="M407.55,470.06L403.91,471.87L390.54,485.54" />
      </g>
      <g id="f3" transform="translate(361.56 -187.35)" style="--index:3; opacity:0;" class="frame">
        <path d="M444.34,393.27L441.82,397.49" />
        <path d="M441.82,397.49L430.06,413.27L422.13,432.51L414.61,453.75L402.14,495.31L392.11,535.87L381.04,557.36L373.47,568.28L365.48,577.62L353.19,587.74L338.60,596.71L318.10,605.06L309.68,607.36L293.59,608.44L278.87,607.47L267.45,608.40L247.03,608.36L226.47,605.36L219.05,602.96L203.95,594.00L190.94,582.94L184.23,575.32L178.03,565.77L168.05,554.35L160.84,541.12L152.83,519.63L143.47,497.73L137.80,489.05L130.67,481.55L116.19,471.93L104.00,465.00L84.70,458.39L69.29,456.35L46.98,456.38L32.52,455.56L18.41,453.17L9.71,449.97L2.11,446.39L-6.49,439.78L-20.35,424.65L-23.88,419.58L-27.57,411.04L-31.17,399.56L-32.29,390.40L-31.87,380.64L-26.34,349.73L-14.62,320.53L-11.32,309.54L-9.64,299.06L-8.64,279.67L-10.00,265.71L-13.00,254.14L-23.39,229.30L-31.02,206.17L-32.50,196.37L-32.73,188.70L-32.17,180.31L-30.19,172.06L-25.88,166.89L-21.52,163.61L-18.55,162.50L14.17,157.45L30.78,159.70L37.25,161.93L56.97,171.20L80.46,184.53L95.41,192.01L104.77,198.09L121.28,206.61L143.61,215.07L176.22,221.17L217.36,224.51L257.11,225.25L283.77,222.80L303.78,218.46L332.99,209.31L349.07,202.30L377.11,192.66L404.61,187.40L417.93,187.17L448.42,188.52L463.89,191.23L483.09,197.82L497.23,206.71L512.46,221.50L517.27,228.13L527.09,246.68L530.72,256.26L534.78,271.64L538.78,293.11L538.71,308.07L537.07,318.37L530.82,330.48L522.15,341.04L512.06,351.15L498.97,360.28L472.28,374.17L454.49,387.45L450.79,391.79L445.80,395.81L441.82,397.49" />
        <path d="M441.82,397.49L437.87,400.95L435.10,405.52L427.60,423.91" />
      </g>
      <g id="f4" transform="translate(361.56 -187.35)" style="--index:4; opacity:0;" class="frame">
        <path d="M414.98,418.43L425.33,450.07" />
        <path d="M425.33,450.07L430.03,468.76L432.51,498.55L432.01,510.50L428.65,534.15L425.25,545.87L416.01,564.91L400.02,583.86L392.61,590.41L376.36,600.16L361.13,607.30L350.38,609.86L324.49,613.96L305.70,613.45L266.28,607.43L249.76,601.29L239.02,596.04L220.38,583.17L201.55,563.09L194.52,551.78L191.06,544.61L172.58,497.71L164.73,487.21L155.64,479.48L138.05,468.96L121.40,463.00L98.81,459.54L84.99,460.06L61.12,459.07L51.10,457.28L41.78,454.36L29.97,449.69L23.12,445.66L15.40,439.50L10.26,433.77L6.43,427.10L4.46,420.76L1.92,397.92L1.94,387.14L4.86,369.42L12.17,349.39L14.70,340.01L17.16,325.53L16.77,316.50L11.80,301.36L1.23,281.07L-11.10,264.28L-34.88,236.23L-44.63,221.32L-46.86,214.16L-48.08,203.28L-48.21,197.34L-46.82,189.65L-43.34,184.90L-41.27,183.35L-25.71,177.68L-10.96,173.51L0.84,171.42L17.28,167.15L38.85,167.65L57.73,170.56L64.85,173.01L78.70,179.74L95.69,190.35L111.24,198.80L134.67,208.02L151.93,212.56L168.69,215.60L193.40,218.93L217.24,220.11L236.32,219.05L263.25,215.51L280.13,211.02L293.88,205.91L383.63,178.49L405.10,177.27L422.10,179.47L431.15,182.93L452.43,193.01L470.86,206.92L483.09,223.20L490.93,239.98L492.70,245.82L495.71,266.92L495.64,275.21L491.01,300.85L481.57,320.43L467.83,338.03L448.73,356.06L437.43,369.30L426.91,384.02L422.53,392.52L418.64,414.19L420.73,430.66L424.62,444.28L425.33,450.07" />
        <path d="M425.33,450.07L425.65,456.19L427.64,460.82" />
      </g>
      <g id="f5" transform="translate(1550.92 1283.23)" style="--index:5; opacity:0;" class="frame">
        <path d="M-738.81,-1144.92L-741.81,-1139.62L-745.14,-1130.18L-751.34,-1118.34L-755.18,-1106.41L-767.46,-1056.99L-770.79,-1032.27L-770.83,-1022.45L-768.02,-1007.58L-756.99,-978.05L-751.23,-969.26L-749.20,-959.27L-748.96,-947.22L-751.25,-929.20L-758.06,-911.47L-763.66,-902.12L-773.05,-890.54L-788.87,-877.11L-798.55,-871.89L-827.43,-861.33L-847.22,-857.63L-852.12,-857.50L-865.65,-859.32L-876.97,-858.95L-886.10,-860.22L-899.87,-865.69L-908.84,-871.32L-982.73,-948.12L-992.34,-956.63L-1001.51,-966.19L-1022.28,-981.43L-1037.55,-988.80L-1055.64,-993.57L-1088.62,-998.12L-1119.19,-1001.30L-1129.56,-1003.15L-1138.63,-1007.07L-1148.36,-1013.31L-1158.02,-1022.75L-1166.21,-1034.06L-1169.75,-1047.53L-1169.19,-1061.55L-1164.83,-1080.47L-1162.76,-1094.99L-1164.16,-1113.06L-1166.36,-1123.17L-1169.32,-1132.16L-1175.06,-1142.76L-1184.37,-1155.98L-1202.11,-1175.20L-1216.22,-1188.75L-1227.80,-1201.39L-1233.01,-1208.47L-1240.86,-1222.87L-1246.53,-1235.56L-1249.87,-1257.01L-1248.85,-1266.28L-1246.57,-1270.28L-1244.80,-1271.79L-1237.31,-1276.45L-1228.67,-1279.57L-1215.81,-1281.77L-1201.48,-1281.91L-1144.92,-1272.71L-1103.20,-1263.34L-1075.31,-1259.09L-1042.21,-1257.39L-1011.62,-1259.46L-989.26,-1263.59L-979.03,-1266.52L-963.29,-1272.63L-931.42,-1286.77L-901.76,-1300.83L-871.12,-1311.57L-845.12,-1315.84L-828.75,-1317.35L-821.11,-1316.72L-795.12,-1311.94L-763.68,-1292.59L-749.29,-1281.75L-744.14,-1276.21L-737.44,-1266.21L-732.35,-1254.57L-724.71,-1232.58L-721.18,-1214.52L-719.94,-1200.49L-720.35,-1191.87L-723.05,-1168.20L-724.92,-1158.69L-728.02,-1150.63L-740.71,-1127.52L-746.46,-1114.94L-752.61,-1106.25L-755.62,-1096.36L-757.21,-1093.77" />
      </g>
      <g id="f6" transform="translate(361.56 -187.35)" style="--index:6; opacity:0;" class="frame">
        <path d="M416.88,365.62L415.89,370.81L416.53,376.63L426.70,403.35L433.81,416.56L442.03,429.40L450.44,439.99L455.16,448.71L470.87,470.92L478.13,484.93L482.78,497.92L483.70,506.09L483.66,513.62L480.26,534.79L475.30,550.54L465.50,566.72L461.80,571.04L452.84,578.97L441.29,586.27L429.53,590.95L419.78,592.25L403.25,591.26L378.90,586.27L352.78,576.51L329.28,565.56L314.09,559.47L302.50,552.92L283.59,545.24L264.96,535.77L224.82,519.82L184.78,508.45L112.96,494.37L82.77,487.26L67.85,481.77L58.28,476.91L50.41,472.24L39.36,464.17L29.04,454.11L26.10,449.03L23.10,440.23L21.84,426.29L27.52,389.37L28.42,375.52L27.78,364.15L25.32,347.71L22.86,337.56L18.93,326.40L9.42,304.29L4.85,297.50L1.20,293.64L-14.83,279.01L-33.79,267.01L-51.18,258.73L-69.39,246.88L-72.86,243.04L-76.07,237.83L-78.95,228.37L-78.87,219.99L-77.75,213.98L-76.40,211.15L-71.13,203.55L-64.60,198.37L-61.06,197.15L-41.71,196.15L-4.24,196.87L19.78,198.55L65.96,204.86L105.53,208.32L136.15,209.51L147.45,208.66L187.92,201.22L209.79,193.76L244.58,177.62L266.25,164.04L294.62,144.72L300.77,141.57L309.40,138.54L333.20,132.65L339.82,131.87L358.83,133.38L381.24,137.46L396.63,142.83L402.90,145.80L414.10,152.95L424.18,161.44L430.93,169.05L439.21,181.53L442.61,189.64L444.73,198.49L445.37,221.19L439.73,259.43L425.19,310.39L418.44,336.71L415.75,351.33L416.31,364.95L415.49,372.08L416.06,377.69L420.28,389.96" />
      </g>
      <g id="f7" transform="translate(361.56 -187.35)" style="--index:7; opacity:0;" class="frame">
        <path d="M444.87,576.48L436.51,580.12L429.64,581.91L410.94,582.94L397.66,582.60L382.07,579.95L373.04,576.99L350.41,565.71L322.13,549.66L277.64,521.15L266.92,515.79L241.91,508.03L219.65,504.17L203.77,502.80L172.03,504.38L147.94,506.79L119.32,507.95L96.79,505.18L86.20,501.27L74.35,492.98L69.57,486.92L63.09,476.09L60.02,466.61L55.74,448.06L54.31,435.60L53.68,403.36L51.16,391.76L47.88,382.43L44.43,376.32L39.18,367.81L29.54,355.01L16.81,341.68L3.54,330.47L-24.78,311.84L-41.11,302.88L-77.13,286.85L-96.40,276.15L-102.86,269.81L-116.03,246.69L-118.23,232.77L-116.70,223.11L-110.95,210.08L-106.90,205.89L-102.21,202.96L-76.61,198.92L-59.43,198.20L-2.96,199.38L12.26,200.82L28.78,201.23L71.24,201.28L122.59,195.96L139.42,191.28L152.22,186.09L164.03,179.42L221.72,141.99L251.88,126.02L269.83,119.25L286.64,116.84L304.80,116.69L326.90,119.19L344.48,122.94L357.91,128.74L378.61,142.73L392.70,157.62L400.18,170.33L406.92,189.59L411.16,207.29L412.73,218.33L415.24,242.41L417.65,296.32L420.31,335.12L427.74,380.83L432.74,395.31L444.25,419.67L457.85,440.09L477.36,464.66L490.06,483.13L492.59,489.10L495.12,499.45L496.92,517.01L494.51,536.82L491.35,544.30L486.84,550.59L459.40,567.87L454.66,569.36L449.40,572.19L442.57,573.61L436.53,576.11L430.68,576.26L426.30,578.58L423.49,578.10" />
      </g>
      <g id="f8" transform="translate(361.56 -187.35)" style="--index:8; opacity:0;" class="frame">
        <path d="M472.15,557.84L463.97,564.44L455.59,566.00L439.44,565.16L406.91,560.51L390.28,556.26L371.59,550.12L342.51,538.61L316.89,529.50L301.58,522.43L258.91,506.71L236.20,500.10L214.50,496.33L205.42,495.83L183.38,497.63L156.83,503.44L146.53,504.44L128.75,504.20L107.02,502.33L95.85,500.05L86.56,495.23L82.27,491.94L78.61,487.03L75.58,480.11L73.63,472.45L69.74,446.42L70.36,419.24L69.63,406.54L66.24,397.27L56.99,384.92L31.14,364.15L1.01,341.50L-18.96,329.24L-28.92,324.97L-41.31,320.96L-59.74,317.08L-77.54,315.29L-93.40,309.75L-110.07,299.39L-116.21,293.49L-120.84,287.46L-127.47,269.74L-128.29,261.77L-125.79,246.38L-123.43,239.72L-118.41,231.03L-114.61,227.66L-103.69,223.50L-97.96,222.95L-78.91,218.64L-57.77,218.32L-17.96,214.76L27.08,212.48L53.99,207.32L69.95,202.68L87.99,194.77L118.46,175.42L149.01,152.18L177.79,128.15L201.52,114.82L213.40,110.53L222.16,108.40L232.93,107.26L250.65,107.40L276.21,111.46L284.25,114.05L298.28,121.87L318.66,135.63L340.76,159.01L365.79,198.73L374.18,219.04L385.96,252.52L394.62,287.56L408.78,339.07L416.40,361.63L431.59,388.63L437.65,397.76L462.64,428.71L494.49,455.94L506.89,476.16L510.83,487.90L512.12,499.95L510.00,512.46L507.89,519.82L504.24,527.89L496.76,538.72L484.25,551.20L474.02,556.43L458.24,562.34L451.70,563.13L445.68,562.68" />
      </g>
      <g id="f9" transform="translate(361.56 -187.35)" style="--index:9; opacity:0;" class="frame">
        <path d="M496.22,532.44L489.53,535.79" />
        <path d="M489.53,535.79L482.04,539.00L473.50,538.71L464.14,539.87L445.30,539.54L438.14,540.14L428.28,539.14L422.20,538.02L388.42,528.37L368.78,519.89L352.01,515.23L328.66,510.71L305.74,508.55L287.72,509.12L231.48,517.70L219.78,520.30L185.89,524.96L160.28,525.86L145.92,524.47L137.09,522.97L132.15,521.28L121.10,514.93L106.07,500.65L92.32,483.25L75.15,458.50L68.57,451.19L52.67,436.28L41.22,426.71L24.01,413.97L-8.42,391.40L-26.39,380.34L-43.28,371.47L-62.34,362.79L-76.47,360.03L-104.17,358.09L-120.52,355.42L-138.83,349.17L-152.93,340.67L-160.17,333.25L-162.68,327.28L-165.47,317.28L-165.17,299.69L-163.06,289.56L-159.42,281.58L-151.09,268.98L-142.92,260.72L-134.87,255.51L-114.87,251.18L-87.06,243.68L-52.87,237.26L-40.55,235.93L-26.66,232.36L-15.96,230.56L22.00,218.77L37.98,209.47L54.56,197.78L76.93,180.12L92.28,170.51L102.85,162.86L150.37,138.00L164.25,131.96L174.26,129.27L188.04,127.89L208.10,128.81L217.74,130.44L232.97,134.64L247.76,141.34L269.40,156.18L283.18,168.25L292.77,179.79L306.69,202.36L312.80,216.94L320.68,240.79L334.22,272.37L358.62,322.65L363.33,330.32L381.37,352.27L404.29,372.36L416.43,380.04L438.58,392.29L470.90,405.39L496.97,418.21L513.83,423.45L523.97,430.03L540.44,445.89L545.98,457.23L550.21,476.06L548.51,489.50L542.81,502.38L534.16,512.83L518.46,524.47L505.88,531.69L489.53,535.79" />
        <path d="M489.53,535.79L479.86,536.63" />
      </g>
      <g id="f10" transform="translate(361.56 -187.35)" style="--index:10; opacity:0;" class="frame">
        <path d="M491.11,512.41L482.63,516.31L472.18,517.69L440.73,514.16L415.90,512.62L351.59,513.26L327.30,516.40L310.08,521.20L291.13,527.25L242.10,547.35L213.94,555.36L191.60,557.11L156.27,552.26L142.62,546.70L129.12,536.22L118.60,524.61L110.23,512.61L93.77,493.32L55.87,459.04L37.32,445.21L16.12,432.95L-15.33,419.31L-43.73,411.25L-69.80,406.83L-91.00,405.82L-113.47,403.35L-143.03,397.66L-153.14,393.18L-164.59,381.91L-172.44,370.75L-182.02,353.58L-188.26,333.55L-189.28,327.18L-189.21,321.65L-185.15,297.26L-181.13,284.68L-176.78,275.87L-168.01,265.82L-153.70,258.04L-138.52,251.17L-123.05,247.70L-102.06,248.86L-72.67,253.84L-62.17,254.30L-41.24,251.92L-16.23,245.02L-8.15,241.32L8.01,231.47L37.18,207.43L54.97,195.85L75.28,180.68L107.02,162.41L117.05,157.73L136.17,150.85L166.04,144.47L189.53,145.59L221.54,150.93L232.35,155.14L243.44,161.88L256.55,171.73L271.54,187.34L281.74,203.85L295.39,235.26L306.73,269.03L317.14,290.92L326.84,304.60L336.50,315.77L358.20,335.18L373.58,344.18L386.13,348.97L458.56,361.72L484.14,367.87L517.17,378.33L537.36,387.58L550.25,401.02L557.74,412.01L562.66,421.81L566.66,436.51L567.25,442.61L567.09,448.69L564.88,461.68L559.58,472.70L555.43,479.05L544.23,491.07L537.05,496.43L516.93,506.39L498.72,511.50L481.64,512.51L466.94,514.40L462.86,513.71" />
      </g>
      <g id="f11" transform="translate(361.56 -187.35)" style="--index:11; opacity:0;" class="frame">
        <path d="M480.98,476.44L469.91,474.97" />
        <path d="M469.91,474.97L453.33,473.57L434.23,474.33L392.43,481.66L367.71,491.38L353.02,499.20L326.84,514.60L306.99,527.64L296.27,533.45L274.60,551.05L257.05,560.58L242.66,567.10L233.57,569.65L216.90,572.27L199.35,571.59L181.93,568.64L157.82,558.92L137.86,545.51L128.98,535.99L115.46,517.88L102.80,499.05L97.04,491.97L75.56,469.53L47.56,449.53L19.53,433.71L0.92,427.51L-11.99,425.50L-21.37,425.07L-46.60,426.99L-85.15,428.17L-102.68,427.50L-122.97,423.96L-138.50,419.42L-149.66,414.29L-155.31,410.47L-166.95,396.29L-172.21,385.18L-175.89,370.83L-177.37,351.99L-176.97,338.98L-171.95,306.55L-169.06,299.60L-158.83,281.50L-150.08,272.58L-140.00,266.57L-132.73,263.61L-116.86,259.51L-100.85,257.37L-72.74,259.84L-47.93,260.91L-19.50,259.81L-0.59,256.34L8.29,252.88L27.72,242.91L33.76,238.89L53.68,221.57L73.91,201.15L91.57,186.50L106.41,176.04L124.17,168.08L135.06,165.73L151.07,166.36L165.29,168.76L175.10,172.63L186.07,178.39L202.56,191.97L211.85,201.92L225.66,223.44L246.18,244.67L260.53,255.11L287.16,269.73L306.77,276.20L336.71,281.85L364.91,284.43L384.32,287.44L451.96,290.89L468.58,292.37L484.01,294.90L497.07,298.25L514.97,304.14L533.96,314.71L541.44,321.22L551.66,332.49L556.63,339.71L565.53,361.54L568.40,379.48L569.79,394.31L568.92,406.28L565.50,422.58L559.27,433.92L548.48,448.68L544.54,452.69L530.52,463.39L513.08,470.63L499.70,474.76L486.75,475.13L478.50,473.73L469.91,474.97" />
        <path d="M469.91,474.97L467.32,475.47" />
      </g>
    </g>
    <g id="t2" transform="translate(124.62 -249.70) scale(0.87 0.87) rotate(-191.39)" class="thread">
      <g id="f0" transform="translate(231.14 -623.11)" style="--index:0; opacity:1;" class="frame">
        <path d="M415.05,469.76L409.63,472.45L402.95,478.11L396.86,481.36L385.38,490.57L377.94,500.27L341.76,539.17L334.59,544.92L321.57,553.58L303.39,564.51L267.51,578.17L253.69,581.46L238.99,582.60L228.08,582.18L198.86,577.41L183.67,570.73L165.24,556.84L156.43,547.91L144.97,537.95L117.28,509.31L109.52,502.28L94.33,490.44L69.64,472.91L42.57,458.70L24.73,451.95L-6.07,445.69L-24.64,445.01L-62.71,445.53L-77.74,444.68L-93.29,442.43L-106.32,438.89L-112.48,436.41L-125.85,428.52L-134.92,416.70L-142.29,402.28L-144.86,393.27L-146.02,377.04L-145.04,358.89L-141.11,334.00L-133.35,315.76L-128.04,307.51L-123.75,302.51L-115.46,296.95L-94.70,289.21L-72.20,283.78L-40.51,281.42L-24.96,275.77L-15.22,268.93L-6.54,260.48L33.00,206.81L41.90,197.54L48.79,191.85L65.74,180.13L80.15,172.83L97.83,168.11L110.42,165.85L117.06,165.54L131.97,166.64L146.09,169.42L155.38,173.19L172.41,182.93L182.59,189.81L243.29,244.84L263.89,257.29L302.08,274.64L318.62,278.96L335.47,281.91L446.66,290.56L462.62,292.70L483.74,294.17L515.54,300.13L527.71,303.73L541.30,310.90L548.63,317.67L553.60,324.90L555.63,329.35L560.28,345.30L561.94,354.55L563.17,369.92L561.17,384.47L558.11,392.91L548.23,407.83L540.97,416.32L530.26,426.05L510.51,436.82L493.10,442.16L462.20,448.84L445.14,455.50L430.62,459.51L423.49,464.41L413.79,473.36L392.88,484.59L386.45,489.99L380.27,498.87" />
      </g>
      <g id="f1" transform="translate(231.14 -623.11)" style="--index:1; opacity:0;" class="frame">
        <path d="M385.03,477.45L380.88,482.27L373.27,486.61L368.24,492.02" />
        <path d="M368.24,492.02L354.53,510.62L345.45,528.72L332.68,558.99L328.32,567.21L324.03,573.45L317.56,579.41L300.06,590.36L274.64,596.93L259.03,597.23L229.78,590.28L214.99,584.64L195.85,573.65L178.01,559.67L166.89,549.86L155.50,537.63L141.23,524.54L125.76,508.18L113.87,497.38L98.05,480.88L88.44,472.38L72.46,461.38L52.47,452.64L31.57,448.82L8.91,450.70L-46.53,450.27L-67.47,446.63L-81.59,442.13L-89.81,438.73L-98.90,433.38L-104.41,428.72L-111.31,420.97L-119.60,407.47L-122.56,398.47L-124.33,383.47L-124.66,355.09L-123.70,339.34L-122.21,329.95L-117.89,319.62L-113.30,312.86L-96.55,293.96L-86.90,286.54L-72.55,279.62L-38.26,269.79L-19.32,262.79L-11.97,259.36L-4.47,253.96L-0.25,249.82L2.78,244.99L8.33,215.50L16.99,195.99L23.89,185.13L29.55,178.08L36.98,170.96L48.91,162.96L60.72,158.01L73.94,155.48L88.64,155.48L108.62,157.44L120.31,159.42L127.81,161.93L152.68,173.30L196.16,203.75L221.32,220.23L252.91,235.50L311.07,256.42L321.14,258.98L342.07,262.62L393.90,268.75L420.30,269.98L464.20,267.59L490.66,268.54L502.92,270.53L532.24,278.26L540.83,282.10L545.51,285.48L553.69,294.02L559.22,301.34L564.73,313.91L568.38,330.65L568.13,346.81L565.94,360.85L557.46,383.73L552.78,392.96L547.01,401.61L532.09,418.06L516.44,430.48L502.83,438.18L478.21,449.46L462.50,454.33L446.31,460.47L419.83,466.94L411.13,470.42L405.91,470.87L401.07,472.34L368.24,492.02" />
        <path d="M368.24,492.02L363.74,495.00L360.37,499.22" />
      </g>
      <g id="f2" transform="translate(231.14 -623.11)" style="--index:2; opacity:0;" class="frame">
        <path d="M412.71,465.64L407.55,470.06" />
        <path d="M407.55,470.06L395.98,479.31L390.01,488.01L360.51,555.69L355.35,563.69L342.27,578.45L333.44,585.44L314.40,593.57L299.29,596.63L282.51,598.83L265.71,598.37L236.74,593.66L211.35,583.63L189.70,572.34L174.75,557.98L145.74,515.29L129.31,496.85L100.24,474.76L79.20,462.61L57.48,453.60L30.61,446.55L7.18,442.96L-17.06,443.62L-43.34,442.71L-49.28,441.70L-61.39,435.54L-66.87,430.71L-71.05,423.80L-77.86,401.56L-78.82,390.34L-78.15,377.86L-76.33,367.77L-73.37,360.35L-66.77,350.22L-51.78,333.78L-35.56,320.80L-9.67,303.72L-2.29,297.93L6.95,288.99L9.66,282.59L10.65,276.74L10.48,271.56L7.66,257.83L-6.26,218.86L-8.55,210.35L-9.24,199.26L-7.81,190.83L-4.93,185.79L9.51,168.58L16.95,162.89L22.85,159.69L39.39,153.81L46.46,152.05L66.90,150.84L73.59,151.32L103.07,156.88L133.29,167.81L148.79,172.55L179.50,185.57L202.11,196.84L261.71,222.88L305.14,237.96L326.56,243.88L354.63,248.73L392.75,247.95L417.52,245.38L448.17,239.98L478.14,238.29L492.15,239.42L508.59,242.21L520.51,247.29L536.66,262.24L541.81,269.01L547.06,282.50L551.27,303.80L551.96,333.49L549.29,358.89L546.26,375.63L538.48,393.97L533.14,401.83L512.44,422.65L493.72,435.68L480.44,443.73L450.28,457.80L441.55,459.75L422.56,467.11L407.55,470.06" />
        <path d="M407.55,470.06L403.91,471.87L390.54,485.54" />
      </g>
      <g id="f3" transform="translate(231.14 -623.11)" style="--index:3; opacity:0;" class="frame">
        <path d="M444.34,393.27L441.82,397.49" />
        <path d="M441.82,397.49L430.06,413.27L422.13,432.51L414.61,453.75L402.14,495.31L392.11,535.87L381.04,557.36L373.47,568.28L365.48,577.62L353.19,587.74L338.60,596.71L318.10,605.06L309.68,607.36L293.59,608.44L278.87,607.47L267.45,608.40L247.03,608.36L226.47,605.36L219.05,602.96L203.95,594.00L190.94,582.94L184.23,575.32L178.03,565.77L168.05,554.35L160.84,541.12L152.83,519.63L143.47,497.73L137.80,489.05L130.67,481.55L116.19,471.93L104.00,465.00L84.70,458.39L69.29,456.35L46.98,456.38L32.52,455.56L18.41,453.17L9.71,449.97L2.11,446.39L-6.49,439.78L-20.35,424.65L-23.88,419.58L-27.57,411.04L-31.17,399.56L-32.29,390.40L-31.87,380.64L-26.34,349.73L-14.62,320.53L-11.32,309.54L-9.64,299.06L-8.64,279.67L-10.00,265.71L-13.00,254.14L-23.39,229.30L-31.02,206.17L-32.50,196.37L-32.73,188.70L-32.17,180.31L-30.19,172.06L-25.88,166.89L-21.52,163.61L-18.55,162.50L14.17,157.45L30.78,159.70L37.25,161.93L56.97,171.20L80.46,184.53L95.41,192.01L104.77,198.09L121.28,206.61L143.61,215.07L176.22,221.17L217.36,224.51L257.11,225.25L283.77,222.80L303.78,218.46L332.99,209.31L349.07,202.30L377.11,192.66L404.61,187.40L417.93,187.17L448.42,188.52L463.89,191.23L483.09,197.82L497.23,206.71L512.46,221.50L517.27,228.13L527.09,246.68L530.72,256.26L534.78,271.64L538.78,293.11L538.71,308.07L537.07,318.37L530.82,330.48L522.15,341.04L512.06,351.15L498.97,360.28L472.28,374.17L454.49,387.45L450.79,391.79L445.80,395.81L441.82,397.49" />
        <path d="M441.82,397.49L437.87,400.95L435.10,405.52L427.60,423.91" />
      </g>
      <g id="f4" transform="translate(231.14 -623.11)" style="--index:4; opacity:0;" class="frame">
        <path d="M414.98,418.43L425.33,450.07" />
        <path d="M425.33,450.07L430.03,468.76L432.51,498.55L432.01,510.50L428.65,534.15L425.25,545.87L416.01,564.91L400.02,583.86L392.61,590.41L376.36,600.16L361.13,607.30L350.38,609.86L324.49,613.96L305.70,613.45L266.28,607.43L249.76,601.29L239.02,596.04L220.38,583.17L201.55,563.09L194.52,551.78L191.06,544.61L172.58,497.71L164.73,487.21L155.64,479.48L138.05,468.96L121.40,463.00L98.81,459.54L84.99,460.06L61.12,459.07L51.10,457.28L41.78,454.36L29.97,449.69L23.12,445.66L15.40,439.50L10.26,433.77L6.43,427.10L4.46,420.76L1.92,397.92L1.94,387.14L4.86,369.42L12.17,349.39L14.70,340.01L17.16,325.53L16.77,316.50L11.80,301.36L1.23,281.07L-11.10,264.28L-34.88,236.23L-44.63,221.32L-46.86,214.16L-48.08,203.28L-48.21,197.34L-46.82,189.65L-43.34,184.90L-41.27,183.35L-25.71,177.68L-10.96,173.51L0.84,171.42L17.28,167.15L38.85,167.65L57.73,170.56L64.85,173.01L78.70,179.74L95.69,190.35L111.24,198.80L134.67,208.02L151.93,212.56L168.69,215.60L193.40,218.93L217.24,220.11L236.32,219.05L263.25,215.51L280.13,211.02L293.88,205.91L383.63,178.49L405.10,177.27L422.10,179.47L431.15,182.93L452.43,193.01L470.86,206.92L483.09,223.20L490.93,239.98L492.70,245.82L495.71,266.92L495.64,275.21L491.01,300.85L481.57,320.43L467.83,338.03L448.73,356.06L437.43,369.30L426.91,384.02L422.53,392.52L418.64,414.19L420.73,430.66L424.62,444.28L425.33,450.07" />
        <path d="M425.33,450.07L425.65,456.19L427.64,460.82" />
      </g>
      <g id="f5" transform="translate(1420.50 847.48)" style="--index:5; opacity:0;" class="frame">
        <path d="M-738.81,-1144.92L-741.81,-1139.62L-745.14,-1130.18L-751.34,-1118.34L-755.18,-1106.41L-767.46,-1056.99L-770.79,-1032.27L-770.83,-1022.45L-768.02,-1007.58L-756.99,-978.05L-751.23,-969.26L-749.20,-959.27L-748.96,-947.22L-751.25,-929.20L-758.06,-911.47L-763.66,-902.12L-773.05,-890.54L-788.87,-877.11L-798.55,-871.89L-827.43,-861.33L-847.22,-857.63L-852.12,-857.50L-865.65,-859.32L-876.97,-858.95L-886.10,-860.22L-899.87,-865.69L-908.84,-871.32L-982.73,-948.12L-992.34,-956.63L-1001.51,-966.19L-1022.28,-981.43L-1037.55,-988.80L-1055.64,-993.57L-1088.62,-998.12L-1119.19,-1001.30L-1129.56,-1003.15L-1138.63,-1007.07L-1148.36,-1013.31L-1158.02,-1022.75L-1166.21,-1034.06L-1169.75,-1047.53L-1169.19,-1061.55L-1164.83,-1080.47L-1162.76,-1094.99L-1164.16,-1113.06L-1166.36,-1123.17L-1169.32,-1132.16L-1175.06,-1142.76L-1184.37,-1155.98L-1202.11,-1175.20L-1216.22,-1188.75L-1227.80,-1201.39L-1233.01,-1208.47L-1240.86,-1222.87L-1246.53,-1235.56L-1249.87,-1257.01L-1248.85,-1266.28L-1246.57,-1270.28L-1244.80,-1271.79L-1237.31,-1276.45L-1228.67,-1279.57L-1215.81,-1281.77L-1201.48,-1281.91L-1144.92,-1272.71L-1103.20,-1263.34L-1075.31,-1259.09L-1042.21,-1257.39L-1011.62,-1259.46L-989.26,-1263.59L-979.03,-1266.52L-963.29,-1272.63L-931.42,-1286.77L-901.76,-1300.83L-871.12,-1311.57L-845.12,-1315.84L-828.75,-1317.35L-821.11,-1316.72L-795.12,-1311.94L-763.68,-1292.59L-749.29,-1281.75L-744.14,-1276.21L-737.44,-1266.21L-732.35,-1254.57L-724.71,-1232.58L-721.18,-1214.52L-719.94,-1200.49L-720.35,-1191.87L-723.05,-1168.20L-724.92,-1158.69L-728.02,-1150.63L-740.71,-1127.52L-746.46,-1114.94L-752.61,-1106.25L-755.62,-1096.36L-757.21,-1093.77" />
      </g>
      <g id="f6" transform="translate(231.14 -623.11)" style="--index:6; opacity:0;" class="frame">
        <path d="M416.88,365.62L415.89,370.81L416.53,376.63L426.70,403.35L433.81,416.56L442.03,429.40L450.44,439.99L455.16,448.71L470.87,470.92L478.13,484.93L482.78,497.92L483.70,506.09L483.66,513.62L480.26,534.79L475.30,550.54L465.50,566.72L461.80,571.04L452.84,578.97L441.29,586.27L429.53,590.95L419.78,592.25L403.25,591.26L378.90,586.27L352.78,576.51L329.28,565.56L314.09,559.47L302.50,552.92L283.59,545.24L264.96,535.77L224.82,519.82L184.78,508.45L112.96,494.37L82.77,487.26L67.85,481.77L58.28,476.91L50.41,472.24L39.36,464.17L29.04,454.11L26.10,449.03L23.10,440.23L21.84,426.29L27.52,389.37L28.42,375.52L27.78,364.15L25.32,347.71L22.86,337.56L18.93,326.40L9.42,304.29L4.85,297.50L1.20,293.64L-14.83,279.01L-33.79,267.01L-51.18,258.73L-69.39,246.88L-72.86,243.04L-76.07,237.83L-78.95,228.37L-78.87,219.99L-77.75,213.98L-76.40,211.15L-71.13,203.55L-64.60,198.37L-61.06,197.15L-41.71,196.15L-4.24,196.87L19.78,198.55L65.96,204.86L105.53,208.32L136.15,209.51L147.45,208.66L187.92,201.22L209.79,193.76L244.58,177.62L266.25,164.04L294.62,144.72L300.77,141.57L309.40,138.54L333.20,132.65L339.82,131.87L358.83,133.38L381.24,137.46L396.63,142.83L402.90,145.80L414.10,152.95L424.18,161.44L430.93,169.05L439.21,181.53L442.61,189.64L444.73,198.49L445.37,221.19L439.73,259.43L425.19,310.39L418.44,336.71L415.75,351.33L416.31,364.95L415.49,372.08L416.06,377.69L420.28,389.96" />
      </g>
      <g id="f7" transform="translate(231.14 -623.11)" style="--index:7; opacity:0;" class="frame">
        <path d="M444.87,576.48L436.51,580.12L429.64,581.91L410.94,582.94L397.66,582.60L382.07,579.95L373.04,576.99L350.41,565.71L322.13,549.66L277.64,521.15L266.92,515.79L241.91,508.03L219.65,504.17L203.77,502.80L172.03,504.38L147.94,506.79L119.32,507.95L96.79,505.18L86.20,501.27L74.35,492.98L69.57,486.92L63.09,476.09L60.02,466.61L55.74,448.06L54.31,435.60L53.68,403.36L51.16,391.76L47.88,382.43L44.43,376.32L39.18,367.81L29.54,355.01L16.81,341.68L3.54,330.47L-24.78,311.84L-41.11,302.88L-77.13,286.85L-96.40,276.15L-102.86,269.81L-116.03,246.69L-118.23,232.77L-116.70,223.11L-110.95,210.08L-106.90,205.89L-102.21,202.96L-76.61,198.92L-59.43,198.20L-2.96,199.38L12.26,200.82L28.78,201.23L71.24,201.28L122.59,195.96L139.42,191.28L152.22,186.09L164.03,179.42L221.72,141.99L251.88,126.02L269.83,119.25L286.64,116.84L304.80,116.69L326.90,119.19L344.48,122.94L357.91,128.74L378.61,142.73L392.70,157.62L400.18,170.33L406.92,189.59L411.16,207.29L412.73,218.33L415.24,242.41L417.65,296.32L420.31,335.12L427.74,380.83L432.74,395.31L444.25,419.67L457.85,440.09L477.36,464.66L490.06,483.13L492.59,489.10L495.12,499.45L496.92,517.01L494.51,536.82L491.35,544.30L486.84,550.59L459.40,567.87L454.66,569.36L449.40,572.19L442.57,573.61L436.53,576.11L430.68,576.26L426.30,578.58L423.49,578.10" />
      </g>
      <g id="f8" transform="translate(231.14 -623.11)" style="--index:8; opacity:0;" class="frame">
        <path d="M472.15,557.84L463.97,564.44L455.59,566.00L439.44,565.16L406.91,560.51L390.28,556.26L371.59,550.12L342.51,538.61L316.89,529.50L301.58,522.43L258.91,506.71L236.20,500.10L214.50,496.33L205.42,495.83L183.38,497.63L156.83,503.44L146.53,504.44L128.75,504.20L107.02,502.33L95.85,500.05L86.56,495.23L82.27,491.94L78.61,487.03L75.58,480.11L73.63,472.45L69.74,446.42L70.36,419.24L69.63,406.54L66.24,397.27L56.99,384.92L31.14,364.15L1.01,341.50L-18.96,329.24L-28.92,324.97L-41.31,320.96L-59.74,317.08L-77.54,315.29L-93.40,309.75L-110.07,299.39L-116.21,293.49L-120.84,287.46L-127.47,269.74L-128.29,261.77L-125.79,246.38L-123.43,239.72L-118.41,231.03L-114.61,227.66L-103.69,223.50L-97.96,222.95L-78.91,218.64L-57.77,218.32L-17.96,214.76L27.08,212.48L53.99,207.32L69.95,202.68L87.99,194.77L118.46,175.42L149.01,152.18L177.79,128.15L201.52,114.82L213.40,110.53L222.16,108.40L232.93,107.26L250.65,107.40L276.21,111.46L284.25,114.05L298.28,121.87L318.66,135.63L340.76,159.01L365.79,198.73L374.18,219.04L385.96,252.52L394.62,287.56L408.78,339.07L416.40,361.63L431.59,388.63L437.65,397.76L462.64,428.71L494.49,455.94L506.89,476.16L510.83,487.90L512.12,499.95L510.00,512.46L507.89,519.82L504.24,527.89L496.76,538.72L484.25,551.20L474.02,556.43L458.24,562.34L451.70,563.13L445.68,562.68" />
      </g>
      <g id="f9" transform="translate(231.14 -623.11)" style="--index:9; opacity:0;" class="frame">
        <path d="M496.22,532.44L489.53,535.79" />
        <path d="M489.53,535.79L482.04,539.00L473.50,538.71L464.14,539.87L445.30,539.54L438.14,540.14L428.28,539.14L422.20,538.02L388.42,528.37L368.78,519.89L352.01,515.23L328.66,510.71L305.74,508.55L287.72,509.12L231.48,517.70L219.78,520.30L185.89,524.96L160.28,525.86L145.92,524.47L137.09,522.97L132.15,521.28L121.10,514.93L106.07,500.65L92.32,483.25L75.15,458.50L68.57,451.19L52.67,436.28L41.22,426.71L24.01,413.97L-8.42,391.40L-26.39,380.34L-43.28,371.47L-62.34,362.79L-76.47,360.03L-104.17,358.09L-120.52,355.42L-138.83,349.17L-152.93,340.67L-160.17,333.25L-162.68,327.28L-165.47,317.28L-165.17,299.69L-163.06,289.56L-159.42,281.58L-151.09,268.98L-142.92,260.72L-134.87,255.51L-114.87,251.18L-87.06,243.68L-52.87,237.26L-40.55,235.93L-26.66,232.36L-15.96,230.56L22.00,218.77L37.98,209.47L54.56,197.78L76.93,180.12L92.28,170.51L102.85,162.86L150.37,138.00L164.25,131.96L174.26,129.27L188.04,127.89L208.10,128.81L217.74,130.44L232.97,134.64L247.76,141.34L269.40,156.18L283.18,168.25L292.77,179.79L306.69,202.36L312.80,216.94L320.68,240.79L334.22,272.37L358.62,322.65L363.33,330.32L381.37,352.27L404.29,372.36L416.43,380.04L438.58,392.29L470.90,405.39L496.97,418.21L513.83,423.45L523.97,430.03L540.44,445.89L545.98,457.23L550.21,476.06L548.51,489.50L542.81,502.38L534.16,512.83L518.46,524.47L505.88,531.69L489.53,535.79" />
        <path d="M489.53,535.79L479.86,536.63" />
      </g>
      <g id="f10" transform="translate(231.14 -623.11)" style="--index:10; opacity:0;" class="frame">
        <path d="M491.11,512.41L482.63,516.31L472.18,517.69L440.73,514.16L415.90,512.62L351.59,513.26L327.30,516.40L310.08,521.20L291.13,527.25L242.10,547.35L213.94,555.36L191.60,557.11L156.27,552.26L142.62,546.70L129.12,536.22L118.60,524.61L110.23,512.61L93.77,493.32L55.87,459.04L37.32,445.21L16.12,432.95L-15.33,419.31L-43.73,411.25L-69.80,406.83L-91.00,405.82L-113.47,403.35L-143.03,397.66L-153.14,393.18L-164.59,381.91L-172.44,370.75L-182.02,353.58L-188.26,333.55L-189.28,327.18L-189.21,321.65L-185.15,297.26L-181.13,284.68L-176.78,275.87L-168.01,265.82L-153.70,258.04L-138.52,251.17L-123.05,247.70L-102.06,248.86L-72.67,253.84L-62.17,254.30L-41.24,251.92L-16.23,245.02L-8.15,241.32L8.01,231.47L37.18,207.43L54.97,195.85L75.28,180.68L107.02,162.41L117.05,157.73L136.17,150.85L166.04,144.47L189.53,145.59L221.54,150.93L232.35,155.14L243.44,161.88L256.55,171.73L271.54,187.34L281.74,203.85L295.39,235.26L306.73,269.03L317.14,290.92L326.84,304.60L336.50,315.77L358.20,335.18L373.58,344.18L386.13,348.97L458.56,361.72L484.14,367.87L517.17,378.33L537.36,387.58L550.25,401.02L557.74,412.01L562.66,421.81L566.66,436.51L567.25,442.61L567.09,448.69L564.88,461.68L559.58,472.70L555.43,479.05L544.23,491.07L537.05,496.43L516.93,506.39L498.72,511.50L481.64,512.51L466.94,514.40L462.86,513.71" />
      </g>
      <g id="f11" transform="translate(231.14 -623.11)" style="--index:11; opacity:0;" class="frame">
        <path d="M480.98,476.44L469.91,474.97" />
        <path d="M469.91,474.97L453.33,473.57L434.23,474.33L392.43,481.66L367.71,491.38L353.02,499.20L326.84,514.60L306.99,527.64L296.27,533.45L274.60,551.05L257.05,560.58L242.66,567.10L233.57,569.65L216.90,572.27L199.35,571.59L181.93,568.64L157.82,558.92L137.86,545.51L128.98,535.99L115.46,517.88L102.80,499.05L97.04,491.97L75.56,469.53L47.56,449.53L19.53,433.71L0.92,427.51L-11.99,425.50L-21.37,425.07L-46.60,426.99L-85.15,428.17L-102.68,427.50L-122.97,423.96L-138.50,419.42L-149.66,414.29L-155.31,410.47L-166.95,396.29L-172.21,385.18L-175.89,370.83L-177.37,351.99L-176.97,338.98L-171.95,306.55L-169.06,299.60L-158.83,281.50L-150.08,272.58L-140.00,266.57L-132.73,263.61L-116.86,259.51L-100.85,257.37L-72.74,259.84L-47.93,260.91L-19.50,259.81L-0.59,256.34L8.29,252.88L27.72,242.91L33.76,238.89L53.68,221.57L73.91,201.15L91.57,186.50L106.41,176.04L124.17,168.08L135.06,165.73L151.07,166.36L165.29,168.76L175.10,172.63L186.07,178.39L202.56,191.97L211.85,201.92L225.66,223.44L246.18,244.67L260.53,255.11L287.16,269.73L306.77,276.20L336.71,281.85L364.91,284.43L384.32,287.44L451.96,290.89L468.58,292.37L484.01,294.90L497.07,298.25L514.97,304.14L533.96,314.71L541.44,321.22L551.66,332.49L556.63,339.71L565.53,361.54L568.40,379.48L569.79,394.31L568.92,406.28L565.50,422.58L559.27,433.92L548.48,448.68L544.54,452.69L530.52,463.39L513.08,470.63L499.70,474.76L486.75,475.13L478.50,473.73L469.91,474.97" />
        <path d="M469.91,474.97L467.32,475.47" />
      </g>
    </g>
    <g id="t3" transform="translate(333.65 -263.96) scale(0.93 0.93) rotate(-2.45)" class="thread">
      <g id="f0" transform="translate(-293.94 182.62)" style="--index:0; opacity:1;" class="frame">
        <path d="M-525.40,230.30L-579.70,215.50" />
      </g>
      <g id="f1" transform="translate(-293.94 182.62)" style="--index:1; opacity:0;" class="frame">
        <path d="M-448.83,242.53L-451.68,244.31L-456.34,244.01" />
        <path d="M-456.34,244.01L-461.22,242.58L-461.47,240.51L-458.66,239.32L-454.75,239.44L-454.11,241.60L-456.34,244.01" />
        <path d="M-456.34,244.01L-459.53,244.90L-463.66,244.63L-465.98,241.93L-465.09,241.11" />
        <path d="M-465.09,241.11L-463.96,241.20L-465.09,241.11" />
        <path d="M-465.09,241.11L-466.84,240.57" />
        <path d="M-501.77,-171.03L-499.32,-173.16L-493.38,-172.87L-494.91,-172.47" />
      </g>
      <g id="f2" transform="translate(-293.94 182.62)" style="--index:2; opacity:0;" class="frame">
        <path d="M-441.29,247.18L-439.59,248.32" />
        <path d="M-539.34,-154.31L-537.39,-156.87L-524.56,-164.26L-510.43,-168.77L-505.60,-169.56" />
      </g>
      <g id="f3" transform="translate(-293.94 182.62)" style="--index:3; opacity:0;" class="frame">
        <path d="M-594.71,-134.54L-575.13,-142.35L-539.46,-153.87" />
      </g>
      <g id="f4" transform="translate(-293.94 182.62)" style="--index:4; opacity:0;" class="frame">
        <path d="M-635.40,-113.20L-620.73,-121.96L-594.71,-134.54" />
      </g>
      <g id="f5" transform="translate(-293.94 182.62)" style="--index:5; opacity:0;" class="frame">
        <path d="M-661.50,-93.81L-648.45,-104.75L-635.40,-113.20" />
      </g>
      <g id="f6" transform="translate(-293.94 182.62)" style="--index:6; opacity:0;" class="frame" />
      <g id="f7" transform="translate(-293.94 182.62)" style="--index:7; opacity:0;" class="frame">
        <path d="M-669.56,-81.08" />
        <path d="M-691.55,-89.58L-691.90,-92.47L-686.38,-99.05" />
        <path d="M-686.38,-99.05L-681.96,-102.47L-675.03,-105.04L-665.18,-104.49L-659.01,-102.35L-653.14,-97.99L-648.59,-91.01L-646.93,-85.13L-647.09,-80.62L-654.33,-71.37L-659.67,-66.39L-665.20,-65.37L-678.59,-66.99L-685.72,-72.68L-691.06,-78.81L-692.23,-81.18L-693.26,-87.45L-692.77,-93.91L-690.00,-97.07L-686.38,-99.05" />
        <path d="M-686.38,-99.05L-677.84,-99.47" />
      </g>
      <g id="f8" transform="translate(-293.94 182.62)" style="--index:8; opacity:0;" class="frame">
        <path d="M-712.49,-89.51L-713.77,-92.20L-713.59,-101.09L-711.02,-105.25L-700.08,-115.54L-694.63,-117.56L-689.87,-118.28L-678.00,-117.62L-672.85,-115.19L-667.59,-111.42L-665.03,-107.87L-662.88,-102.99L-663.83,-94.02L-666.27,-89.47L-670.58,-84.19L-679.69,-78.41L-684.55,-76.50L-691.32,-75.20L-699.56,-75.10L-701.42,-76.16L-703.52,-78.99L-708.76,-88.90L-709.57,-94.33L-708.56,-100.66" />
        <path d="M-708.56,-100.66L-704.62,-104.31L-701.30,-105.91L-694.07,-105.65L-688.46,-104.18L-685.81,-102.67L-683.18,-99.72L-681.34,-94.87L-681.19,-91.61L-692.49,-84.15L-695.79,-83.45L-701.10,-83.99L-705.80,-86.59L-708.03,-89.59L-709.11,-94.36L-708.56,-100.66" />
        <path d="M-708.56,-100.66L-705.14,-106.18L-698.90,-111.74L-695.29,-112.41L-692.03,-111.89L-686.62,-107.88" />
      </g>
      <g id="f9" transform="translate(-293.94 182.62)" style="--index:9; opacity:0;" class="frame">
        <path d="M-715.16,-90.05L-695.51,-110.83" />
        <path d="M-734.05,-78.73L-736.14,-81.70L-736.77,-84.94L-736.17,-90.84L-726.42,-104.64L-723.55,-107.25L-719.01,-109.96L-702.63,-114.94L-694.29,-114.28L-690.45,-113.26L-688.41,-111.72L-686.39,-107.93L-685.85,-104.63L-686.39,-98.49L-688.20,-94.19L-691.78,-90.50L-706.90,-78.99L-720.09,-71.76L-727.79,-71.61L-734.59,-75.22L-738.24,-80.90L-738.37,-82.04L-737.66,-82.36" />
      </g>
      <g id="f10" transform="translate(-293.94 182.62)" style="--index:10; opacity:0;" class="frame">
        <path d="M-742.92,-41.29L-736.47,-57.27L-730.89,-68.32L-724.22,-79.00L-715.16,-90.05" />
      </g>
      <g id="f11" transform="translate(-293.94 182.62)" style="--index:11; opacity:0;" class="frame">
        <path d="M-749.95,30.06L-750.77,17.22L-749.55,-10.54L-747.93,-23.00L-742.92,-41.29" />
      </g>
      <g id="f12" transform="translate(-293.94 182.62)" style="--index:12; opacity:0;" class="frame">
        <path d="M-738.24,81.91L-742.49,69.30L-746.90,50.56L-749.95,30.06" />
      </g>
      <g id="f13" transform="translate(-293.94 182.62)" style="--index:13; opacity:0;" class="frame">
        <path d="M-699.44,143.30L-711.43,128.43L-726.02,106.09L-738.24,81.91" />
      </g>
      <g id="f14" transform="translate(-293.94 182.62)" style="--index:14; opacity:0;" class="frame">
        <path d="M-649.73,187.23L-666.08,175.61L-685.76,157.94L-699.44,143.30" />
      </g>
      <g id="f15" transform="translate(-293.94 182.62)" style="--index:15; opacity:0;" class="frame">
        <path d="M-579.70,215.50L-600.15,209.39L-618.38,202.81L-630.84,197.42L-649.73,187.23" />
      </g>
    </g>
  </g>
</svg>